<svg xmlns="http://www.w3.org/2000/svg" xmlns:xlink="http://www.w3.org/1999/xlink" width="128" height="128" viewBox="0 0 128 128">
  <defs>
    <clipPath id="clip-path">
      <rect id="Rectángulo_455533" data-name="Rectángulo 455533" width="128" height="122.776" fill="#19538d"/>
    </clipPath>
    <clipPath id="clip-path-2">
      <rect id="Rectángulo_461933" data-name="Rectángulo 461933" width="65.122" height="64.961" fill="#19538d"/>
    </clipPath>
  </defs>
  <g id="Grupo_1212383" data-name="Grupo 1212383" transform="translate(-383.746 -8399)">
    <circle id="Elipse_13674" data-name="Elipse 13674" cx="54.5" cy="54.5" r="54.5" transform="translate(392.746 8409)" fill="#fff"/>
    <g id="Grupo_1179062" data-name="Grupo 1179062" transform="translate(272)">
      <rect id="Rectángulo_455531" data-name="Rectángulo 455531" width="128" height="128" transform="translate(111.746 8399)" fill="none"/>
      <g id="Grupo_1179061" data-name="Grupo 1179061" transform="translate(111.746 8402)">
        <path id="Trazado_998445" data-name="Trazado 998445" d="M120.883,97.46H96.727L100,91.354h24.156Z" fill="#62249e"/>
        <path id="Trazado_998446" data-name="Trazado 998446" d="M1.985,86.893,0,90.934H26.632l1.986-4.041Z" fill="#19538d"/>
        <path id="Trazado_998447" data-name="Trazado 998447" d="M124.314,32.5H98.809l2-4.529h25.505Z" fill="#19538d"/>
        <path id="Trazado_998448" data-name="Trazado 998448" d="M36.988,12.75H3.483l2-4.529h33.5Z" fill="#19538d"/>
        <g id="Grupo_1179060" data-name="Grupo 1179060">
          <g id="Grupo_1179059" data-name="Grupo 1179059" clip-path="url(#clip-path)">
            <path id="Trazado_998449" data-name="Trazado 998449" d="M64,115.717a54.31,54.31,0,0,1-52.948-66.48H3.82A61.384,61.384,0,0,0,111.812,99.874h-9.469A54.154,54.154,0,0,1,64,115.717" fill="#19538d"/>
            <path id="Trazado_998450" data-name="Trazado 998450" d="M110.835,88.914h8.033c.645-1.284,1.231-2.6,1.787-3.934h-7.723c-.649,1.342-1.344,2.656-2.1,3.934" fill="#19538d"/>
            <path id="Trazado_998451" data-name="Trazado 998451" d="M125.388,61.388A61.4,61.4,0,0,0,5.373,43.131h7.452A54.33,54.33,0,1,1,114.406,81.649h7.526a61.118,61.118,0,0,0,3.456-20.261" fill="#19538d"/>
            <path id="Trazado_998452" data-name="Trazado 998452" d="M108.562,81.649V84.98h4.37q.792-1.637,1.475-3.331Z" fill="#19538d"/>
            <path id="Trazado_998453" data-name="Trazado 998453" d="M128,81.649h-6.068q-.592,1.689-1.277,3.331H128Z" fill="#19538d"/>
          </g>
        </g>
        <path id="Trazado_998444" data-name="Trazado 998444" d="M3,37.025,0,43.131H18.134l3-6.106Z" fill="#62249e"/>
      </g>
    </g>
    <g id="Grupo_1177669" data-name="Grupo 1177669" transform="translate(413.49 8428.729)">
      <g id="Grupo_1099618" data-name="Grupo 1099618" transform="translate(0.256 0.271)">
        <rect id="Rectángulo_401104" data-name="Rectángulo 401104" width="68.18" height="69.001" transform="translate(0)" fill="none"/>
      </g>
      <g id="Grupo_1212428" data-name="Grupo 1212428" transform="translate(1.256 2.271)">
        <g id="Grupo_1212427" data-name="Grupo 1212427" clip-path="url(#clip-path-2)">
          <path id="Trazado_1277586" data-name="Trazado 1277586" d="M46.251,39.892v5.793l-2.47.666,1.055,2.463-5.423,5.431L37.137,53l-.572,2.468H31.057c.177,1.41.5,2.843.578,4.265a31.958,31.958,0,0,1-.008,4.756.614.614,0,0,1-.285.475H.385c-.271-.167-.262-.379-.295-.655a33.994,33.994,0,0,1,.222-6.825c.838-5.772,5.087-11.138,10.8-12.654.051-.263.039-.242-.122-.394-1.227-1.16-2.037-1.568-2.761-3.274-1.621-3.82-.457-7.312,2.309-10.1l.007-27.531C10.788.979,11.975.169,14.43,0H61.168C63.748.178,65,1.051,65.059,3.705c.223,10.706-.233,22.079,0,32.49-.111,1.292-.443,2.619-1.7,3.234a8.318,8.318,0,0,1-1.437.462ZM12.825,2.763V29.826l1.9-.38V4.472l.285-.285h45.58l.285.285V35.429l-.285.285H24.03l.189,1.9,38.288-.172L62.735,2.8l-.341-.419-49.187,0a1.491,1.491,0,0,0-.383.377m45.77,3.7H17v22.98c2.333.33,4.949,1.775,5.887,3.988H58.6ZM22.116,37.707a6.252,6.252,0,1,0-6.252,6.252,6.252,6.252,0,0,0,6.252-6.252M43.972,44.26V39.892H39.6c1.9,6.812-6.1,12.253-11.684,7.6a7.189,7.189,0,0,1-2.37-7.6l-1.69.018c-.242,2.08-1.749,3.221-3.126,4.523-.16.152-.172.131-.122.394a14.7,14.7,0,0,1,9.526,8.517l4.739-.082c.5-1.07.111-2.479,1.5-2.842,1.135-.3,1.793,1.3,3,1.009l2.9-2.92c-.251-1.231-1.905-2.248-.859-3.485a7.391,7.391,0,0,1,2.558-.765M27.923,39.892c-.562,0-.52,2.347-.482,2.761a5.186,5.186,0,0,0,6.549,4.255c2.935-.793,4.751-4.3,3.24-7.016ZM18.9,46.35c-1.786-.141-4.048-.458-5.791,0-.258.068-.31-.157-.293.283.126,3.332,6.072,3.434,6.085-.287m2.09.757a5.243,5.243,0,0,1-10.261,0l-.758.193,5.7,13.673,6.059-13.409ZM2.379,57.459c-.2,1.6.149,3.576,0,5.223H5.418V54.325H7.507v8.356h6.647L8.264,48.628c-.409-.3-2.852,2.353-3.194,2.786a15.727,15.727,0,0,0-2.691,6.045m26.968,5.223V57.459a23.184,23.184,0,0,0-1.294-3.834,11.746,11.746,0,0,0-4.591-5l-5.89,14.054H24.22V54.325h2.089v8.356Z" transform="translate(0)" fill="#19538d"/>
          <rect id="Rectángulo_461930" data-name="Rectángulo 461930" width="12.744" height="2.279" transform="translate(48.14 43.88)" fill="#19538d"/>
          <rect id="Rectángulo_461931" data-name="Rectángulo 461931" width="12.744" height="2.279" transform="translate(48.14 48.058)" fill="#19538d"/>
          <path id="Trazado_1277587" data-name="Trazado 1277587" d="M264.686,274.913c.306-.1,1.706-.106,1.885.151l-.095,2.018-2.018-.1c-.1-.478-.292-1.9.228-2.075" transform="translate(-214.136 -222.65)" fill="#19538d"/>
          <path id="Trazado_1277588" data-name="Trazado 1277588" d="M286.686,274.913c.306-.1,1.706-.106,1.885.151l-.095,2.018-2.018-.1c-.1-.478-.292-1.9.228-2.075" transform="translate(-231.958 -222.65)" fill="#19538d"/>
          <path id="Trazado_1277589" data-name="Trazado 1277589" d="M308.686,274.913c.306-.1,1.706-.106,1.885.151l-.095,2.018-2.018-.1c-.1-.478-.292-1.9.228-2.075" transform="translate(-249.78 -222.65)" fill="#19538d"/>
          <path id="Trazado_1277590" data-name="Trazado 1277590" d="M116.43,48.224h3.988V44.331l.285-.285h16.333l.285.285V54.4l-.285.285h-7.122v1.9h7.122l.285.285V66.931l-.285.285H120.7l-.285-.285V56.866l.285-.285h7.122v-1.9H120.7l-.285-.285V50.5H116.43V54.4l-.285.285H99.812l-.285-.285V44.331l.285-.285h16.333l.285.285Zm-2.279-1.9H101.806V52.4h12.345Zm20.891,0H122.7V52.4h12.345Zm0,12.535H122.7v6.077h12.345Z" transform="translate(-80.625 -35.681)" fill="#19538d"/>
          <rect id="Rectángulo_461932" data-name="Rectángulo 461932" width="14.833" height="2.279" transform="translate(18.892 25.078)" fill="#19538d"/>
          <path id="Trazado_1277591" data-name="Trazado 1277591" d="M127.527,156.325v-2.279h9.211l.255.315a2.4,2.4,0,0,1,.04.53c.041.471.094,1.142-.295,1.434Z" transform="translate(-103.307 -124.79)" fill="#19538d"/>
          <path id="Trazado_1277592" data-name="Trazado 1277592" d="M121.686,109.913c.306-.1,1.706-.106,1.885.151l-.095,2.018-2.018-.095c-.1-.478-.292-1.9.228-2.074" transform="translate(-98.295 -88.987)" fill="#19538d"/>
          <path id="Trazado_1277593" data-name="Trazado 1277593" d="M143.686,109.913c.306-.1,1.706-.106,1.885.151l-.095,2.018-2.018-.095c-.1-.478-.292-1.9.228-2.074" transform="translate(-116.116 -88.987)" fill="#19538d"/>
          <path id="Trazado_1277594" data-name="Trazado 1277594" d="M165.686,109.913c.306-.1,1.706-.106,1.885.151l-.095,2.018-2.018-.095c-.1-.478-.292-1.9.228-2.074" transform="translate(-133.938 -88.987)" fill="#19538d"/>
          <path id="Trazado_1277595" data-name="Trazado 1277595" d="M253.716,66.046h3.8l.255.315a2.4,2.4,0,0,1,.04.53c.041.471.094,1.141-.295,1.434h-3.8l-.255-.315a2.4,2.4,0,0,1-.04-.53c-.024-.278-.051-1.434.295-1.434" transform="translate(-205.282 -53.503)" fill="#19538d"/>
          <path id="Trazado_1277596" data-name="Trazado 1277596" d="M231.686,65.913c.306-.1,1.706-.106,1.885.151l-.095,2.018-2.018-.095c-.1-.478-.292-1.9.228-2.074" transform="translate(-187.403 -53.343)" fill="#19538d"/>
          <path id="Trazado_1277597" data-name="Trazado 1277597" d="M231.716,132.046h7.977l.255.315a2.406,2.406,0,0,1,.04.53c.041.471.094,1.142-.295,1.434h-7.977l-.255-.315a2.4,2.4,0,0,1-.04-.53c-.024-.278-.051-1.434.295-1.434" transform="translate(-187.46 -106.968)" fill="#19538d"/>
          <path id="Trazado_1277598" data-name="Trazado 1277598" d="M130.862,66.046v2.279h-9.211l-.255-.315a2.4,2.4,0,0,1-.04-.53c-.041-.471-.094-1.142.295-1.434Z" transform="translate(-98.286 -53.503)" fill="#19538d"/>
        </g>
      </g>
    </g>
  </g>
</svg>
