<svg xmlns="http://www.w3.org/2000/svg" xmlns:xlink="http://www.w3.org/1999/xlink" width="128" height="128" viewBox="0 0 128 128">
  <defs>
    <clipPath id="clip-path">
      <rect id="Rectángulo_455533" data-name="Rectángulo 455533" width="128" height="122.776" fill="#19538d"/>
    </clipPath>
    <clipPath id="clip-path-2">
      <rect id="Rectángulo_461677" data-name="Rectángulo 461677" width="58.843" height="48.776" fill="#19538d"/>
    </clipPath>
  </defs>
  <g id="Grupo_1212394" data-name="Grupo 1212394" transform="translate(-383.746 -8399)">
    <circle id="Elipse_13674" data-name="Elipse 13674" cx="54.5" cy="54.5" r="54.5" transform="translate(392.746 8409)" fill="#fff"/>
    <g id="Grupo_1179062" data-name="Grupo 1179062" transform="translate(272)">
      <rect id="Rectángulo_455531" data-name="Rectángulo 455531" width="128" height="128" transform="translate(111.746 8399)" fill="none"/>
      <g id="Grupo_1179061" data-name="Grupo 1179061" transform="translate(111.746 8402)">
        <path id="Trazado_998445" data-name="Trazado 998445" d="M120.883,97.46H96.727L100,91.354h24.156Z" fill="#62249e"/>
        <path id="Trazado_998446" data-name="Trazado 998446" d="M1.985,86.893,0,90.934H26.632l1.986-4.041Z" fill="#19538d"/>
        <path id="Trazado_998447" data-name="Trazado 998447" d="M124.314,32.5H98.809l2-4.529h25.505Z" fill="#19538d"/>
        <path id="Trazado_998448" data-name="Trazado 998448" d="M36.988,12.75H3.483l2-4.529h33.5Z" fill="#19538d"/>
        <g id="Grupo_1179060" data-name="Grupo 1179060">
          <g id="Grupo_1179059" data-name="Grupo 1179059" clip-path="url(#clip-path)">
            <path id="Trazado_998449" data-name="Trazado 998449" d="M64,115.717a54.31,54.31,0,0,1-52.948-66.48H3.82A61.384,61.384,0,0,0,111.812,99.874h-9.469A54.154,54.154,0,0,1,64,115.717" fill="#19538d"/>
            <path id="Trazado_998450" data-name="Trazado 998450" d="M110.835,88.914h8.033c.645-1.284,1.231-2.6,1.787-3.934h-7.723c-.649,1.342-1.344,2.656-2.1,3.934" fill="#19538d"/>
            <path id="Trazado_998451" data-name="Trazado 998451" d="M125.388,61.388A61.4,61.4,0,0,0,5.373,43.131h7.452A54.33,54.33,0,1,1,114.406,81.649h7.526a61.118,61.118,0,0,0,3.456-20.261" fill="#19538d"/>
            <path id="Trazado_998452" data-name="Trazado 998452" d="M108.562,81.649V84.98h4.37q.792-1.637,1.475-3.331Z" fill="#19538d"/>
            <path id="Trazado_998453" data-name="Trazado 998453" d="M128,81.649h-6.068q-.592,1.689-1.277,3.331H128Z" fill="#19538d"/>
          </g>
        </g>
        <path id="Trazado_998444" data-name="Trazado 998444" d="M3,37.025,0,43.131H18.134l3-6.106Z" fill="#62249e"/>
      </g>
    </g>
    <g id="Grupo_1177669" data-name="Grupo 1177669" transform="translate(413.49 8428.729)">
      <g id="Grupo_1099618" data-name="Grupo 1099618" transform="translate(0.256 0.271)">
        <rect id="Rectángulo_401104" data-name="Rectángulo 401104" width="68.18" height="69.001" transform="translate(0)" fill="none"/>
      </g>
      <g id="Grupo_1212421" data-name="Grupo 1212421" transform="translate(4.256 10.271)">
        <g id="Grupo_1212077" data-name="Grupo 1212077" clip-path="url(#clip-path-2)">
          <path id="Trazado_1276608" data-name="Trazado 1276608" d="M99.2,61.039l-3.993-.059a10.644,10.644,0,0,1-6.992-3.134l-8.827-8.268L76.333,55.37a11.209,11.209,0,0,1-11.392,6.2l0-3.9a7.224,7.224,0,0,0,7.882-3.92l3.649-6.891L73.533,44.08a7.9,7.9,0,0,0-5.472-2.274l-3.116-.016V37.941l2.744-.025a12.016,12.016,0,0,1,7.877,2.8l2.793,2.618,4.766-8.958-9.97-9.309A7.714,7.714,0,0,0,68,23.1l-3.053-.037V19.218l3.512.061a10.91,10.91,0,0,1,7.222,2.885l9.327,8.7,3.052-5.762A10.906,10.906,0,0,1,99.22,19.316L99.2,23.152a7.26,7.26,0,0,0-7.835,3.93l-3.433,6.5,2.548,2.432c2.715,2.592,5,2.576,8.714,2.472l.017,3.875c-4.164.219-7.516-.19-10.777-2.986l-2.4-2.242-4.763,8.937,9.672,9.042a7.554,7.554,0,0,0,4.984,2.031L99.2,57.2Z" transform="translate(-52.707 -15.598)" fill="#19538d"/>
          <path id="Trazado_1276609" data-name="Trazado 1276609" d="M10.6,5.3A5.3,5.3,0,1,1,5.3,0a5.3,5.3,0,0,1,5.3,5.3" fill="#19538d"/>
          <path id="Trazado_1276610" data-name="Trazado 1276610" d="M10.6,104.4a5.3,5.3,0,1,1-5.3-5.3,5.3,5.3,0,0,1,5.3,5.3" transform="translate(0 -80.429)" fill="#19538d"/>
          <path id="Trazado_1276611" data-name="Trazado 1276611" d="M10.6,207.933a5.3,5.3,0,1,1-5.3-5.3,5.3,5.3,0,0,1,5.3,5.3" transform="translate(0 -164.458)" fill="#19538d"/>
          <path id="Trazado_1276612" data-name="Trazado 1276612" d="M266.672,5.3a5.3,5.3,0,1,1-5.3-5.3,5.3,5.3,0,0,1,5.3,5.3" transform="translate(-207.829)" fill="#19538d"/>
          <path id="Trazado_1276613" data-name="Trazado 1276613" d="M266.672,104.4a5.3,5.3,0,1,1-5.3-5.3,5.3,5.3,0,0,1,5.3,5.3" transform="translate(-207.829 -80.429)" fill="#19538d"/>
          <path id="Trazado_1276614" data-name="Trazado 1276614" d="M266.672,207.933a5.3,5.3,0,1,1-5.3-5.3,5.3,5.3,0,0,1,5.3,5.3" transform="translate(-207.829 -164.458)" fill="#19538d"/>
        </g>
      </g>
    </g>
  </g>
</svg>
