<svg xmlns="http://www.w3.org/2000/svg" xmlns:xlink="http://www.w3.org/1999/xlink" width="128" height="128" viewBox="0 0 128 128">
  <defs>
    <clipPath id="clip-path">
      <rect id="Rectángulo_455533" data-name="Rectángulo 455533" width="128" height="122.776" fill="#19538d"/>
    </clipPath>
    <clipPath id="clip-path-2">
      <rect id="Rectángulo_461676" data-name="Rectángulo 461676" width="60.46" height="65.367" fill="#19538d"/>
    </clipPath>
  </defs>
  <g id="Grupo_1212393" data-name="Grupo 1212393" transform="translate(-383.746 -8399)">
    <circle id="Elipse_13674" data-name="Elipse 13674" cx="54.5" cy="54.5" r="54.5" transform="translate(392.746 8409)" fill="#fff"/>
    <g id="Grupo_1179062" data-name="Grupo 1179062" transform="translate(272)">
      <rect id="Rectángulo_455531" data-name="Rectángulo 455531" width="128" height="128" transform="translate(111.746 8399)" fill="none"/>
      <g id="Grupo_1179061" data-name="Grupo 1179061" transform="translate(111.746 8402)">
        <path id="Trazado_998445" data-name="Trazado 998445" d="M120.883,97.46H96.727L100,91.354h24.156Z" fill="#62249e"/>
        <path id="Trazado_998446" data-name="Trazado 998446" d="M1.985,86.893,0,90.934H26.632l1.986-4.041Z" fill="#19538d"/>
        <path id="Trazado_998447" data-name="Trazado 998447" d="M124.314,32.5H98.809l2-4.529h25.505Z" fill="#19538d"/>
        <path id="Trazado_998448" data-name="Trazado 998448" d="M36.988,12.75H3.483l2-4.529h33.5Z" fill="#19538d"/>
        <g id="Grupo_1179060" data-name="Grupo 1179060">
          <g id="Grupo_1179059" data-name="Grupo 1179059" clip-path="url(#clip-path)">
            <path id="Trazado_998449" data-name="Trazado 998449" d="M64,115.717a54.31,54.31,0,0,1-52.948-66.48H3.82A61.384,61.384,0,0,0,111.812,99.874h-9.469A54.154,54.154,0,0,1,64,115.717" fill="#19538d"/>
            <path id="Trazado_998450" data-name="Trazado 998450" d="M110.835,88.914h8.033c.645-1.284,1.231-2.6,1.787-3.934h-7.723c-.649,1.342-1.344,2.656-2.1,3.934" fill="#19538d"/>
            <path id="Trazado_998451" data-name="Trazado 998451" d="M125.388,61.388A61.4,61.4,0,0,0,5.373,43.131h7.452A54.33,54.33,0,1,1,114.406,81.649h7.526a61.118,61.118,0,0,0,3.456-20.261" fill="#19538d"/>
            <path id="Trazado_998452" data-name="Trazado 998452" d="M108.562,81.649V84.98h4.37q.792-1.637,1.475-3.331Z" fill="#19538d"/>
            <path id="Trazado_998453" data-name="Trazado 998453" d="M128,81.649h-6.068q-.592,1.689-1.277,3.331H128Z" fill="#19538d"/>
          </g>
        </g>
        <path id="Trazado_998444" data-name="Trazado 998444" d="M3,37.025,0,43.131H18.134l3-6.106Z" fill="#62249e"/>
      </g>
    </g>
    <g id="Grupo_1177669" data-name="Grupo 1177669" transform="translate(413.49 8428.729)">
      <g id="Grupo_1099618" data-name="Grupo 1099618" transform="translate(0.256 0.271)">
        <rect id="Rectángulo_401104" data-name="Rectángulo 401104" width="68.18" height="69.001" transform="translate(0)" fill="none"/>
      </g>
      <g id="Grupo_1212422" data-name="Grupo 1212422" transform="translate(4.256 2.272)">
        <g id="Grupo_1212075" data-name="Grupo 1212075" clip-path="url(#clip-path-2)">
          <path id="Trazado_1276584" data-name="Trazado 1276584" d="M79.731,80.329a1,1,0,0,1,.925-1.317l6.186.58a1.287,1.287,0,0,1,.842.972,1.106,1.106,0,0,1-1.031.957l-2.769-.145c5.7,5.072,11.517,10.629,18.418,13.646a12.584,12.584,0,0,0,14.48-2.868,13.686,13.686,0,0,0,.541-18.535,11.859,11.859,0,0,0-9.819-4.224,5.329,5.329,0,0,1-5.033,4.4,5.1,5.1,0,0,1-1.116-10.084c2.648-.614,5.019,1.108,6.013,3.524,4.341.131,8.564,1.61,11.509,5.164a15.648,15.648,0,0,1,2.862,15.459c-2.5,7.057-10.032,11.785-17.344,9.9-5.434-1.4-10.952-5.385-15.235-9.1L82.539,82.93l.575,2.642a1.268,1.268,0,0,1-.587,1.2c-.327.125-1.153-.173-1.242-.512Z" transform="translate(-62.201 -49.629)" fill="#19538d"/>
          <path id="Trazado_1276585" data-name="Trazado 1276585" d="M35.828,93.386l2.944.125c-5.713-5.079-12.2-11.281-19.216-13.939A12.492,12.492,0,0,0,5.773,82.847a13.684,13.684,0,0,0-.438,18.427,12.005,12.005,0,0,0,9.818,4.256,5.312,5.312,0,0,1,5.032-4.428,5.1,5.1,0,0,1,1.1,10.086c-2.644.621-4.989-1.121-5.993-3.515-4.282-.148-8.466-1.584-11.408-5.061A15.68,15.68,0,0,1,11.892,77.08c5.053-1.174,9.887.859,14.213,3.614a74.387,74.387,0,0,1,8.93,6.845l5.085,4.434L39.6,89.529a1,1,0,0,1,.733-1.23,1.052,1.052,0,0,1,1.2.854L42.934,94.6a1,1,0,0,1-1.1,1.307l-6-.6a1.185,1.185,0,0,1-.854-.968c-.008-.387.5-.969.853-.953" transform="translate(0 -59.897)" fill="#19538d"/>
          <path id="Trazado_1276586" data-name="Trazado 1276586" d="M226.951,33.449c1.418,1.059,2.889,2.295,1.789,3.06a1.367,1.367,0,0,1-1.26-.016l-1.431-1.252a1.354,1.354,0,0,1-.393-1.189c.124-.378.973-.843,1.3-.6" transform="translate(-176.102 -26.055)" fill="#19538d"/>
          <path id="Trazado_1276587" data-name="Trazado 1276587" d="M37.232,250.937a1.031,1.031,0,1,1-1.4,1.452l-1.39-1.278a1.266,1.266,0,0,1,.149-1.379,1.4,1.4,0,0,1,1.353.062Z" transform="translate(-26.766 -194.803)" fill="#19538d"/>
          <path id="Trazado_1276588" data-name="Trazado 1276588" d="M128.325,1.993l-2.351.075c-.318.01-.834-.512-.9-.8-.072-.333.306-1.117.652-1.137L128.035,0a1.363,1.363,0,0,1,1.035.844c.063.336-.4,1.137-.745,1.148" transform="translate(-97.617 0)" fill="#19538d"/>
          <path id="Trazado_1276589" data-name="Trazado 1276589" d="M99.945,4.893A1.451,1.451,0,0,1,98.7,4.445c-.2-.266-.108-1.134.215-1.27a8.358,8.358,0,0,1,2.886-.606c.3-.011.733.672.71.97a1.315,1.315,0,0,1-.838.977Z" transform="translate(-76.958 -2.005)" fill="#19538d"/>
          <path id="Trazado_1276590" data-name="Trazado 1276590" d="M247.756,54.728a1.284,1.284,0,0,1-.11,1.356,1.266,1.266,0,0,1-1.385-.031l-1.346-1.688a1.244,1.244,0,0,1,.16-1.337,1.209,1.209,0,0,1,1.359.04Z" transform="translate(-191.056 -41.242)" fill="#19538d"/>
          <path id="Trazado_1276591" data-name="Trazado 1276591" d="M19.406,231.221a1.233,1.233,0,0,1-.129,1.386,1.212,1.212,0,0,1-1.358-.039L16.6,230.9a1.246,1.246,0,0,1,.1-1.349,1.3,1.3,0,0,1,1.394.038Z" transform="translate(-12.836 -179.025)" fill="#19538d"/>
          <path id="Trazado_1276592" data-name="Trazado 1276592" d="M159.775,286.948c-.348.039-.823-.7-.79-1a1.359,1.359,0,0,1,.844-.973l1.781-.378a1.449,1.449,0,0,1,1.192.457c.226.295.051,1.23-.324,1.343a14.085,14.085,0,0,1-2.7.547" transform="translate(-124.087 -222.122)" fill="#19538d"/>
          <path id="Trazado_1276593" data-name="Trazado 1276593" d="M135.568,290.4l-2.369.154a1.275,1.275,0,0,1-1.048-.859c-.062-.411.436-1.14.862-1.147l2.216-.034a1.3,1.3,0,0,1,.91.763c.08.286-.26,1.1-.572,1.122" transform="translate(-103.141 -225.187)" fill="#19538d"/>
          <path id="Trazado_1276594" data-name="Trazado 1276594" d="M181.122,9.938,179.083,9.2a1.294,1.294,0,0,1-.637-1.085c.064-.421.791-.942,1.165-.81l2.076.735a1.346,1.346,0,0,1,.616,1.1,1.1,1.1,0,0,1-1.181.792" transform="translate(-139.275 -5.689)" fill="#19538d"/>
          <path id="Trazado_1276595" data-name="Trazado 1276595" d="M74.7,12.292a1.274,1.274,0,0,1-1.437-.252,1.1,1.1,0,0,1,.506-1.549l1.892-.775a1.19,1.19,0,0,1,1.164.565,1.2,1.2,0,0,1-.54,1.311Z" transform="translate(-57.068 -7.56)" fill="#19538d"/>
          <path id="Trazado_1276596" data-name="Trazado 1276596" d="M205.831,21.223l-2-1.172a1.33,1.33,0,0,1-.289-1.31,1.284,1.284,0,0,1,1.3-.394L206.7,19.46a1.352,1.352,0,0,1,.386,1.1c-.061.359-.918.854-1.253.658" transform="translate(-158.813 -14.273)" fill="#19538d"/>
          <path id="Trazado_1276597" data-name="Trazado 1276597" d="M51.107,24.933a1.285,1.285,0,0,1-1.34-.434,1.3,1.3,0,0,1,.308-1.248l1.65-1.119a1.224,1.224,0,0,1,1.325.137,1.036,1.036,0,0,1-.172,1.5Z" transform="translate(-38.803 -17.168)" fill="#19538d"/>
          <path id="Trazado_1276598" data-name="Trazado 1276598" d="M30.886,41.494a1.286,1.286,0,0,1-1.376-.138A1.361,1.361,0,0,1,29.556,40l1.5-1.462a1.365,1.365,0,0,1,1.292,0,1.27,1.27,0,0,1,.143,1.4Z" transform="translate(-22.909 -29.952)" fill="#19538d"/>
          <path id="Trazado_1276599" data-name="Trazado 1276599" d="M14.354,61.412a1.261,1.261,0,0,1-1.494.386,1.166,1.166,0,0,1-.263-1.407l1.3-1.8c.194-.269,1.078-.219,1.322-.011a1.3,1.3,0,0,1,.2,1.23Z" transform="translate(-9.728 -45.586)" fill="#19538d"/>
          <path id="Trazado_1276600" data-name="Trazado 1276600" d="M250.893,226.74c-.186.27-1.119.229-1.355.014a1.362,1.362,0,0,1-.124-1.36l1.044-1.53a1.533,1.533,0,0,1,1.281-.414,1.129,1.129,0,0,1,.5,1.341Z" transform="translate(-194.57 -174.388)" fill="#19538d"/>
          <path id="Trazado_1276601" data-name="Trazado 1276601" d="M232.734,247.667a1.39,1.39,0,0,1-1.32.01,1.288,1.288,0,0,1-.141-1.409l1.611-1.554a1.36,1.36,0,0,1,1.254.034,1.236,1.236,0,0,1,.15,1.347Z" transform="translate(-180.391 -190.893)" fill="#19538d"/>
          <path id="Trazado_1276602" data-name="Trazado 1276602" d="M211.051,265.016a1.234,1.234,0,0,1-1.391-.113,1.024,1.024,0,0,1,.19-1.516l1.766-1.144a1.4,1.4,0,0,1,1.244.286,1.163,1.163,0,0,1-.129,1.288Z" transform="translate(-163.444 -204.637)" fill="#19538d"/>
          <path id="Trazado_1276603" data-name="Trazado 1276603" d="M186.475,278.394a1,1,0,0,1-.652-1.889l1.8-.764a1,1,0,1,1,.734,1.864Z" transform="translate(-144.57 -215.178)" fill="#19538d"/>
          <path id="Trazado_1276604" data-name="Trazado 1276604" d="M82.256,281.079l-2.19-.739a1.244,1.244,0,0,1-.573-1.285,1.141,1.141,0,0,1,1.325-.583l1.837.687a1.364,1.364,0,0,1,.663,1.078c-.022.326-.743.95-1.062.842" transform="translate(-62.019 -217.312)" fill="#19538d"/>
          <path id="Trazado_1276605" data-name="Trazado 1276605" d="M155.119,3.572l-1.8-.283a1.157,1.157,0,0,1-1.04-1.017,1.01,1.01,0,0,1,1.279-.989l1.937.362a1.27,1.27,0,0,1,.718,1.067,1.172,1.172,0,0,1-1.094.861" transform="translate(-118.855 -0.983)" fill="#19538d"/>
          <path id="Trazado_1276606" data-name="Trazado 1276606" d="M58.657,267.174a1.345,1.345,0,0,1,.511,1.225,1.049,1.049,0,0,1-1.368.587l-1.88-1.123a1.263,1.263,0,0,1-.283-1.253,1.188,1.188,0,0,1,1.307-.436Z" transform="translate(-43.377 -207.699)" fill="#19538d"/>
          <path id="Trazado_1276607" data-name="Trazado 1276607" d="M107.872,288.272l-1.932-.357a1.274,1.274,0,0,1-.726-1.078c.048-.381.671-.918,1.02-.862l1.863.3a1.134,1.134,0,0,1,1.055,1.012,1.013,1.013,0,0,1-1.28.989" transform="translate(-82.117 -223.202)" fill="#19538d"/>
        </g>
      </g>
    </g>
  </g>
</svg>
