<svg xmlns="http://www.w3.org/2000/svg" xmlns:xlink="http://www.w3.org/1999/xlink" width="128" height="128" viewBox="0 0 128 128">
  <defs>
    <clipPath id="clip-path">
      <rect id="Rectángulo_455533" data-name="Rectángulo 455533" width="128" height="122.776" fill="#19538d"/>
    </clipPath>
    <clipPath id="clip-path-2">
      <rect id="Rectángulo_461921" data-name="Rectángulo 461921" width="60.28" height="53.089" fill="#19538d"/>
    </clipPath>
  </defs>
  <g id="Grupo_1212390" data-name="Grupo 1212390" transform="translate(-383.746 -8399)">
    <circle id="Elipse_13674" data-name="Elipse 13674" cx="54.5" cy="54.5" r="54.5" transform="translate(392.746 8409)" fill="#fff"/>
    <g id="Grupo_1179062" data-name="Grupo 1179062" transform="translate(272)">
      <rect id="Rectángulo_455531" data-name="Rectángulo 455531" width="128" height="128" transform="translate(111.746 8399)" fill="none"/>
      <g id="Grupo_1179061" data-name="Grupo 1179061" transform="translate(111.746 8402)">
        <path id="Trazado_998445" data-name="Trazado 998445" d="M120.883,97.46H96.727L100,91.354h24.156Z" fill="#62249e"/>
        <path id="Trazado_998446" data-name="Trazado 998446" d="M1.985,86.893,0,90.934H26.632l1.986-4.041Z" fill="#19538d"/>
        <path id="Trazado_998447" data-name="Trazado 998447" d="M124.314,32.5H98.809l2-4.529h25.505Z" fill="#19538d"/>
        <path id="Trazado_998448" data-name="Trazado 998448" d="M36.988,12.75H3.483l2-4.529h33.5Z" fill="#19538d"/>
        <g id="Grupo_1179060" data-name="Grupo 1179060">
          <g id="Grupo_1179059" data-name="Grupo 1179059" clip-path="url(#clip-path)">
            <path id="Trazado_998449" data-name="Trazado 998449" d="M64,115.717a54.31,54.31,0,0,1-52.948-66.48H3.82A61.384,61.384,0,0,0,111.812,99.874h-9.469A54.154,54.154,0,0,1,64,115.717" fill="#19538d"/>
            <path id="Trazado_998450" data-name="Trazado 998450" d="M110.835,88.914h8.033c.645-1.284,1.231-2.6,1.787-3.934h-7.723c-.649,1.342-1.344,2.656-2.1,3.934" fill="#19538d"/>
            <path id="Trazado_998451" data-name="Trazado 998451" d="M125.388,61.388A61.4,61.4,0,0,0,5.373,43.131h7.452A54.33,54.33,0,1,1,114.406,81.649h7.526a61.118,61.118,0,0,0,3.456-20.261" fill="#19538d"/>
            <path id="Trazado_998452" data-name="Trazado 998452" d="M108.562,81.649V84.98h4.37q.792-1.637,1.475-3.331Z" fill="#19538d"/>
            <path id="Trazado_998453" data-name="Trazado 998453" d="M128,81.649h-6.068q-.592,1.689-1.277,3.331H128Z" fill="#19538d"/>
          </g>
        </g>
        <path id="Trazado_998444" data-name="Trazado 998444" d="M3,37.025,0,43.131H18.134l3-6.106Z" fill="#62249e"/>
      </g>
    </g>
    <g id="Grupo_1177669" data-name="Grupo 1177669" transform="translate(413.49 8428.729)">
      <g id="Grupo_1099618" data-name="Grupo 1099618" transform="translate(0.256 0.271)">
        <rect id="Rectángulo_401104" data-name="Rectángulo 401104" width="68.18" height="69.001" transform="translate(0)" fill="none"/>
      </g>
      <g id="Grupo_1212424" data-name="Grupo 1212424" transform="translate(4.338 8.105)">
        <g id="Grupo_1212423" data-name="Grupo 1212423" clip-path="url(#clip-path-2)">
          <path id="Trazado_1277576" data-name="Trazado 1277576" d="M53.258,0V20.036a20.565,20.565,0,0,0,7.021.685V38.445c0,3.265-2.845,7.276-5.219,9.338-2,1.736-8.589,5.576-11.12,5.291-3.217-.361-9.39-4.146-11.671-6.491a1.531,1.531,0,0,1-.246-.517H0V0ZM7.021,3.425H3.6v3.6H7.021Zm3.6,3.6h3.6v-3.6h-3.6Zm7.192,0H49.662v-3.6H17.81Zm31.852,3.6H3.6V42.47H29.455l-1.026-3.683,0-18.065h4.367a16.954,16.954,0,0,0,2.275-.465c3.319-.852,6.283-2.979,9.226-4.638l5.368,2.877Zm7.022,13.528c-4.541.03-8.545-2.352-12.416-4.392-3.75,2.27-7.735,4.44-12.256,4.468l-.169.516c.59,8.953-2.616,16.321,6.188,21.914,1.169.742,4.862,2.691,6.1,2.8.853.076,4.123-1.448,5.016-1.928,3.453-1.855,6.763-4.743,7.487-8.781Z" fill="#19538d"/>
          <path id="Trazado_1277577" data-name="Trazado 1277577" d="M215.438,180.186c-1.839-1.77-3.572-3.69-5.367-5.513a16.194,16.194,0,0,1,2.215-2.384c.132-.068.211-.114.34,0l4.174,4.022,7.422-7.333c.213-.079.327.036.487.143.175.118,1.991,1.936,2.057,2.066.325.637-9.079,9.032-9.943,10.27a14.912,14.912,0,0,0-1.384-1.272" transform="translate(-174.096 -140.019)" fill="#19538d"/>
        </g>
      </g>
    </g>
  </g>
</svg>
