<svg xmlns="http://www.w3.org/2000/svg" xmlns:xlink="http://www.w3.org/1999/xlink" width="85" height="85" viewBox="0 0 85 85">
  <defs>
    <clipPath id="clip-path">
      <rect id="Rectángulo_461163" data-name="Rectángulo 461163" width="60.45" height="60.45" fill="#19538d"/>
    </clipPath>
  </defs>
  <g id="Grupo_1212378" data-name="Grupo 1212378" transform="translate(-705.629 -410)">
    <path id="Sustracción_110" data-name="Sustracción 110" d="M16060.959,19914.512h0l-50,0-2-4.793h-27l-2,4.793h-4v-85h51.371l2,4.793h27l2-4.793h2.627v85Z" transform="translate(-15270.33 -19419.512)" fill="#ffd470"/>
    <path id="Trazado_998455" data-name="Trazado 998455" d="M-3,0H20l3,7H0Z" transform="translate(766.629 410)" fill="#19538d"/>
    <g id="Grupo_1212346" data-name="Grupo 1212346" transform="translate(717.629 422)">
      <g id="Grupo_1211742" data-name="Grupo 1211742" transform="translate(0 0)" clip-path="url(#clip-path)">
        <path id="Trazado_1275226" data-name="Trazado 1275226" d="M38.109,46.175A1.282,1.282,0,0,0,36.3,47.988L38.109,49.8a1.276,1.276,0,0,0,1.814,0l4.433-4.433a1.282,1.282,0,1,0-1.814-1.814l-3.527,3.527Z" transform="translate(-0.025 -0.031)" fill="#19538d"/>
        <rect id="Rectángulo_461153" data-name="Rectángulo 461153" width="2.518" height="2.518" transform="translate(6.348 5.037)" fill="#19538d"/>
        <rect id="Rectángulo_461154" data-name="Rectángulo 461154" width="2.518" height="2.518" transform="translate(10.076 5.037)" fill="#19538d"/>
        <rect id="Rectángulo_461155" data-name="Rectángulo 461155" width="2.518" height="2.518" transform="translate(13.904 5.037)" fill="#19538d"/>
        <rect id="Rectángulo_461156" data-name="Rectángulo 461156" width="2.518" height="2.519" transform="translate(41.611 21.459)" fill="#19538d"/>
        <rect id="Rectángulo_461157" data-name="Rectángulo 461157" width="2.519" height="2.518" transform="translate(18.841 44.129)" fill="#19538d"/>
        <rect id="Rectángulo_461158" data-name="Rectángulo 461158" width="12.594" height="2.518" transform="translate(15.113 17.631)" fill="#19538d"/>
        <rect id="Rectángulo_461159" data-name="Rectángulo 461159" width="25.188" height="2.519" transform="translate(15.113 21.459)" fill="#19538d"/>
        <path id="Trazado_1275227" data-name="Trazado 1275227" d="M52.931,7.559a1.31,1.31,0,1,0-1.31-1.31,1.334,1.334,0,0,0,1.31,1.31" transform="translate(-0.037 -0.004)" fill="#19538d"/>
        <path id="Trazado_1275228" data-name="Trazado 1275228" d="M24,7.559H49.183a1.31,1.31,0,0,0,0-2.619H24a1.31,1.31,0,1,0,0,2.619" transform="translate(-0.016 -0.004)" fill="#19538d"/>
        <path id="Trazado_1275229" data-name="Trazado 1275229" d="M54.405,0H6.045A6.063,6.063,0,0,0,0,6.046v40.8a6.063,6.063,0,0,0,6.045,6.046H28.009a13.775,13.775,0,0,0,24.583,0h1.814a6.063,6.063,0,0,0,6.045-6.046V6.046A6.063,6.063,0,0,0,54.405,0M6.045,2.518H54.506a3.57,3.57,0,0,1,3.526,3.528v4.029H2.519V6.046A3.57,3.57,0,0,1,6.045,2.518M40.3,57.932A11.284,11.284,0,1,1,51.584,46.648,11.352,11.352,0,0,1,40.3,57.932m14.105-7.557H53.6a15.917,15.917,0,0,0,.5-3.828,13.853,13.853,0,0,0-27.706,0,15.916,15.916,0,0,0,.5,3.828H6.045a3.569,3.569,0,0,1-3.526-3.527V12.594H57.932V46.849a3.57,3.57,0,0,1-3.527,3.527" transform="translate(0 0)" fill="#19538d"/>
        <path id="Trazado_1275230" data-name="Trazado 1275230" d="M47.879,45.365a1.334,1.334,0,0,0-1.31,1.31,6.365,6.365,0,0,1-6.246,6.347,6.3,6.3,0,0,1,0-12.593,1.31,1.31,0,0,0,0-2.619,8.815,8.815,0,1,0,8.866,8.765,1.319,1.319,0,0,0-1.31-1.209" transform="translate(-0.022 -0.027)" fill="#19538d"/>
        <path id="Trazado_1275231" data-name="Trazado 1275231" d="M6.351,25.2H12.6a1.334,1.334,0,0,0,1.31-1.31V17.642a1.334,1.334,0,0,0-1.31-1.309H6.351a1.334,1.334,0,0,0-1.31,1.309v6.247a1.334,1.334,0,0,0,1.31,1.31m1.208-6.247h3.727V22.68H7.559Z" transform="translate(-0.004 -0.012)" fill="#19538d"/>
        <rect id="Rectángulo_461160" data-name="Rectángulo 461160" width="12.594" height="2.518" transform="translate(15.113 27.706)" fill="#19538d"/>
        <rect id="Rectángulo_461161" data-name="Rectángulo 461161" width="16.422" height="2.518" transform="translate(15.113 31.535)" fill="#19538d"/>
        <rect id="Rectángulo_461162" data-name="Rectángulo 461162" width="12.594" height="2.518" transform="translate(5.037 44.129)" fill="#19538d"/>
        <path id="Trazado_1275232" data-name="Trazado 1275232" d="M6.351,35.282H12.6a1.335,1.335,0,0,0,1.31-1.31V27.725a1.249,1.249,0,0,0-1.31-1.209H6.351a1.319,1.319,0,0,0-1.31,1.209v6.348a1.32,1.32,0,0,0,1.31,1.209m1.208-6.247h3.727v3.727H7.559Z" transform="translate(-0.004 -0.019)" fill="#19538d"/>
      </g>
    </g>
  </g>
</svg>
