<svg xmlns="http://www.w3.org/2000/svg" xmlns:xlink="http://www.w3.org/1999/xlink" width="128" height="128" viewBox="0 0 128 128">
  <defs>
    <clipPath id="clip-path">
      <rect id="Rectángulo_455533" data-name="Rectángulo 455533" width="128" height="122.776" fill="#19538d"/>
    </clipPath>
    <clipPath id="clip-path-2">
      <rect id="Rectángulo_461958" data-name="Rectángulo 461958" width="59.387" height="59.4" fill="#19538d"/>
    </clipPath>
  </defs>
  <g id="Grupo_1212357" data-name="Grupo 1212357" transform="translate(-383.746 -8399)">
    <circle id="Elipse_13674" data-name="Elipse 13674" cx="54.5" cy="54.5" r="54.5" transform="translate(392.746 8409)" fill="#fff"/>
    <g id="Grupo_1179062" data-name="Grupo 1179062" transform="translate(272)">
      <rect id="Rectángulo_455531" data-name="Rectángulo 455531" width="128" height="128" transform="translate(111.746 8399)" fill="none"/>
      <g id="Grupo_1179061" data-name="Grupo 1179061" transform="translate(111.746 8402)">
        <path id="Trazado_998445" data-name="Trazado 998445" d="M120.883,97.46H96.727L100,91.354h24.156Z" fill="#62249e"/>
        <path id="Trazado_998446" data-name="Trazado 998446" d="M1.985,86.893,0,90.934H26.632l1.986-4.041Z" fill="#19538d"/>
        <path id="Trazado_998447" data-name="Trazado 998447" d="M124.314,32.5H98.809l2-4.529h25.505Z" fill="#19538d"/>
        <path id="Trazado_998448" data-name="Trazado 998448" d="M36.988,12.75H3.483l2-4.529h33.5Z" fill="#19538d"/>
        <g id="Grupo_1179060" data-name="Grupo 1179060">
          <g id="Grupo_1179059" data-name="Grupo 1179059" clip-path="url(#clip-path)">
            <path id="Trazado_998449" data-name="Trazado 998449" d="M64,115.717a54.31,54.31,0,0,1-52.948-66.48H3.82A61.384,61.384,0,0,0,111.812,99.874h-9.469A54.154,54.154,0,0,1,64,115.717" fill="#19538d"/>
            <path id="Trazado_998450" data-name="Trazado 998450" d="M110.835,88.914h8.033c.645-1.284,1.231-2.6,1.787-3.934h-7.723c-.649,1.342-1.344,2.656-2.1,3.934" fill="#19538d"/>
            <path id="Trazado_998451" data-name="Trazado 998451" d="M125.388,61.388A61.4,61.4,0,0,0,5.373,43.131h7.452A54.33,54.33,0,1,1,114.406,81.649h7.526a61.118,61.118,0,0,0,3.456-20.261" fill="#19538d"/>
            <path id="Trazado_998452" data-name="Trazado 998452" d="M108.562,81.649V84.98h4.37q.792-1.637,1.475-3.331Z" fill="#19538d"/>
            <path id="Trazado_998453" data-name="Trazado 998453" d="M128,81.649h-6.068q-.592,1.689-1.277,3.331H128Z" fill="#19538d"/>
          </g>
        </g>
        <path id="Trazado_998444" data-name="Trazado 998444" d="M3,37.025,0,43.131H18.134l3-6.106Z" fill="#62249e"/>
      </g>
    </g>
    <g id="Grupo_1177669" data-name="Grupo 1177669" transform="translate(413.49 8428.729)">
      <g id="Grupo_1099618" data-name="Grupo 1099618" transform="translate(0.256 0.271)">
        <rect id="Rectángulo_401104" data-name="Rectángulo 401104" width="68.18" height="69.001" transform="translate(0)" fill="none"/>
      </g>
      <g id="Grupo_1212455" data-name="Grupo 1212455" transform="translate(4.256 5.271)">
        <g id="Grupo_1212454" data-name="Grupo 1212454" clip-path="url(#clip-path-2)">
          <path id="Trazado_1277644" data-name="Trazado 1277644" d="M38.651,1.435c.075.29-.12.337-.251.505a40.165,40.165,0,0,1-3.406,3.344c-.934-.166-1.887-.4-2.835-.477A25.074,25.074,0,0,0,5.151,34.512a25.368,25.368,0,0,0,5.466,11.382c.1.111-.011.324.384.217A18.45,18.45,0,0,1,21.792,32.958l-2.052-2.92A11.53,11.53,0,0,1,33.125,13.282c8.379,2.549,10.91,13.593,4.35,19.425,5.387,2.613,9.753,7.426,10.957,13.4,6.687-7.061,7.969-18.087,4.039-26.884l3.293-3.459c8.388,14.9,1.567,34.208-13.915,41.044A29.772,29.772,0,0,1,.036,28.148C.968,9,20.326-4.565,38.651,1.435m-2.1,22.851a6.864,6.864,0,1,0-6.864,6.864,6.864,6.864,0,0,0,6.864-6.864M28.165,35.877A14.75,14.75,0,0,0,15.263,48.1c-.072.479-.291,1.676-.059,1.987.428.575,3.682,2.223,4.5,2.578a25.09,25.09,0,0,0,24.525-2.584,14.182,14.182,0,0,0-5.074-10.8,14.738,14.738,0,0,0-10.994-3.4" transform="translate(0.001 0)" fill="#19538d"/>
          <path id="Trazado_1277645" data-name="Trazado 1277645" d="M224.021,18.8a14.672,14.672,0,0,0,1.543-1.4l5.732,5.726,9.61-9.6L244.19,16.8,231.3,29.7l-9.017-9.017a22.856,22.856,0,0,0,1.742-1.88" transform="translate(-184.804 -11.238)" fill="#19538d"/>
        </g>
      </g>
    </g>
  </g>
</svg>
