<svg xmlns="http://www.w3.org/2000/svg" xmlns:xlink="http://www.w3.org/1999/xlink" width="128" height="128" viewBox="0 0 128 128">
  <defs>
    <clipPath id="clip-path">
      <rect id="Rectángulo_455533" data-name="Rectángulo 455533" width="128" height="122.776" fill="#19538d"/>
    </clipPath>
    <clipPath id="clip-path-2">
      <rect id="Rectángulo_461482" data-name="Rectángulo 461482" width="63.794" height="50.178" fill="#19538d"/>
    </clipPath>
  </defs>
  <g id="Grupo_1212356" data-name="Grupo 1212356" transform="translate(-383.746 -8399)">
    <circle id="Elipse_13674" data-name="Elipse 13674" cx="54.5" cy="54.5" r="54.5" transform="translate(392.746 8409)" fill="#fff"/>
    <g id="Grupo_1179062" data-name="Grupo 1179062" transform="translate(272)">
      <rect id="Rectángulo_455531" data-name="Rectángulo 455531" width="128" height="128" transform="translate(111.746 8399)" fill="none"/>
      <g id="Grupo_1179061" data-name="Grupo 1179061" transform="translate(111.746 8402)">
        <path id="Trazado_998445" data-name="Trazado 998445" d="M120.883,97.46H96.727L100,91.354h24.156Z" fill="#62249e"/>
        <path id="Trazado_998446" data-name="Trazado 998446" d="M1.985,86.893,0,90.934H26.632l1.986-4.041Z" fill="#19538d"/>
        <path id="Trazado_998447" data-name="Trazado 998447" d="M124.314,32.5H98.809l2-4.529h25.505Z" fill="#19538d"/>
        <path id="Trazado_998448" data-name="Trazado 998448" d="M36.988,12.75H3.483l2-4.529h33.5Z" fill="#19538d"/>
        <g id="Grupo_1179060" data-name="Grupo 1179060">
          <g id="Grupo_1179059" data-name="Grupo 1179059" clip-path="url(#clip-path)">
            <path id="Trazado_998449" data-name="Trazado 998449" d="M64,115.717a54.31,54.31,0,0,1-52.948-66.48H3.82A61.384,61.384,0,0,0,111.812,99.874h-9.469A54.154,54.154,0,0,1,64,115.717" fill="#19538d"/>
            <path id="Trazado_998450" data-name="Trazado 998450" d="M110.835,88.914h8.033c.645-1.284,1.231-2.6,1.787-3.934h-7.723c-.649,1.342-1.344,2.656-2.1,3.934" fill="#19538d"/>
            <path id="Trazado_998451" data-name="Trazado 998451" d="M125.388,61.388A61.4,61.4,0,0,0,5.373,43.131h7.452A54.33,54.33,0,1,1,114.406,81.649h7.526a61.118,61.118,0,0,0,3.456-20.261" fill="#19538d"/>
            <path id="Trazado_998452" data-name="Trazado 998452" d="M108.562,81.649V84.98h4.37q.792-1.637,1.475-3.331Z" fill="#19538d"/>
            <path id="Trazado_998453" data-name="Trazado 998453" d="M128,81.649h-6.068q-.592,1.689-1.277,3.331H128Z" fill="#19538d"/>
          </g>
        </g>
        <path id="Trazado_998444" data-name="Trazado 998444" d="M3,37.025,0,43.131H18.134l3-6.106Z" fill="#62249e"/>
      </g>
    </g>
    <g id="Grupo_1177669" data-name="Grupo 1177669" transform="translate(413.49 8428.729)">
      <g id="Grupo_1099618" data-name="Grupo 1099618" transform="translate(0.256 0.271)">
        <rect id="Rectángulo_401104" data-name="Rectángulo 401104" width="68.18" height="69.001" transform="translate(0)" fill="none"/>
      </g>
      <g id="Grupo_1211987" data-name="Grupo 1211987" transform="translate(2.255 9.271)">
        <rect id="Rectángulo_461479" data-name="Rectángulo 461479" width="25.868" height="12.953" transform="translate(18.968 0)" fill="#19538d"/>
        <rect id="Rectángulo_461480" data-name="Rectángulo 461480" width="25.868" height="12.915" transform="translate(18.968 18.317)" fill="#19538d"/>
        <rect id="Rectángulo_461481" data-name="Rectángulo 461481" width="25.865" height="12.899" transform="translate(18.968 36.568)" fill="#19538d"/>
        <g id="Grupo_1211986" data-name="Grupo 1211986">
          <g id="Grupo_1211985" data-name="Grupo 1211985" clip-path="url(#clip-path-2)">
            <path id="Trazado_1276020" data-name="Trazado 1276020" d="M8.045,141.754l2.639-2.655,6.658,6.657-6.631,6.63-2.67-2.608,2.078-2.1-3.291-.1A7.433,7.433,0,0,1,0,140.206l0-7.718a7.3,7.3,0,0,1,7.048-7.343l9.149-.06.011,3.753-8.914.026a3.744,3.744,0,0,0-3.578,3.83V140a3.734,3.734,0,0,0,3.229,3.806,25.163,25.163,0,0,0,3.148.013Z" transform="translate(0 -102.208)" fill="#19538d"/>
            <path id="Trazado_1276021" data-name="Trazado 1276021" d="M254.1,43.11l6.616-6.653,2.668,2.63-2.06,2.108,3.011-.005a3.651,3.651,0,0,0,3.376-3.727l-.016-7.57a3.768,3.768,0,0,0-3.918-3.685l-8.555.014,0-3.742,8.55-.022a7.459,7.459,0,0,1,7.652,7.354l-.02,8.071a7.305,7.305,0,0,1-7.058,7.082l-3.012.057,2.058,2.076-2.638,2.653Z" transform="translate(-207.628 -18.35)" fill="#19538d"/>
          </g>
        </g>
      </g>
    </g>
  </g>
</svg>
