<svg xmlns="http://www.w3.org/2000/svg" xmlns:xlink="http://www.w3.org/1999/xlink" width="91" height="91" viewBox="0 0 91 91">
  <defs>
    <clipPath id="clip-path">
      <rect id="Rectángulo_461557" data-name="Rectángulo 461557" width="64.042" height="64.056" fill="none"/>
    </clipPath>
  </defs>
  <g id="Grupo_1212022" data-name="Grupo 1212022" transform="translate(-335.711 -2638.394)">
    <circle id="Elipse_13733" data-name="Elipse 13733" cx="45.5" cy="45.5" r="45.5" transform="translate(335.711 2638.394)" fill="#fff"/>
    <g id="Grupo_1212020" data-name="Grupo 1212020" transform="translate(348.711 2651.394)">
      <g id="Grupo_1212019" data-name="Grupo 1212019" clip-path="url(#clip-path)">
        <path id="Trazado_1276268" data-name="Trazado 1276268" d="M69.648,148.153c.207.364.1.919-.266,1.024l-2.435.7a2.709,2.709,0,0,1-.306.837l-31.3-.009a23.313,23.313,0,0,1-1.6-2.469v-24.4h40.3v18.988l-1.594-.809-4.012,4.011Zm-33.822-11.9H56.477V125.916H35.826Zm36.155-10.336H58.54v2.072H71.981Zm-13.442,4.126v2.086H71.981v-2.086Zm9.3,4.138h-9.3v2.072h9.3Zm4.138,0H69.9v2.073h2.083ZM50.276,138.3l-14.454.008.006,10.348,14.454-.008Zm16.527,0H52.356v10.348H66.8Z" transform="translate(-27.556 -101.112)" fill="#f0f2f5"/>
        <path id="Trazado_1276269" data-name="Trazado 1276269" d="M88.711,18.144l-.083,3.522-36.965-.031A29.821,29.821,0,0,1,90.193,16Z" transform="translate(-42.183 -9.269)" fill="#69d7e5"/>
        <path id="Trazado_1276270" data-name="Trazado 1276270" d="M83.872,285.05a.762.762,0,0,1,.417,1.192l-1.149,2.033,1.612,1.709a29.852,29.852,0,0,1-33.018-8.4l29.681-.034.1,2.832Z" transform="translate(-42.24 -229.886)" fill="#69d7e5"/>
        <path id="Trazado_1276271" data-name="Trazado 1276271" d="M13.312,137.287a29.533,29.533,0,0,1,0-21.614Z" transform="translate(-9.197 -94.448)" fill="#69d7e5"/>
        <path id="Trazado_1276272" data-name="Trazado 1276272" d="M45.07,135.181H65.721v10.333H45.07Zm18.595,2.06H47.142v6.217H63.665Z" transform="translate(-36.8 -110.377)" fill="#282827"/>
        <path id="Trazado_1276273" data-name="Trazado 1276273" d="M59.5,202.668l.006,10.348-14.454.008-.006-10.348Zm-2.059,2.065H47.122v6.236H57.441Z" transform="translate(-36.78 -165.48)" fill="#282827"/>
        <rect id="Rectángulo_461547" data-name="Rectángulo 461547" width="13.441" height="2.072" transform="translate(30.984 24.802)" fill="#282827"/>
        <rect id="Rectángulo_461548" data-name="Rectángulo 461548" width="13.443" height="2.086" transform="translate(30.982 28.929)" fill="#282827"/>
        <rect id="Rectángulo_461549" data-name="Rectángulo 461549" width="9.303" height="2.072" transform="translate(30.984 33.066)" fill="#282827"/>
        <rect id="Rectángulo_461550" data-name="Rectángulo 461550" width="2.083" height="2.073" transform="translate(42.341 33.066)" fill="#282827"/>
        <path id="Trazado_1276274" data-name="Trazado 1276274" d="M33.748,78.757l40.3.01,0,6.25-40.3-.01ZM37.9,80.846h-2.07v2.072H37.9Zm4.113,0H39.954v2.082H42.01Zm4.148,0H44.089v2.081h2.069Z" transform="translate(-27.555 -64.306)" fill="#ffd453"/>
        <rect id="Rectángulo_461551" data-name="Rectángulo 461551" width="2.07" height="2.072" transform="translate(8.271 16.54)" fill="#282827"/>
        <rect id="Rectángulo_461552" data-name="Rectángulo 461552" width="2.056" height="2.082" transform="translate(12.399 16.536)" fill="#282827"/>
        <rect id="Rectángulo_461553" data-name="Rectángulo 461553" width="2.069" height="2.081" transform="translate(16.534 16.534)" fill="#282827"/>
        <rect id="Rectángulo_461554" data-name="Rectángulo 461554" width="16.523" height="6.217" transform="translate(10.342 26.865)" fill="#ffb851"/>
        <rect id="Rectángulo_461555" data-name="Rectángulo 461555" width="10.319" height="6.236" transform="translate(10.342 39.253)" fill="#ffb851"/>
        <path id="Trazado_1276275" data-name="Trazado 1276275" d="M149.6,213.017H135.157V202.669H149.6Zm-2.065-8.283H137.223v6.236h10.316Z" transform="translate(-110.357 -165.481)" fill="#282827"/>
        <rect id="Rectángulo_461556" data-name="Rectángulo 461556" width="10.316" height="6.236" transform="translate(26.866 39.253)" fill="#ffb851"/>
        <path id="Trazado_1276276" data-name="Trazado 1276276" d="M62.426,58.378l-4.015,4.047L56.354,61.26a.772.772,0,0,0-1.178.357L54.5,64.045l-5.689,0-.747-2.55c-.156-.531-.822-.414-1.221-.186L44.93,62.4l-.877-.692A32.034,32.034,0,0,1,4.126,16.3l0-3.911,2.647-.041A31.919,31.919,0,0,1,49.14,4.984l2.507-3.708,5.142,7.649.034,2.843A32.057,32.057,0,0,1,61.707,44.04l.689.9-1.2,2.155a.716.716,0,0,0,.415,1.04l2.43.678V54.5l-2.283.648a.852.852,0,0,0-.532.316.775.775,0,0,0-.029.766Zm-15.9-49.5L48.01,6.726A29.821,29.821,0,0,0,9.48,12.366l36.965.031Zm7.288-.615L51.629,5.033,49.5,8.262ZM50.605,39.244l0-28.856-2.049-.028L48.547,39.4a7.606,7.606,0,0,1,2.058-.152m4.143.41.006-29.292-2.061.024,0,28.884,1.466-.015ZM6.194,14.451l0,6.25,40.3.01v-6.25ZM58.5,40.94l1.6,1.553A29.8,29.8,0,0,0,56.86,15.4L56.8,41.685Zm-54.387,1.9V21.225a29.531,29.531,0,0,0,0,21.614m37.977,4.2-1.207-2.127L44.9,40.9l1.594.809V22.723H6.194v24.4a23.313,23.313,0,0,0,1.6,2.469l31.3.009a2.7,2.7,0,0,0,.306-.837l2.435-.7c.363-.1.472-.659.266-1.024M52.965,61.936l.645-2.251a11.417,11.417,0,0,0,2.384-.982l2.094,1.138,1.763-1.808L58.694,56a16.023,16.023,0,0,0,1.046-2.443l2.2-.617,0-2.556L59.683,49.7a9.322,9.322,0,0,0-.99-2.371l1.153-2.047-1.762-1.809L55.976,44.6a13.666,13.666,0,0,0-2.429-1.033l-.616-2.2-2.562,0-.677,2.256a9.144,9.144,0,0,0-2.352.981L45.227,43.47,43.447,45.3A18.25,18.25,0,0,1,44.6,47.345a12.465,12.465,0,0,0-1.033,2.417l-2.2.619,0,2.561,2.257.678a9.726,9.726,0,0,0,.973,2.359l-1.143,2.048,1.767,1.815,2.1-1.145a12.991,12.991,0,0,0,2.44,1.05l.615,2.215ZM41.632,55.163l-2.353-.67-.1-2.832-29.681.034a29.851,29.851,0,0,0,33.018,8.4L40.9,58.388l1.149-2.033a.762.762,0,0,0-.417-1.192" transform="translate(0 0)" fill="#282827"/>
        <path id="Trazado_1276277" data-name="Trazado 1276277" d="M311.257,109.45l-1.7.745.059-26.29a29.8,29.8,0,0,1,3.241,27.1Z" transform="translate(-252.755 -68.509)" fill="#69d7e5"/>
        <path id="Trazado_1276278" data-name="Trazado 1276278" d="M289.217,85.762l-.586-.4-1.466.015,0-28.884,2.061-.024Z" transform="translate(-234.47 -46.108)" fill="#ffb851"/>
        <path id="Trazado_1276279" data-name="Trazado 1276279" d="M266.63,85.346a7.614,7.614,0,0,0-2.058.152l.005-29.036,2.049.028Z" transform="translate(-216.025 -46.102)" fill="#ffb851"/>
        <path id="Trazado_1276280" data-name="Trazado 1276280" d="M274.059,30.658h-4.321l2.133-3.229Z" transform="translate(-220.244 -22.398)" fill="#ffd453"/>
        <path id="Trazado_1276281" data-name="Trazado 1276281" d="M237.016,246.032l-2.59.027-.615-2.215a12.994,12.994,0,0,1-2.44-1.05l-2.1,1.145-1.767-1.815,1.143-2.048a9.743,9.743,0,0,1-.973-2.359l-2.257-.678,0-2.561,2.2-.619a12.453,12.453,0,0,1,1.032-2.418A18.25,18.25,0,0,0,227.5,229.4l1.78-1.831,2.113,1.137a9.146,9.146,0,0,1,2.352-.981l.677-2.256,2.562,0,.616,2.2a13.678,13.678,0,0,1,2.429,1.033l2.107-1.132,1.762,1.809-1.152,2.047a9.315,9.315,0,0,1,.99,2.371l2.262.681,0,2.556-2.2.617a16.022,16.022,0,0,1-1.046,2.443l1.156,2.037-1.763,1.808-2.094-1.138a11.405,11.405,0,0,1-2.384.982Zm4.878-10.28a6.193,6.193,0,1,0-6.193,6.193,6.193,6.193,0,0,0,6.193-6.193" transform="translate(-184.052 -184.095)" fill="#ffd453"/>
        <path id="Trazado_1276282" data-name="Trazado 1276282" d="M260.118,253.967a6.193,6.193,0,1,1-6.193-6.193,6.193,6.193,0,0,1,6.193,6.193m-2.066,0a4.128,4.128,0,1,0-4.128,4.128,4.128,4.128,0,0,0,4.128-4.128" transform="translate(-202.276 -202.31)" fill="#282827"/>
      </g>
    </g>
  </g>
</svg>
