<svg xmlns="http://www.w3.org/2000/svg" xmlns:xlink="http://www.w3.org/1999/xlink" width="91" height="91" viewBox="0 0 91 91">
  <defs>
    <clipPath id="clip-path">
      <rect id="Rectángulo_461559" data-name="Rectángulo 461559" width="65" height="54.454" fill="none"/>
    </clipPath>
  </defs>
  <g id="Grupo_1212023" data-name="Grupo 1212023" transform="translate(-751.711 -2638.394)">
    <circle id="Elipse_13734" data-name="Elipse 13734" cx="45.5" cy="45.5" r="45.5" transform="translate(751.711 2638.394)" fill="#fff"/>
    <g id="Grupo_1212026" data-name="Grupo 1212026" transform="translate(764.711 2656.394)">
      <g id="Grupo_1212025" data-name="Grupo 1212025" clip-path="url(#clip-path)">
        <path id="Trazado_1276283" data-name="Trazado 1276283" d="M24.347.885a1.014,1.014,0,0,1-1.075,1.048l-5.965,0A1.847,1.847,0,0,0,15.4,3.65V7.441H49.6l.025-3.611a1.9,1.9,0,0,0-1.953-1.893L27.614,1.922A1,1,0,0,1,26.633.885.99.99,0,0,1,27.617,0l20.5.1c2.439.011,3.809,2.611,3.389,4.972l9.208,0A4,4,0,0,1,65,8.9V44.609a4.735,4.735,0,0,1-4.841,4.717l-8.594-.006a4.869,4.869,0,0,1-5.006,5.125l-4.064-.006a.984.984,0,0,1-.988-1.037,1,1,0,0,1,.982-.891l4.294-.01a2.8,2.8,0,0,0,2.833-2.591L49.649,28.9h-34.3l.036,21.043A2.794,2.794,0,0,0,18.063,52.5l20.813.009a.972.972,0,0,1-.007,1.945l-20.575-.016a4.805,4.805,0,0,1-4.857-5.1L4.463,49.29A4.617,4.617,0,0,1,0,44.615l0-35.9A3.878,3.878,0,0,1,3.908,5.1l9.591-.02c-.445-2.468.972-4.8,3.372-5L23.4,0a1,1,0,0,1,.949.885M13.43,12.53V6.981H3.743A2.109,2.109,0,0,0,1.894,8.9l-.007,3.629Zm49.684-3.4a2.079,2.079,0,0,0-1.852-2.139l-9.694-.019,0,5.55,11.537.037Zm-47.76,3.4H49.646V9.351H15.354ZM13.426,29.3l-.009-2.917-5.793-.04A2.7,2.7,0,0,1,5.05,23.789l-.02-3.762a2.721,2.721,0,0,1,2.6-2.765l5.787-.036-.005-2.778H1.876L1.9,44.6a2.822,2.822,0,0,0,2.75,2.82l8.762.036,0-2.131-4.871-.008A2.745,2.745,0,0,1,5.8,42.769L5.789,31.96a2.684,2.684,0,0,1,2.583-2.607Zm36.22-14.877H15.354V27H49.646Zm9.564,17.424V42.766a2.78,2.78,0,0,1-2.939,2.569l-4.685-.01,0,2.128,8.584-.007A2.882,2.882,0,0,0,63.1,44.6l.026-30.152H51.6L51.6,17.223l5.968.058a2.548,2.548,0,0,1,2.38,2.375l.016,4.122a2.715,2.715,0,0,1-2.77,2.59l-5.595.014-.018,2.927,5.053.043a2.628,2.628,0,0,1,2.579,2.5m-51.356-7.4,5.588-.011-.015-5.3-5.6.007a.917.917,0,0,0-.9.9l.007,3.509a.913.913,0,0,0,.914.9M58.079,23.4l0-3.356a.91.91,0,0,0-.91-.9H51.588v5.308h5.559a.932.932,0,0,0,.932-1.052M8.712,43.434l4.726-.009-.007-12.2-4.865.008a.958.958,0,0,0-.891.948v10.2a.961.961,0,0,0,1.037,1.053m48.632-1.143,0-10.134a.963.963,0,0,0-.915-.923l-4.846-.007,0,12.225,4.778-.023a.974.974,0,0,0,.978-1.138" fill="#050605"/>
        <path id="Trazado_1276284" data-name="Trazado 1276284" d="M108.58,179.673l-1.669-.017a.982.982,0,0,0-.962-.876l-20.813-.009a2.794,2.794,0,0,1-2.676-2.557l-.036-21.043h34.3l-.032,21.009a2.8,2.8,0,0,1-2.833,2.591l-4.294.01a1,1,0,0,0-.982.891M95.305,166.5a2.224,2.224,0,0,0,2.218-2.292v-4.675a2.271,2.271,0,0,0-2.325-2.318l-7.274.007a2.167,2.167,0,0,0-2.23,2.13l-.018,4.851a2.257,2.257,0,0,0,2.07,2.3Zm18.147-2.194-.005-4.953a2.17,2.17,0,0,0-2.224-2.134l-7.277,0a2.27,2.27,0,0,0-2.325,2.319V164.2a2.269,2.269,0,0,0,2.322,2.311l7.273-.012a2.171,2.171,0,0,0,2.234-2.2m-16.73,6.321c.625,0,.85-.7.775-1.106a.966.966,0,0,0-1.014-.791l-9.816.009a.958.958,0,1,0-.026,1.916Zm15.861.01a.925.925,0,0,0,.881-.95.945.945,0,0,0-.838-.935l-10.127-.008a.934.934,0,0,0-.851,1.118c.107.576.548.813,1.186.81Zm-16.014,3.82a.944.944,0,1,0-.078-1.884l-9.858,0a.941.941,0,0,0-.941,1.018.993.993,0,0,0,.947.871Zm16.016-.006a.949.949,0,0,0,.87-1.019c-.035-.3-.313-.844-.78-.845l-10.019-.016a.95.95,0,0,0-1.019.854.936.936,0,0,0,.856,1.026Z" transform="translate(-67.073 -126.271)" fill="#e7f5f9"/>
        <path id="Trazado_1276285" data-name="Trazado 1276285" d="M93.927,4.75a1,1,0,0,0,.981,1.038l20.055.014a1.9,1.9,0,0,1,1.953,1.893l-.025,3.611H82.7V7.516A1.847,1.847,0,0,1,84.6,5.8l5.965,0A1.014,1.014,0,0,0,91.641,4.75Zm11.451,2.9a2.782,2.782,0,0,0-1.584.053.939.939,0,0,0-.431,1.284c.245.532.781.565,1.362.558.611-.007,1.079-.164,1.28-.687a.928.928,0,0,0-.628-1.208m3.918,0a2.816,2.816,0,0,0-1.586.058.941.941,0,0,0-.431,1.278c.349.757,2.277.835,2.636-.122a.933.933,0,0,0-.619-1.214m3.912,0a2.769,2.769,0,0,0-1.574.061.933.933,0,0,0-.436,1.25c.267.551.753.582,1.353.584s1.1-.142,1.273-.675a.941.941,0,0,0-.616-1.22" transform="translate(-67.293 -3.865)" fill="#69d7e5"/>
        <path id="Trazado_1276286" data-name="Trazado 1276286" d="M116.733,90.035H82.442V77.466h34.291Zm-7.46-2.564a3.737,3.737,0,0,0-.15-7.457L89.843,80a3.732,3.732,0,0,0-3.709,3.583c-.1,1.775,1.3,3.882,3.32,3.883Z" transform="translate(-67.088 -63.038)" fill="#ffd453"/>
        <path id="Trazado_1276287" data-name="Trazado 1276287" d="M284.564,94.983a2.628,2.628,0,0,0-2.579-2.5l-5.053-.043.018-2.927,5.595-.014a2.716,2.716,0,0,0,2.77-2.59l-.016-4.121a2.547,2.547,0,0,0-2.38-2.375l-5.968-.058.006-2.774h11.522l-.026,30.152a2.881,2.881,0,0,1-2.928,2.843l-8.584.007,0-2.128,4.685.01a2.78,2.78,0,0,0,2.939-2.569Z" transform="translate(-225.355 -63.131)" fill="#e7f5f9"/>
        <rect id="Rectángulo_461558" data-name="Rectángulo 461558" width="34.291" height="3.179" transform="translate(15.354 9.351)" fill="#e7f5f9"/>
        <path id="Trazado_1276288" data-name="Trazado 1276288" d="M282.736,178.73a.974.974,0,0,1-.978,1.138l-4.778.023,0-12.225,4.846.007a.963.963,0,0,1,.915.923Z" transform="translate(-225.391 -136.439)" fill="#69d7e5"/>
        <path id="Trazado_1276289" data-name="Trazado 1276289" d="M288.429,39.609l0,3.429L276.888,43l0-5.55,9.694.019a2.079,2.079,0,0,1,1.852,2.139" transform="translate(-225.315 -30.476)" fill="#6cb9ff"/>
        <path id="Trazado_1276290" data-name="Trazado 1276290" d="M283.482,107.065a.932.932,0,0,1-.932,1.052h-5.558V102.81h5.583a.91.91,0,0,1,.91.9Z" transform="translate(-225.403 -83.661)" fill="#6cb9ff"/>
        <path id="Trazado_1276291" data-name="Trazado 1276291" d="M197.325,173.23a2.171,2.171,0,0,1-2.234,2.2l-7.273.012a2.269,2.269,0,0,1-2.322-2.311v-4.669a2.27,2.27,0,0,1,2.325-2.319l7.277,0a2.17,2.17,0,0,1,2.224,2.134Zm-1.887.248-.061-5.428h-7.934v5.476Z" transform="translate(-150.947 -135.197)" fill="#050605"/>
        <path id="Trazado_1276292" data-name="Trazado 1276292" d="M109.527,175.422l-7.556.006a2.257,2.257,0,0,1-2.07-2.3l.018-4.851a2.166,2.166,0,0,1,2.229-2.13l7.274-.007a2.271,2.271,0,0,1,2.325,2.318v4.675a2.224,2.224,0,0,1-2.219,2.292m.28-1.911-.011-5.468-7.975.028.013,5.43Z" transform="translate(-81.295 -135.195)" fill="#050605"/>
        <path id="Trazado_1276293" data-name="Trazado 1276293" d="M110.959,229.858l-10.081.028a.958.958,0,1,1,.026-1.916l9.816-.009a.966.966,0,0,1,1.014.791c.075.4-.15,1.1-.775,1.106" transform="translate(-81.31 -185.504)" fill="#050605"/>
        <path id="Trazado_1276294" data-name="Trazado 1276294" d="M196.512,229.93l-9.749.036c-.638,0-1.078-.234-1.186-.81a.934.934,0,0,1,.851-1.118l10.128.008a.944.944,0,0,1,.837.935.925.925,0,0,1-.881.95" transform="translate(-151.003 -185.566)" fill="#050605"/>
        <path id="Trazado_1276295" data-name="Trazado 1276295" d="M110.831,250.479l-9.93.008a.994.994,0,0,1-.947-.871.942.942,0,0,1,.941-1.018l9.858,0a.944.944,0,1,1,.078,1.884" transform="translate(-81.336 -202.295)" fill="#050605"/>
        <path id="Trazado_1276296" data-name="Trazado 1276296" d="M196.513,250.466H186.42a.936.936,0,0,1-.856-1.026.95.95,0,0,1,1.019-.854l10.019.016c.467,0,.745.542.78.845a.949.949,0,0,1-.87,1.019" transform="translate(-151.001 -202.288)" fill="#050605"/>
        <path id="Trazado_1276297" data-name="Trazado 1276297" d="M195.262,19.936a.928.928,0,0,1,.628,1.208c-.2.523-.67.68-1.28.687-.582.007-1.117-.026-1.362-.558a.94.94,0,0,1,.431-1.285,2.783,2.783,0,0,1,1.584-.053" transform="translate(-157.178 -16.15)" fill="#050605"/>
        <path id="Trazado_1276298" data-name="Trazado 1276298" d="M216.294,19.933a.933.933,0,0,1,.619,1.214c-.359.957-2.287.879-2.636.122a.941.941,0,0,1,.431-1.278,2.816,2.816,0,0,1,1.586-.058" transform="translate(-174.292 -16.151)" fill="#050605"/>
        <path id="Trazado_1276299" data-name="Trazado 1276299" d="M237.351,19.937a.941.941,0,0,1,.616,1.22c-.172.532-.672.676-1.273.675s-1.086-.033-1.353-.584a.933.933,0,0,1,.436-1.25,2.769,2.769,0,0,1,1.574-.061" transform="translate(-191.438 -16.156)" fill="#050605"/>
        <path id="Trazado_1276300" data-name="Trazado 1276300" d="M125.38,98.54l-19.82-.006c-2.017,0-3.424-2.108-3.32-3.883a3.732,3.732,0,0,1,3.709-3.583l19.279.015a3.737,3.737,0,0,1,.15,7.457m-.371-5.571-18.9-.005a1.878,1.878,0,0,0-1.964,1.835,1.821,1.821,0,0,0,1.823,1.885l19.078,0a1.83,1.83,0,0,0,1.835-1.886,1.853,1.853,0,0,0-1.874-1.832" transform="translate(-83.195 -74.108)" fill="#050605"/>
        <path id="Trazado_1276301" data-name="Trazado 1276301" d="M203.96,181.825l-7.994.049V176.4H203.9Z" transform="translate(-159.468 -143.544)" fill="#ffb851"/>
        <path id="Trazado_1276302" data-name="Trazado 1276302" d="M118.195,181.838l-7.974-.01-.013-5.43,7.975-.028Z" transform="translate(-89.682 -143.522)" fill="#ffd453"/>
        <path id="Trazado_1276303" data-name="Trazado 1276303" d="M133.361,101.248a1.853,1.853,0,0,1,1.874,1.832,1.83,1.83,0,0,1-1.835,1.886l-19.078,0a1.821,1.821,0,0,1-1.823-1.885,1.878,1.878,0,0,1,1.964-1.835Z" transform="translate(-91.546 -82.387)" fill="#f5f5f5"/>
        <path id="Trazado_1276304" data-name="Trazado 1276304" d="M21.624,92.433l-5.054.048a2.684,2.684,0,0,0-2.583,2.607L14,105.9a2.744,2.744,0,0,0,2.742,2.551l4.871.008,0,2.131-8.762-.036a2.822,2.822,0,0,1-2.75-2.82l-.024-30.154,11.534,0,.005,2.778-5.787.036a2.721,2.721,0,0,0-2.6,2.765l.02,3.762a2.7,2.7,0,0,0,2.574,2.559l5.793.04Z" transform="translate(-8.198 -63.129)" fill="#e7f5f9"/>
        <path id="Trazado_1276305" data-name="Trazado 1276305" d="M42.239,179.869a.961.961,0,0,1-1.037-1.053v-10.2a.958.958,0,0,1,.891-.948l4.865-.008.007,12.2Z" transform="translate(-33.527 -136.436)" fill="#ffb851"/>
        <path id="Trazado_1276306" data-name="Trazado 1276306" d="M21.678,43.032H10.135l.007-3.629a2.109,2.109,0,0,1,1.849-1.922h9.688Z" transform="translate(-8.247 -30.501)" fill="#6cb9ff"/>
        <path id="Trazado_1276307" data-name="Trazado 1276307" d="M38.144,108.085a.912.912,0,0,1-.914-.9l-.007-3.509a.916.916,0,0,1,.9-.9l5.6-.007.015,5.3Z" transform="translate(-30.291 -83.633)" fill="#6cb9ff"/>
      </g>
    </g>
  </g>
</svg>
