<svg xmlns="http://www.w3.org/2000/svg" xmlns:xlink="http://www.w3.org/1999/xlink" width="160" height="160" viewBox="0 0 160 160">
  <defs>
    <clipPath id="clip-path">
      <rect id="Rectángulo_455533" data-name="Rectángulo 455533" width="159.812" height="153.185" fill="#62249e"/>
    </clipPath>
    <clipPath id="clip-path-2">
      <rect id="Rectángulo_461943" data-name="Rectángulo 461943" width="82" height="82" fill="#fff"/>
    </clipPath>
  </defs>
  <g id="Grupo_1212360" data-name="Grupo 1212360" transform="translate(-383.649 -8398.903)">
    <circle id="Elipse_13674" data-name="Elipse 13674" cx="69" cy="69" r="69" transform="translate(393.649 8410.903)" fill="#62249e"/>
    <g id="Grupo_1179062" data-name="Grupo 1179062" transform="translate(383.649 8398.903)">
      <rect id="Rectángulo_455531" data-name="Rectángulo 455531" width="160" height="160" transform="translate(0 0)" fill="none"/>
      <g id="Grupo_1179061" data-name="Grupo 1179061" transform="translate(0.094 3.9)">
        <path id="Trazado_998445" data-name="Trazado 998445" d="M127.367,99.1H96.727l4.153-7.745h30.64Z" transform="translate(23.418 22.527)" fill="#62249e"/>
        <path id="Trazado_998446" data-name="Trazado 998446" d="M2.518,86.893,0,92.019h33.78L36.3,86.893Z" transform="translate(0 21.46)" fill="#62249e"/>
        <path id="Trazado_998447" data-name="Trazado 998447" d="M131.16,33.711H98.809l2.537-5.745H133.7Z" transform="translate(23.977 6.905)" fill="#62249e"/>
        <path id="Trazado_998448" data-name="Trazado 998448" d="M45.981,13.965H3.483L6.02,8.221h42.5Z" transform="translate(0.935 2.207)" fill="#62249e"/>
        <g id="Grupo_1179060" data-name="Grupo 1179060" transform="translate(0)">
          <g id="Grupo_1179059" data-name="Grupo 1179059" clip-path="url(#clip-path)">
            <path id="Trazado_998449" data-name="Trazado 998449" d="M79.257,132.183A67.757,67.757,0,0,1,13.15,49.237H4.12a76.641,76.641,0,0,0,134.831,63.179H127.129a67.636,67.636,0,0,1-47.872,19.767" transform="translate(0.649 12.195)" fill="#62249e"/>
            <path id="Trazado_998450" data-name="Trazado 998450" d="M110.835,89.888h10.029c.805-1.6,1.537-3.245,2.231-4.908h-9.642c-.81,1.674-1.678,3.314-2.618,4.908" transform="translate(27.546 21.048)" fill="#62249e"/>
            <path id="Trazado_998451" data-name="Trazado 998451" d="M155.215,76.593A76.663,76.663,0,0,0,5.373,53.814h9.3A67.827,67.827,0,1,1,141.5,101.872h9.4a76.209,76.209,0,0,0,4.315-25.279" transform="translate(1.335)" fill="#62249e"/>
            <path id="Trazado_998452" data-name="Trazado 998452" d="M108.562,81.649v4.156h5.456q.989-2.042,1.842-4.156Z" transform="translate(26.981 20.223)" fill="#62249e"/>
            <path id="Trazado_998453" data-name="Trazado 998453" d="M129.825,81.649h-7.576q-.74,2.107-1.594,4.156h9.17Z" transform="translate(29.986 20.223)" fill="#62249e"/>
          </g>
        </g>
        <path id="Trazado_998444" data-name="Trazado 998444" d="M3.8,37.025,0,44.77H23l3.805-7.745Z" transform="translate(0 9.13)" fill="#62249e"/>
      </g>
    </g>
    <g id="Grupo_1177669" data-name="Grupo 1177669" transform="translate(416.649 8431.903)">
      <g id="Grupo_1099618" data-name="Grupo 1099618" transform="translate(0 0.001)">
        <rect id="Rectángulo_401104" data-name="Rectángulo 401104" width="93.646" height="94.775" transform="translate(0)" fill="none"/>
      </g>
      <g id="Grupo_1212436" data-name="Grupo 1212436" transform="translate(6 6.001)">
        <g id="Grupo_1212435" data-name="Grupo 1212435" clip-path="url(#clip-path-2)">
          <path id="Trazado_1277603" data-name="Trazado 1277603" d="M82,41A41,41,0,1,1,41,0,41,41,0,0,1,82,41M50.323,19.331C48.911,13.188,43.257-1.91,36.1,8.489a32.666,32.666,0,0,0-4.422,10.841Zm-38.216,0H26.438l2.8-8.149L31.8,6.046A35.133,35.133,0,0,0,12.107,19.331m57.79,0A35.133,35.133,0,0,0,50.208,6.046l2.554,5.136,2.8,8.149Zm3.225,4.932H8.881A36.58,36.58,0,0,0,8.82,57.636l64.3.106a36.646,36.646,0,0,0,0-33.479M26.438,62.673H12.107A35.41,35.41,0,0,0,26.4,74.132a17.865,17.865,0,0,0,5.515,1.709,38.8,38.8,0,0,1-4.357-9.624c-.2-.612-.79-3.436-1.118-3.543m23.885,0H31.681c1.412,6.143,7.066,21.241,14.22,10.841a32.671,32.671,0,0,0,4.422-10.841m19.574,0H55.566a18.213,18.213,0,0,0-1.118,3.543,38.812,38.812,0,0,1-4.357,9.624c-.034.179.213.14.35.118a28.93,28.93,0,0,0,4.7-1.592A35.833,35.833,0,0,0,69.9,62.673" fill="#fff"/>
          <path id="Trazado_1277604" data-name="Trazado 1277604" d="M213.306,124.142a7.442,7.442,0,0,1,7.438,5.017c.6,1.972.51,10.165.306,12.526-.655,7.578-11.388,9-13.938,1.8-.836-2.361-.837-12.217,0-14.577a7.435,7.435,0,0,1,6.194-4.77m.224,4.88a2.637,2.637,0,0,0-2.029,1.949,68.689,68.689,0,0,0-.019,10.245c.325,2.736,4.335,3.185,4.838-.3.239-1.658.271-9.012-.234-10.363a2.325,2.325,0,0,0-2.556-1.531" transform="translate(-158.368 -95.199)" fill="#fff"/>
          <path id="Trazado_1277605" data-name="Trazado 1277605" d="M131.455,124.165c2.753-.219,8.422,2.517,5.532,5.544-1.908,2-3.284-.45-4.732-.664-2.94-.435-4.059,4.137-.384,4.828,2.038.384,2.7.063,4.527,1.532,6.5,5.217.451,15.579-7.524,12.184-1.814-.772-4.094-3.141-2.014-4.939,2.119-1.831,3.166.487,4.584.753,2.784.523,4.186-3.7,1.16-4.671-2.141-.689-3.192.031-5.407-1.816-4.928-4.11-2.15-12.242,4.259-12.752" transform="translate(-95.625 -95.222)" fill="#fff"/>
          <path id="Trazado_1277606" data-name="Trazado 1277606" d="M84.574,124.127c1.582-.148,2.5,1.233,2.636,2.62.59,6.09-.452,13.144-.027,19.338-.784,3.084-4.574,2.823-4.89-.439-.59-6.089.452-13.145.027-19.338a2.619,2.619,0,0,1,2.255-2.18" transform="translate(-62.973 -95.194)" fill="#fff"/>
        </g>
      </g>
    </g>
  </g>
</svg>
