<svg xmlns="http://www.w3.org/2000/svg" xmlns:xlink="http://www.w3.org/1999/xlink" width="96" height="96" viewBox="0 0 96 96">
  <defs>
    <clipPath id="clip-path">
      <rect id="Rectángulo_455533" data-name="Rectángulo 455533" width="95.999" height="92.163" fill="#19538d"/>
    </clipPath>
    <clipPath id="clip-path-2">
      <rect id="Rectángulo_461956" data-name="Rectángulo 461956" width="51.604" height="51.494" fill="#fff"/>
    </clipPath>
  </defs>
  <g id="Grupo_1212449" data-name="Grupo 1212449" transform="translate(-383.746 -8399)">
    <circle id="Elipse_13674" data-name="Elipse 13674" cx="41.5" cy="41.5" r="41.5" transform="translate(389.746 8406)" fill="#19538d"/>
    <g id="Grupo_1179062" data-name="Grupo 1179062" transform="translate(383.745 8399)">
      <rect id="Rectángulo_455531" data-name="Rectángulo 455531" width="96" height="96" transform="translate(0 0)" fill="none"/>
      <g id="Grupo_1179061" data-name="Grupo 1179061" transform="translate(0 2.203)">
        <path id="Trazado_998445" data-name="Trazado 998445" d="M114.467,95.838H96.727l2.4-4.484h17.739Z" transform="translate(-23.693 -22.7)" fill="#19538d"/>
        <path id="Trazado_998446" data-name="Trazado 998446" d="M1.458,86.893,0,89.861H19.558l1.458-2.968Z" transform="translate(0 -21.618)" fill="#19538d"/>
        <path id="Trazado_998447" data-name="Trazado 998447" d="M117.539,31.293H98.809l1.469-3.326h18.73Z" transform="translate(-24.246 -6.956)" fill="#19538d"/>
        <path id="Trazado_998448" data-name="Trazado 998448" d="M28.088,11.547H3.483L4.952,8.221H29.557Z" transform="translate(-0.925 -2.184)" fill="#19538d"/>
        <g id="Grupo_1179060" data-name="Grupo 1179060" transform="translate(0)">
          <g id="Grupo_1179059" data-name="Grupo 1179059" clip-path="url(#clip-path)">
            <path id="Trazado_998449" data-name="Trazado 998449" d="M48.653,99.141a40.772,40.772,0,0,1-39.711-49.9H3.518A46.036,46.036,0,0,0,84.512,87.248h-7.1A40.6,40.6,0,0,1,48.653,99.141" transform="translate(-0.653 -12.277)" fill="#19538d"/>
            <path id="Trazado_998450" data-name="Trazado 998450" d="M110.835,87.933h6.025c.484-.964.923-1.952,1.34-2.953h-5.792c-.487,1.007-1.008,1.994-1.573,2.953" transform="translate(-27.709 -21.189)" fill="#19538d"/>
            <path id="Trazado_998451" data-name="Trazado 998451" d="M95.384,46.081a46.043,46.043,0,0,0-90.011-13.7h5.589A40.752,40.752,0,1,1,87.147,61.291h5.644a45.915,45.915,0,0,0,2.592-15.209" transform="translate(-1.343)" fill="#19538d"/>
            <path id="Trazado_998452" data-name="Trazado 998452" d="M108.562,81.649v2.5h3.277q.594-1.228,1.106-2.5Z" transform="translate(-27.141 -20.358)" fill="#19538d"/>
            <path id="Trazado_998453" data-name="Trazado 998453" d="M126.164,81.649h-4.551q-.444,1.268-.958,2.5h5.509Z" transform="translate(-30.164 -20.358)" fill="#19538d"/>
          </g>
        </g>
        <path id="Trazado_998444" data-name="Trazado 998444" d="M2.2,37.025,0,41.509H13.317l2.2-4.484Z" transform="translate(0 -9.2)" fill="#19538d"/>
      </g>
    </g>
    <g id="Grupo_1177669" data-name="Grupo 1177669" transform="translate(403.444 8418.662)">
      <g id="Grupo_1099618" data-name="Grupo 1099618" transform="translate(0.013 0.4)">
        <rect id="Rectángulo_401104" data-name="Rectángulo 401104" width="56.349" height="57.028" transform="translate(0)" fill="none"/>
      </g>
      <g id="Grupo_1212451" data-name="Grupo 1212451" transform="translate(2.013 3.401)">
        <g id="Grupo_1212450" data-name="Grupo 1212450" clip-path="url(#clip-path-2)">
          <path id="Trazado_1277630" data-name="Trazado 1277630" d="M41.643,6.6c3.018.275,7.252-1,9.277,1.91a4.2,4.2,0,0,1-2.915,6.427c-1.988.216-4.336-.161-6.363,0,.214,1.946-.8,3.538-1.327,5.317a3.027,3.027,0,0,1,1.327,1.777V51.494H26.726V21.733c0-.407.994-1.261,1.168-1.6a10.976,10.976,0,0,1-1.232-5.059l-3.3-.137v3c0,.7-1.135,1.808-1.862,1.94-1.944.355-4.641-.213-6.67.057-.953,1.195-1.128,3.352-3.095,3.352-1.9,0-2.208-2.025-3-3.3-.593-.362-5.6.164-6.886-.134A2.514,2.514,0,0,1,.1,17.351C-.224,13.014.359,8.271.108,3.89a2.67,2.67,0,0,1,2.7-2.272C8.55,1.126,14.986,2,20.8,1.625c.9-.069,2.561,1.076,2.561,1.973v3h1.9a2.8,2.8,0,0,1,1.068-3.537A31.927,31.927,0,0,1,30.89,1.035C34.124-.137,38.927-1.038,40.936,2.55a6.664,6.664,0,0,1,.707,1.926Zm-1.755,0V4.183a5.113,5.113,0,0,0-.433-.883c-1.8-2.98-6.933-1.15-9.464-.093a21.894,21.894,0,0,0-2.966,1.422,1.212,1.212,0,0,0,.205,1.828c.564.316,1.66.078,2.328.119.235-.08.936-2.15,1.48-2.615,1.956-1.672,5.314.192,5.486,2.634Zm-18.134,0c-.1-.754.351-3.018-.662-3.215L2.154,3.45a1.561,1.561,0,0,0-.442,1.166,93.747,93.747,0,0,0,0,12.442c.062.747.129,1.145.954,1.24,2.174.252,4.777-.212,7,.021.445.153,1.216,2.678,1.63,3.049a.656.656,0,0,0,.882,0c.413-.371,1.185-2.9,1.63-3.049,1.319-.3,6.724.369,7.557-.159.507-.321.524-2.981.254-3.165-.445-.1-.839-.043-1.3-.163a45.782,45.782,0,0,1-5.928-2.262,2.03,2.03,0,0,1,.168-3.592A48.978,48.978,0,0,1,20.69,6.63,5.574,5.574,0,0,1,21.754,6.6m12.43,8.335-.137,1.691c-.474.062-1.507.3-1.618-.3a18.289,18.289,0,0,1,.033-3.185c.283-1.38,2.279-3.732,2.457-5.148a6.252,6.252,0,0,0-.011-1.312c-.2-1.173-2.167-2.454-2.969-1.09-.993,1.688-3.453,7.177-3.6,8.982-.09,1.1.419,4.46,1.239,5.191.466.416,7.728,0,8.9.121.168-.041.2-.184.276-.309a9.546,9.546,0,0,0,1.137-4.64ZM28.773,8.351h-7.02V9.96h6.435Zm14.478,0H36.524a3.98,3.98,0,0,1-.585,1.609h7.312Zm1.755,4.972h2.852a8.17,8.17,0,0,0,1-.462A2.534,2.534,0,0,0,48.8,8.723a5.748,5.748,0,0,0-.8-.372h-3ZM20,8.79c-1.326.5-3.162.909-4.389,1.534-.185.094-.645.321-.584.584L20,12.885Zm7.312,2.925H21.753v1.609h5.119Zm15.941,0H35.135l-.8,1.609h8.921ZM39.888,24.877V22.025a2.448,2.448,0,0,0-.366-.366H28.846a3.422,3.422,0,0,0-.512.512v2.706Zm0,1.755H28.334v1.609H39.888Zm0,3.217H28.334V49.885H39.888Z" transform="translate(0 0)" fill="#fff"/>
          <path id="Trazado_1277631" data-name="Trazado 1277631" d="M12.441,283.8H.741V272.1h11.7Zm-1.755-9.945H2.35V282.2h8.336Z" transform="translate(-0.633 -232.31)" fill="#fff"/>
          <path id="Trazado_1277632" data-name="Trazado 1277632" d="M103.294,283.8H91.741V272.1h11.553ZM93.35,282.2h8.336v-8.336H93.35Z" transform="translate(-78.324 -232.31)" fill="#fff"/>
          <path id="Trazado_1277633" data-name="Trazado 1277633" d="M119.2,195.552a2.5,2.5,0,1,1-2.5-2.5,2.5,2.5,0,0,1,2.5,2.5m-1.664.009a.826.826,0,1,0-.826.826.826.826,0,0,0,.826-.826" transform="translate(-97.505 -164.82)" fill="#fff"/>
          <path id="Trazado_1277634" data-name="Trazado 1277634" d="M28.436,195.591a2.5,2.5,0,1,1-2.5-2.5,2.5,2.5,0,0,1,2.5,2.5m-1.688,0a.828.828,0,1,0-.828.828.828.828,0,0,0,.828-.828" transform="translate(-20.017 -164.856)" fill="#fff"/>
          <path id="Trazado_1277635" data-name="Trazado 1277635" d="M73.838,195.584a2.494,2.494,0,1,1-2.494-2.494,2.494,2.494,0,0,1,2.494,2.494m-1.65.011a.822.822,0,1,0-.822.822.822.822,0,0,0,.822-.822" transform="translate(-58.782 -164.851)" fill="#fff"/>
          <path id="Trazado_1277636" data-name="Trazado 1277636" d="M32.077,80.859H23.741V79.1h8.117c.429.425.144,1.191.219,1.755" transform="translate(-20.269 -67.535)" fill="#fff"/>
          <path id="Trazado_1277637" data-name="Trazado 1277637" d="M23.741,103.859V102.1h8.117l.2.242a1.852,1.852,0,0,1,.031.408c.031.363.072.879-.227,1.1Z" transform="translate(-20.269 -87.172)" fill="#fff"/>
          <rect id="Rectángulo_461955" data-name="Rectángulo 461955" width="8.336" height="1.609" transform="translate(3.472 8.351)" fill="#fff"/>
          <path id="Trazado_1277638" data-name="Trazado 1277638" d="M32.077,35.713H23.741V34.1h8.117c.416.386.153,1.086.219,1.609" transform="translate(-20.269 -29.116)" fill="#fff"/>
          <path id="Trazado_1277639" data-name="Trazado 1277639" d="M24.7,292.352,25.94,293.4l-3.871,4.759-2.256-2.39L20.9,294.8l1.024.88Z" transform="translate(-16.915 -249.596)" fill="#fff"/>
          <path id="Trazado_1277640" data-name="Trazado 1277640" d="M115.5,292.188l1.44.936-3.869,4.9-2.256-2.39,1.086-.976,1.024.88Z" transform="translate(-94.607 -249.456)" fill="#fff"/>
        </g>
      </g>
    </g>
  </g>
</svg>
