<svg xmlns="http://www.w3.org/2000/svg" xmlns:xlink="http://www.w3.org/1999/xlink" width="91" height="91" viewBox="0 0 91 91">
  <defs>
    <clipPath id="clip-path">
      <rect id="Rectángulo_461564" data-name="Rectángulo 461564" width="64" height="62.349" fill="none"/>
    </clipPath>
  </defs>
  <g id="Grupo_1212024" data-name="Grupo 1212024" transform="translate(-751.711 -2638.394)">
    <circle id="Elipse_13734" data-name="Elipse 13734" cx="45.5" cy="45.5" r="45.5" transform="translate(751.711 2638.394)" fill="#fff"/>
    <g id="Grupo_1212028" data-name="Grupo 1212028" transform="translate(767.7 2656.394)">
      <g id="Grupo_1212027" data-name="Grupo 1212027" transform="translate(-1.989 -4)" clip-path="url(#clip-path)">
        <path id="Trazado_1276308" data-name="Trazado 1276308" d="M30.113,13.872H31.45a.7.7,0,0,0,.532.628.635.635,0,0,0,.787-.617l1.347,0a.625.625,0,0,0,.142.488c.164.151.339.149.656.149l30.384,0-.031,50.1c0,.951-1.109,1.542-1.978,1.542L5.711,66.148A1.841,1.841,0,0,1,3.879,64.3l0-15.5a.639.639,0,0,0-.7-.629l0-1.247a.654.654,0,0,0,.7-.629.675.675,0,0,0-.7-.639V44.421a.652.652,0,0,0,.706-.644V8.224A1.874,1.874,0,0,1,5.857,6.349l12.03-.006,2.625,6.1a3.36,3.36,0,0,0,2.951,2.077H29.49a.569.569,0,0,0,.623-.65M14.674,11.223c.369,0,.394-.545.352-.722-.033-.142-.1-.461-.411-.46l-5.874.021c-.362,0-.4.539-.343.735a.566.566,0,0,0,.532.465ZM64.02,15.972h-1.3v19.7h1.3ZM7.354,60.3l1.157.37c.108.249.212.669.682.648a.666.666,0,0,0,.641-.631l1.336-.039a.722.722,0,0,0,.166.5.869.869,0,0,0,.635.184l9.3-.082a2.857,2.857,0,0,0,2.6-2.965l-.01-6.711a2.867,2.867,0,0,0,1.723-1.682l3.19-.034a2.844,2.844,0,0,0,2.888-2.732l.02-4.463,5.84,0-.005,4.1a3.039,3.039,0,0,0,3.075,3.11l2.99.027a2.947,2.947,0,0,0,1.726,1.677L45.3,58.3a2.873,2.873,0,0,0,2.611,2.957l12.7.02a2.754,2.754,0,0,0,2.7-2.636V39.814a2.8,2.8,0,0,0-2.545-2.622l-2.015-.05c-.5-.012-.789.264-.795.659l-1.327-.012a.652.652,0,0,0-.657-.636.633.633,0,0,0-.645.641l-1.34-.006c-.014-.388-.3-.654-.793-.652l-4.941.026a2.886,2.886,0,0,0-2.933,2.825l-.009,6.927a2.64,2.64,0,0,0-1.725,1.671l-3,.025a1.637,1.637,0,0,1-1.7-1.494l-.032-4.429,2.451-.048a3.086,3.086,0,0,0,3.125-2.813l.033-7.142a.545.545,0,0,0-.614-.525l.034-1.275c.2-.094.56-.175.574-.49a.651.651,0,0,0-.59-.764l-.009-1.26a.565.565,0,0,0,.628-.611l-.046-6.969A3.075,3.075,0,0,0,41.289,18L27.881,18a3.089,3.089,0,0,0-3.141,2.805l.03,19.178c0,1.676,1.928,2.629,3.391,2.662l2.219.051.006,4.25a1.609,1.609,0,0,1-1.634,1.643l-3.163,0a2.48,2.48,0,0,0-1.7-1.633l-.033-6.977a2.845,2.845,0,0,0-2.776-2.794l-12.508,0a2.73,2.73,0,0,0-2.685,2.446L5.878,59.116c0,.4.369.759.491.977.172.308.742.129.985.206M17.3,27a.748.748,0,0,0,.583-.624.642.642,0,0,0-.442-.58c-2.274-.483-1.546-2.957-2.695-2.792-.92.132-.311,2.277-2.523,2.8a.609.609,0,0,0-.42.713c.252.687,2.054.492,2.369,2.586a.673.673,0,0,0,.737.622c.942-.058.317-2.143,2.39-2.727m39.642-.064a.629.629,0,0,0,.456-.56.658.658,0,0,0-.441-.573c-2.294-.524-1.544-2.893-2.692-2.8-.927.071-.306,2.267-2.527,2.8a.6.6,0,0,0-.416.725c.253.7,2.006.482,2.324,2.47.074.461.314.8.782.735.941-.139.3-2.215,2.514-2.793m-19.908,30.1a.719.719,0,0,0,.56-.516.577.577,0,0,0-.357-.684c-2.268-.466-1.6-2.808-2.647-2.809s-.351,2.292-2.646,2.813a.575.575,0,0,0-.359.682.749.749,0,0,0,.553.522c2.145.614,1.424,2.739,2.449,2.71s.385-2.147,2.445-2.717M5.174,64.9H64V63.672H5.174Z" transform="translate(-2.572 -5.077)" fill="#ededed"/>
        <path id="Trazado_1276309" data-name="Trazado 1276309" d="M.607,43.1a.639.639,0,0,1,.7.629l0,15.5a1.841,1.841,0,0,0,1.832,1.85l57.578.009c.868,0,1.977-.59,1.978-1.542l.031-50.1-30.383,0c-.317,0-.492,0-.656-.149a.624.624,0,0,1-.142-.488.58.58,0,0,1,.589-.62H62.7l.021-5.064a1.87,1.87,0,0,0-2-1.854l-43.953,0L19.3,7.147a1.905,1.905,0,0,0,1.77,1.035l5.9.008a.554.554,0,0,1,.576.605.569.569,0,0,1-.623.65H20.891A3.36,3.36,0,0,1,17.94,7.368l-2.625-6.1-12.03.006A1.874,1.874,0,0,0,1.313,3.148V38.7a.652.652,0,0,1-.706.644.587.587,0,0,1-.592-.621L.053,2.774A3.073,3.073,0,0,1,3.307,0H60.726c1.616,0,3.265,1.134,3.265,2.784L64,59.557c0,1.8-1.786,2.792-3.466,2.792L3.306,62.34a3.039,3.039,0,0,1-3.25-2.756L0,43.7a.6.6,0,0,1,.607-.6" transform="translate(0)" fill="#090a0a"/>
        <path id="Trazado_1276310" data-name="Trazado 1276310" d="M.689,203.278a.675.675,0,0,1,.7.639.654.654,0,0,1-.7.629.636.636,0,0,1,0-1.268" transform="translate(-0.082 -162.698)" fill="#090a0a"/>
        <path id="Trazado_1276311" data-name="Trazado 1276311" d="M102.577,13.87l-1.347,0a.591.591,0,0,0-.661-.6.648.648,0,0,0-.658.59H98.574A.554.554,0,0,0,98,13.259l-5.9-.008a1.905,1.905,0,0,1-1.77-1.035L87.8,6.336l43.953,0a1.87,1.87,0,0,1,2,1.854l-.021,5.064H103.166a.58.58,0,0,0-.589.62M116.12,9.777a2.144,2.144,0,1,0-2.142,2.05,2.1,2.1,0,0,0,2.142-2.05m7.415,0a2.144,2.144,0,1,0-2.142,2.05,2.1,2.1,0,0,0,2.142-2.05m7.409,0a2.143,2.143,0,1,0-2.141,2.049,2.1,2.1,0,0,0,2.141-2.049" transform="translate(-71.033 -5.069)" fill="#69d7e5"/>
        <rect id="Rectángulo_461560" data-name="Rectángulo 461560" width="58.828" height="1.232" transform="translate(2.602 58.595)" fill="#f5f5f5"/>
        <rect id="Rectángulo_461561" data-name="Rectángulo 461561" width="1.302" height="19.697" transform="translate(60.146 10.895)" fill="#f5f5f5"/>
        <path id="Trazado_1276312" data-name="Trazado 1276312" d="M53.749,93.793c-2.073.584-1.448,2.668-2.39,2.727a.673.673,0,0,1-.737-.622c-.314-2.094-2.117-1.9-2.369-2.586a.609.609,0,0,1,.42-.713c2.212-.524,1.6-2.669,2.523-2.8,1.149-.164.42,2.31,2.695,2.792a.642.642,0,0,1,.442.58.748.748,0,0,1-.583.624M51.28,92.235l-.967.953.973.9.967-.953Z" transform="translate(-39.023 -71.864)" fill="#090a0a"/>
        <path id="Trazado_1276313" data-name="Trazado 1276313" d="M260.82,93.727c-2.215.578-1.573,2.654-2.514,2.793-.468.069-.709-.274-.782-.735-.318-1.989-2.071-1.769-2.324-2.47a.6.6,0,0,1,.416-.725c2.221-.534,1.6-2.729,2.527-2.8,1.147-.088.4,2.281,2.692,2.8a.658.658,0,0,1,.441.572.629.629,0,0,1-.456.561m-2.578.337.834-.928c-.386-.39-.537-.73-.975-.989a2.1,2.1,0,0,1-.772.962,4.035,4.035,0,0,0,.913.955" transform="translate(-206.452 -71.863)" fill="#090a0a"/>
        <path id="Trazado_1276314" data-name="Trazado 1276314" d="M36.692,26.052l-5.744.039a.566.566,0,0,1-.532-.465c-.06-.2-.019-.734.343-.735l5.874-.021c.315,0,.378.318.411.46.042.177.017.719-.352.722" transform="translate(-24.59 -19.905)" fill="#090a0a"/>
        <path id="Trazado_1276315" data-name="Trazado 1276315" d="M152.556,41.7a.635.635,0,0,1-.787.617.7.7,0,0,1-.532-.628.648.648,0,0,1,.658-.589.592.592,0,0,1,.661.6" transform="translate(-122.359 -32.897)" fill="#090a0a"/>
        <path id="Trazado_1276316" data-name="Trazado 1276316" d="M217.975,15.366a2.144,2.144,0,1,1-2.142-2.05,2.1,2.1,0,0,1,2.142,2.05m-1.3,0a.836.836,0,1,0-.835.8.818.818,0,0,0,.835-.8" transform="translate(-172.888 -10.658)" fill="#090a0a"/>
        <path id="Trazado_1276317" data-name="Trazado 1276317" d="M256.806,15.383a2.144,2.144,0,1,1-2.142-2.05,2.1,2.1,0,0,1,2.142,2.05m-1.3,0a.846.846,0,1,0-.845.809.827.827,0,0,0,.845-.809" transform="translate(-204.304 -10.671)" fill="#090a0a"/>
        <path id="Trazado_1276318" data-name="Trazado 1276318" d="M295.618,15.389a2.143,2.143,0,1,1-2.141-2.049,2.1,2.1,0,0,1,2.141,2.049m-1.3,0a.845.845,0,1,0-.844.807.826.826,0,0,0,.844-.807" transform="translate(-235.707 -10.677)" fill="#090a0a"/>
        <path id="Trazado_1276319" data-name="Trazado 1276319" d="M60.1,102.041l.973.9-.967.953-.973-.9Z" transform="translate(-47.84 -81.671)" fill="#eabb20"/>
        <path id="Trazado_1276320" data-name="Trazado 1276320" d="M267.359,103.522a4.037,4.037,0,0,1-.913-.955,2.1,2.1,0,0,0,.772-.962c.438.259.589.6.975.989Z" transform="translate(-215.569 -81.322)" fill="#eabb20"/>
        <path id="Trazado_1276321" data-name="Trazado 1276321" d="M222.254,20.378a.836.836,0,1,1-.835-.8.818.818,0,0,1,.835.8" transform="translate(-178.464 -15.67)" fill="#70bfe5"/>
        <path id="Trazado_1276322" data-name="Trazado 1276322" d="M261,20.382a.846.846,0,1,1-.845-.809.828.828,0,0,1,.845.809" transform="translate(-209.798 -15.666)" fill="#ffd453"/>
        <path id="Trazado_1276323" data-name="Trazado 1276323" d="M299.807,20.348a.845.845,0,1,1-.844-.807.826.826,0,0,1,.844.807" transform="translate(-241.194 -15.64)" fill="#ffb851"/>
        <path id="Trazado_1276324" data-name="Trazado 1276324" d="M55.3,75.106a.618.618,0,0,1-.668-.607l-.01-6.74a1.845,1.845,0,0,0-1.866-1.768H39.3a1.853,1.853,0,0,0-1.868,1.781l-.015,18.382a1.932,1.932,0,0,0,1.873,1.973,14.171,14.171,0,0,0,2.536-.028l-.041-2.811a9.415,9.415,0,0,1-2.095-.109,15.44,15.44,0,0,1-.144-3.2c-.025-.519.313-.8.837-.792l4.743.088a17.651,17.651,0,0,1,.06,3.813,3.8,3.8,0,0,1-2.027.164l-.034,2.894h5.837l-.045-2.9a3.674,3.674,0,0,1-2.047-.159l-.051-3.289a.605.605,0,0,1,.631-.592l4.923.065a16.816,16.816,0,0,1,.052,3.818,4.355,4.355,0,0,1-2.115.179L50.276,88.1c2.158.275,4.329.061,4.334-1.768l.018-6.913a.579.579,0,0,1,.657-.519.545.545,0,0,1,.614.525l-.033,7.141a3.086,3.086,0,0,1-3.125,2.814l-2.451.048.032,4.429a1.637,1.637,0,0,0,1.7,1.494l3-.025a2.64,2.64,0,0,1,1.725-1.671l.009-6.927A2.886,2.886,0,0,1,59.693,83.9l4.941-.025c.491,0,.778.263.793.651a.679.679,0,0,1-.773.634l-4.782-.011a1.686,1.686,0,0,0-1.794,1.6l.073,6.86c.875.578,1.844,1.258,1.76,2.365a2.5,2.5,0,0,1-1.828,2.3l-.027,6.74a1.769,1.769,0,0,0,1.817,1.808l11.654.01c.863,0,1.923-.5,1.924-1.464l.018-18.622A1.656,1.656,0,0,0,71.7,85.149l-1.723-.013a.569.569,0,0,1-.584-.6c.005-.394.3-.671.795-.659l2.015.05a2.8,2.8,0,0,1,2.545,2.622v18.823a2.754,2.754,0,0,1-2.7,2.636l-12.7-.02a2.874,2.874,0,0,1-2.611-2.957l.01-6.72a2.948,2.948,0,0,1-1.726-1.677l-2.99-.027a3.039,3.039,0,0,1-3.075-3.11l.005-4.1-5.84,0-.02,4.463A2.844,2.844,0,0,1,40.214,96.6l-3.19.034A2.866,2.866,0,0,1,35.3,98.313l.01,6.711a2.857,2.857,0,0,1-2.6,2.965l-9.3.082a.868.868,0,0,1-.635-.184.722.722,0,0,1-.166-.5c.053-.216.149-.591.6-.59l8.788.025a1.814,1.814,0,0,0,2-1.817l-.032-6.73a2.463,2.463,0,0,1-1.81-2.315,2.494,2.494,0,0,1,1.822-2.3l.018-6.746a1.732,1.732,0,0,0-1.835-1.773L20.2,85.155a1.621,1.621,0,0,0-1.621,1.584l.05,18.953c.087.412.725.907.165,1.344-.243-.078-.812.1-.985-.206-.122-.219-.491-.575-.491-.977l.006-19.483a2.73,2.73,0,0,1,2.685-2.446l12.508,0a2.845,2.845,0,0,1,2.776,2.794l.033,6.977a2.479,2.479,0,0,1,1.7,1.633l3.163,0a1.609,1.609,0,0,0,1.634-1.643l-.006-4.25L39.6,89.383c-1.462-.034-3.388-.986-3.391-2.662l-.03-19.178a3.09,3.09,0,0,1,3.141-2.805l13.408,0a3.075,3.075,0,0,1,3.152,2.79l.046,6.969a.565.565,0,0,1-.628.611M43.95,82.413l-3.1.006,0,1.667,3.1-.006Zm4.138,1.65H51.21V82.419H48.089ZM35.823,95.97A1.183,1.183,0,1,0,34.64,97.1a1.158,1.158,0,0,0,1.182-1.131m22.777,0A1.184,1.184,0,1,0,57.416,97.1,1.159,1.159,0,0,0,58.6,95.967" transform="translate(-14.009 -51.813)" fill="#090a0a"/>
        <path id="Trazado_1276325" data-name="Trazado 1276325" d="M157.326,244.2c-2.061.57-1.41,2.689-2.445,2.717s-.3-2.1-2.449-2.71a.749.749,0,0,1-.553-.522.575.575,0,0,1,.359-.682c2.295-.521,1.6-2.814,2.646-2.813s.379,2.343,2.647,2.809a.577.577,0,0,1,.357.684.719.719,0,0,1-.56.516m-2.444-1.575-.976.92.971.943.976-.92Z" transform="translate(-122.866 -192.245)" fill="#090a0a"/>
        <path id="Trazado_1276326" data-name="Trazado 1276326" d="M163.535,252.391l.971.943-.976.92-.971-.943Z" transform="translate(-131.519 -202.006)" fill="#eabb20"/>
        <path id="Trazado_1276327" data-name="Trazado 1276327" d="M140.464,80.139l.009,1.26a.677.677,0,0,0-.683.592c-.031.41.282.654.7.662l-.034,1.275a.579.579,0,0,0-.657.519l-.018,6.913c0,1.828-2.176,2.042-4.334,1.768l.033-2.835a4.355,4.355,0,0,0,2.115-.179,16.816,16.816,0,0,0-.052-3.818l-4.923-.065a.605.605,0,0,0-.631.592l.051,3.289a3.674,3.674,0,0,0,2.047.159l.045,2.9h-5.837l.034-2.894a3.793,3.793,0,0,0,2.027-.164,17.649,17.649,0,0,0-.06-3.812l-4.743-.088c-.524-.01-.862.272-.837.792a15.439,15.439,0,0,0,.144,3.2,9.415,9.415,0,0,0,2.095.109l.041,2.811a14.171,14.171,0,0,1-2.536.028,1.932,1.932,0,0,1-1.873-1.973l.015-18.382a1.854,1.854,0,0,1,1.868-1.781h13.452a1.845,1.845,0,0,1,1.867,1.768l.01,6.74a.618.618,0,0,0,.668.607m-12.183-6.368a.6.6,0,0,0-.621-.495l-2.295,0a.606.606,0,0,0-.636.671.648.648,0,0,0,.529.559c1.612.2,3.183.113,3.022-.73m4.67.03a.632.632,0,0,0-.7-.545h-2.119a.641.641,0,0,0-.708.688.612.612,0,0,0,.6.568c1.669.158,3.078.144,2.93-.71m4.7-.03a.612.612,0,0,0-.632-.5l-2.295.005a.592.592,0,0,0-.625.669.615.615,0,0,0,.553.533c1.674.207,3.182.175,3-.709m.016,1.984h-12.95v6.578h12.95Zm-.582,9.126a.62.62,0,0,0,.575-.7.63.63,0,0,0-.652-.512l-11.634,0a.6.6,0,0,0-.643.692.658.658,0,0,0,.645.529Z" transform="translate(-99.177 -56.846)" fill="#ffb851"/>
        <path id="Trazado_1276328" data-name="Trazado 1276328" d="M213.384,124.249c-.417-.008-.729-.252-.7-.662a.677.677,0,0,1,.683-.592.651.651,0,0,1,.59.764c-.013.315-.376.4-.574.49" transform="translate(-172.072 -98.442)" fill="#090a0a"/>
        <rect id="Rectángulo_461562" data-name="Rectángulo 461562" width="3.121" height="1.645" transform="translate(34.08 30.606)" fill="#eabb20"/>
        <rect id="Rectángulo_461563" data-name="Rectángulo 461563" width="3.101" height="1.667" transform="translate(26.84 30.607) rotate(-0.13)" fill="#70bfe5"/>
        <path id="Trazado_1276329" data-name="Trazado 1276329" d="M146.713,101.3h-12.95V94.72h12.95Zm-11.652-1.2h10.355V95.973H135.06Z" transform="translate(-108.222 -75.811)" fill="#090a0a"/>
        <path id="Trazado_1276330" data-name="Trazado 1276330" d="M146.148,135.575l-11.71.011a.658.658,0,0,1-.645-.529.6.6,0,0,1,.643-.692l11.634,0a.63.63,0,0,1,.652.512.62.62,0,0,1-.575.7" transform="translate(-108.239 -107.539)" fill="#090a0a"/>
        <path id="Trazado_1276331" data-name="Trazado 1276331" d="M161.938,82.746c.148.854-1.261.868-2.93.71a.612.612,0,0,1-.6-.568.641.641,0,0,1,.708-.688h2.119a.632.632,0,0,1,.7.545" transform="translate(-128.164 -65.791)" fill="#090a0a"/>
        <path id="Trazado_1276332" data-name="Trazado 1276332" d="M186.429,82.782c.183.884-1.325.916-3,.709a.616.616,0,0,1-.553-.533.592.592,0,0,1,.625-.669l2.3-.005a.612.612,0,0,1,.632.5" transform="translate(-147.954 -65.857)" fill="#090a0a"/>
        <path id="Trazado_1276333" data-name="Trazado 1276333" d="M137.362,82.78c.162.844-1.41.929-3.022.73a.648.648,0,0,1-.529-.559.606.606,0,0,1,.636-.671l2.294,0a.6.6,0,0,1,.621.495" transform="translate(-108.258 -65.855)" fill="#090a0a"/>
        <path id="Trazado_1276334" data-name="Trazado 1276334" d="M140.558,101h10.355v4.124H140.558Zm4.162,2.595a.675.675,0,1,0-.674.645.66.66,0,0,0,.674-.645m1.685,0a.672.672,0,1,0-.671.642.657.657,0,0,0,.671-.642m1.693,0a.675.675,0,1,0-.675.646.661.661,0,0,0,.675-.646" transform="translate(-113.719 -80.835)" fill="#ededed"/>
        <path id="Trazado_1276335" data-name="Trazado 1276335" d="M174.33,111.406a.675.675,0,1,1-.675-.646.661.661,0,0,1,.675.646" transform="translate(-139.95 -88.649)" fill="#090a0a"/>
        <path id="Trazado_1276336" data-name="Trazado 1276336" d="M156.641,111.407a.675.675,0,1,1-.674-.645.66.66,0,0,1,.674.645" transform="translate(-125.64 -88.651)" fill="#090a0a"/>
        <path id="Trazado_1276337" data-name="Trazado 1276337" d="M165.5,111.405a.672.672,0,1,1-.671-.642.657.657,0,0,1,.671.642" transform="translate(-132.809 -88.652)" fill="#090a0a"/>
        <path id="Trazado_1276338" data-name="Trazado 1276338" d="M239.383,163.867a.591.591,0,0,0,.644.6.625.625,0,0,0,.657-.608l1.327.012a.569.569,0,0,0,.584.6l1.723.013a1.656,1.656,0,0,1,1.765,1.593l-.018,18.622c0,.962-1.061,1.464-1.924,1.464l-11.654-.01a1.769,1.769,0,0,1-1.817-1.808l.027-6.74a2.5,2.5,0,0,0,1.829-2.3c.084-1.108-.885-1.787-1.76-2.365l-.073-6.86a1.686,1.686,0,0,1,1.794-1.6l4.782.011a.679.679,0,0,0,.773-.634Zm-6.5,7.954-.032-5.73c0-.405-.52-.609-.8-.528a.667.667,0,0,0-.484.7l.008,5.626a.589.589,0,0,0,.618.64.633.633,0,0,0,.686-.7m8.947-3.956a.732.732,0,0,0,.736-.479c.082-.195.008-.77-.364-.768l-7.749.04c-.3,0-.33.719-.174.875a.941.941,0,0,0,.7.336Zm1.595,1.991-10.092.005,0,6.62,10.092-.005Zm.98,13.928-11.521.009v-5.128c0-.495-.221-.748-.689-.742-.4.006-.631.273-.629.76l.021,5.806c0,.354.355.559.717.559l12.192,0a.645.645,0,0,0,.718-.622c0-.367-.237-.646-.809-.646m-2.4-3.893a.636.636,0,0,0,.591-.593c.027-.178-.063-.627-.394-.627l-7.6.009c-.392,0-.475.538-.377.772a.724.724,0,0,0,.758.438Zm-.177,2.4a.742.742,0,0,0,.744-.466c.086-.2.009-.765-.365-.763l-7.748.031c-.3,0-.332.722-.175.877a.957.957,0,0,0,.7.341Z" transform="translate(-186.625 -131.15)" fill="#6cb9ff"/>
        <path id="Trazado_1276339" data-name="Trazado 1276339" d="M277.6,161.313a.625.625,0,0,1-.657.608.592.592,0,0,1-.644-.6.633.633,0,0,1,.645-.641.652.652,0,0,1,.657.636" transform="translate(-223.539 -128.601)" fill="#090a0a"/>
        <path id="Trazado_1276340" data-name="Trazado 1276340" d="M223.5,216.642a1.184,1.184,0,1,1-1.183-1.132,1.159,1.159,0,0,1,1.183,1.132" transform="translate(-178.907 -172.488)" fill="#ffb851"/>
        <path id="Trazado_1276341" data-name="Trazado 1276341" d="M254.723,193.9l0,6.62-10.092.005,0-6.62Zm-1.315,1.261h-7.469v4.093h7.469Z" transform="translate(-197.92 -155.188)" fill="#090a0a"/>
        <path id="Trazado_1276342" data-name="Trazado 1276342" d="M248.22,240.169c.572,0,.808.279.809.646a.645.645,0,0,1-.718.622l-12.191,0c-.362,0-.716-.205-.717-.559l-.021-5.806c0-.487.227-.754.629-.76.469-.007.689.247.689.742v5.128Z" transform="translate(-190.437 -187.534)" fill="#ededed"/>
        <path id="Trazado_1276343" data-name="Trazado 1276343" d="M256.747,178.922l-6.853,0a.941.941,0,0,1-.7-.336c-.155-.156-.123-.873.175-.875l7.749-.04c.372,0,.446.573.364.768a.732.732,0,0,1-.736.479" transform="translate(-201.538 -142.206)" fill="#090a0a"/>
        <path id="Trazado_1276344" data-name="Trazado 1276344" d="M256.9,239.273h-7.023a.723.723,0,0,1-.758-.438c-.1-.234-.015-.772.377-.772l7.6-.009c.331,0,.421.449.394.627a.636.636,0,0,1-.591.593" transform="translate(-201.518 -190.531)" fill="#090a0a"/>
        <path id="Trazado_1276345" data-name="Trazado 1276345" d="M256.738,251.241l-6.846.02a.957.957,0,0,1-.7-.341c-.158-.155-.123-.876.175-.877l7.748-.031c.374,0,.451.559.365.763a.742.742,0,0,1-.744.466" transform="translate(-201.537 -200.102)" fill="#090a0a"/>
        <path id="Trazado_1276346" data-name="Trazado 1276346" d="M236.716,178.574a.633.633,0,0,1-.686.7.589.589,0,0,1-.618-.64l-.008-5.626a.667.667,0,0,1,.484-.7c.278-.081.8.123.8.528Z" transform="translate(-190.454 -137.903)" fill="#ededed"/>
        <path id="Trazado_1276347" data-name="Trazado 1276347" d="M258.948,204.3h-7.469v-4.093h7.469Zm-4.726-1.479a.68.68,0,1,0-.68.65.665.665,0,0,0,.68-.65m1.694,0a.684.684,0,1,0-.684.654.669.669,0,0,0,.684-.654m1.678-.005a.683.683,0,1,0-.683.653.669.669,0,0,0,.683-.653" transform="translate(-203.46 -160.243)" fill="#ededed"/>
        <path id="Trazado_1276348" data-name="Trazado 1276348" d="M268.927,210.686a.684.684,0,1,1-.684-.654.669.669,0,0,1,.684.654" transform="translate(-216.471 -168.104)" fill="#090a0a"/>
        <path id="Trazado_1276349" data-name="Trazado 1276349" d="M260.087,210.7a.68.68,0,1,1-.68-.65.665.665,0,0,1,.68.65" transform="translate(-209.325 -168.117)" fill="#090a0a"/>
        <path id="Trazado_1276350" data-name="Trazado 1276350" d="M277.724,210.663a.683.683,0,1,1-.683-.653.669.669,0,0,1,.683.653" transform="translate(-223.589 -168.086)" fill="#090a0a"/>
        <path id="Trazado_1276351" data-name="Trazado 1276351" d="M27.949,189.176l-1.336.039a.626.626,0,0,0-.638-.61.644.644,0,0,0-.685.594l-1.157-.37c.56-.438-.077-.932-.165-1.344l-.05-18.953a1.621,1.621,0,0,1,1.621-1.584l11.962-.018a1.732,1.732,0,0,1,1.835,1.773l-.018,6.746a2.5,2.5,0,0,0-1.823,2.3,2.464,2.464,0,0,0,1.81,2.315l.032,6.73a1.814,1.814,0,0,1-2,1.817l-8.788-.025c-.449,0-.546.374-.6.59m8.415-1.669a.718.718,0,0,0,.768-.473c.077-.229.006-.763-.39-.764l-10.693-.019,0-17.525a.657.657,0,0,0-.653-.7.651.651,0,0,0-.664.7l.008,18.222a.621.621,0,0,0,.591.563ZM35.2,170.271a.623.623,0,0,0,.613-.736c-.056-.359-.326-.508-.763-.507l-6.886.007c-.5,0-.784.234-.75.659.027.345.292.592.766.591Zm1.464,2.03-10.09.012.009,6.617,10.091-.012Zm-1.469,10.036a.644.644,0,0,0,.621-.744c-.054-.35-.333-.5-.769-.5l-7.074.015a.569.569,0,0,0-.53.8.7.7,0,0,0,.738.444Zm.074,2.364c.408,0,.519-.393.546-.568s-.064-.63-.406-.631l-7.435-.016a.57.57,0,0,0-.531.792.694.694,0,0,0,.737.446Z" transform="translate(-19.351 -133.605)" fill="#69d7e5"/>
        <path id="Trazado_1276352" data-name="Trazado 1276352" d="M32.424,276.118a.666.666,0,0,1-.641.631c-.47.021-.574-.4-.682-.648a.645.645,0,0,1,.685-.594.626.626,0,0,1,.638.611" transform="translate(-25.162 -220.509)" fill="#090a0a"/>
        <path id="Trazado_1276353" data-name="Trazado 1276353" d="M104.222,216.66a1.183,1.183,0,1,1-1.182-1.131,1.158,1.158,0,0,1,1.182,1.131" transform="translate(-82.409 -172.503)" fill="#ffb851"/>
        <path id="Trazado_1276354" data-name="Trazado 1276354" d="M39.819,191.885l-11.032,0a.621.621,0,0,1-.591-.563L28.188,173.1a.651.651,0,0,1,.664-.7.658.658,0,0,1,.653.7l0,17.525,10.693.019c.4,0,.467.535.39.764a.718.718,0,0,1-.767.473" transform="translate(-22.806 -137.983)" fill="#ededed"/>
        <path id="Trazado_1276355" data-name="Trazado 1276355" d="M47.907,193.84l.009,6.617-10.09.012-.009-6.617Zm-1.3,1.272H39.139v4.093H46.61Z" transform="translate(-30.595 -155.144)" fill="#090a0a"/>
        <path id="Trazado_1276356" data-name="Trazado 1276356" d="M49.962,239.112l-7.013.007a.7.7,0,0,1-.738-.443.569.569,0,0,1,.53-.8l7.074-.015c.436,0,.715.153.769.5a.643.643,0,0,1-.621.744" transform="translate(-34.119 -190.379)" fill="#090a0a"/>
        <path id="Trazado_1276357" data-name="Trazado 1276357" d="M49.989,178.686l-7.021.014c-.474,0-.739-.246-.766-.59-.034-.425.254-.659.751-.659l6.886-.008c.438,0,.707.148.763.507a.622.622,0,0,1-.613.736" transform="translate(-34.141 -142.02)" fill="#090a0a"/>
        <path id="Trazado_1276358" data-name="Trazado 1276358" d="M50.043,251.084l-7.089.024a.694.694,0,0,1-.737-.446.57.57,0,0,1,.531-.792l7.435.016c.342,0,.434.445.406.631s-.138.567-.546.568" transform="translate(-34.127 -199.988)" fill="#090a0a"/>
        <path id="Trazado_1276359" data-name="Trazado 1276359" d="M52.218,204.305H44.747v-4.093h7.471Zm-4.753-1.484a.684.684,0,1,0-.683.654.669.669,0,0,0,.683-.654m1.679.007a.684.684,0,1,0-.683.654.669.669,0,0,0,.683-.654m1.687,0a.681.681,0,1,0-.68.651.666.666,0,0,0,.68-.651" transform="translate(-36.203 -160.244)" fill="#ededed"/>
        <path id="Trazado_1276360" data-name="Trazado 1276360" d="M61.985,210.692a.684.684,0,1,1-.683-.654.669.669,0,0,1,.683.654" transform="translate(-49.043 -168.108)" fill="#090a0a"/>
        <path id="Trazado_1276361" data-name="Trazado 1276361" d="M53.192,210.659a.684.684,0,1,1-.683-.654.669.669,0,0,1,.683.654" transform="translate(-41.929 -168.082)" fill="#090a0a"/>
        <path id="Trazado_1276362" data-name="Trazado 1276362" d="M70.848,210.692a.681.681,0,1,1-.68-.651.666.666,0,0,1,.68.651" transform="translate(-56.219 -168.111)" fill="#090a0a"/>
      </g>
    </g>
  </g>
</svg>
