<svg xmlns="http://www.w3.org/2000/svg" xmlns:xlink="http://www.w3.org/1999/xlink" width="85" height="85" viewBox="0 0 85 85">
  <defs>
    <clipPath id="clip-path">
      <rect id="Rectángulo_461858" data-name="Rectángulo 461858" width="62.064" height="62.048" fill="#19538d"/>
    </clipPath>
  </defs>
  <g id="Grupo_1212408" data-name="Grupo 1212408" transform="translate(-705.629 -410)">
    <path id="Sustracción_110" data-name="Sustracción 110" d="M16060.959,19914.512h0l-50,0-2-4.793h-27l-2,4.793h-4v-85h51.371l2,4.793h27l2-4.793h2.627v85Z" transform="translate(-15270.33 -19419.512)" fill="#ffd470"/>
    <path id="Trazado_998455" data-name="Trazado 998455" d="M-3,0H20l3,7H0Z" transform="translate(766.629 410)" fill="#19538d"/>
    <g id="Grupo_1212409" data-name="Grupo 1212409" transform="translate(716.629 421)">
      <g id="Grupo_1212201" data-name="Grupo 1212201" clip-path="url(#clip-path)">
        <path id="Trazado_1277195" data-name="Trazado 1277195" d="M.008,47.007,0,37.326a1.364,1.364,0,0,1,1.422-1.431l7.482,0,.009-6.947a3.287,3.287,0,0,1,3.223-3.266l10.086-.024,0-3.048a6.564,6.564,0,0,1-6.6-2.539,5.119,5.119,0,0,1-6.091.02,5.21,5.21,0,0,1,2.6-9.44c-.057-2.123.467-4.8,1.97-4.452a.9.9,0,0,1,.487,1.237c-1.276,2.441-.122,3.64-.618,4.475a1.359,1.359,0,0,1-1.143.53,3.407,3.407,0,0,0-3.408,2.074,3.467,3.467,0,0,0,1.1,4.05,3.317,3.317,0,0,0,4.2-.128,1.8,1.8,0,0,1,1.175-.5,1.6,1.6,0,0,1,1.057.834,4.7,4.7,0,0,0,5.266,1.978l.005-6.212c0-.382.474-.769.819-.814.293-.039.958.351.961.661l.044,5.33a3.35,3.35,0,0,1,1.168-.829c1.071-.3,1.952,2.974,5.979,2.873a5.9,5.9,0,0,0,4.673-2.466c.176-.237.885-.557,1.114-.382l1.048.8,0-6.048-2.449,2.372a1.08,1.08,0,0,1-1.3-.088,1.049,1.049,0,0,1,.094-1.319L38.03,11.16a.991.991,0,0,1,1.436.024l4.056,3.444a1.01,1.01,0,0,1,.23,1.112.969.969,0,0,1-1.32.339l-2.583-2.135-.008,6.806a4.735,4.735,0,0,0,5.272-1.982,1.809,1.809,0,0,1,.9-.812,1.728,1.728,0,0,1,1.329.475,3.321,3.321,0,0,0,4.2.125,3.421,3.421,0,0,0-2.507-6.119,1.3,1.3,0,0,1-.95-.537,1.8,1.8,0,0,1-.1-1.081,4.693,4.693,0,0,0-2.508-5.244,4.767,4.767,0,0,0-5.85,1.317,1.424,1.424,0,0,1-1.055.492,1.448,1.448,0,0,1-.933-.753,6.735,6.735,0,0,0-5.608-4.746,6.845,6.845,0,0,0-7.615,4.737,1.406,1.406,0,0,1-.933.756A1.49,1.49,0,0,1,22.44,6.9a4.765,4.765,0,0,0-5.092-1.627.954.954,0,0,1-1.214-.59c-.463-1.864,4.531-2.081,6.959.283a8.832,8.832,0,0,1,15.883-.006A6.5,6.5,0,0,1,46.5,4.05a6.673,6.673,0,0,1,3.417,6.592,5.215,5.215,0,0,1,2.626,9.446,5.119,5.119,0,0,1-6.091-.02,6.572,6.572,0,0,1-6.6,2.537v3.054l6.652.01a3.528,3.528,0,0,1,3.649-3.425l8.192,0a3.534,3.534,0,0,1,3.728,3.531l-.006,13.507a3.514,3.514,0,0,1-3.531,3.435l-5.366,0,0,9.02a5.136,5.136,0,0,1-.317,1.415h2.144c.831,0,1.936.627,1.94,1.585l.015,3.951a3.463,3.463,0,0,1-3.41,3.327l-7.847.034a1.145,1.145,0,0,1-.993-.674c-.121-.4.148-1.133.632-1.135l8.178-.034a1.738,1.738,0,0,0,1.609-1.53L55.129,55h-17.7L37.3,56.856c-.063.926-1.194,1.6-2.091,1.6H26.855c-.9,0-2.032-.666-2.094-1.6L24.639,55H6.936l.029,3.651a1.767,1.767,0,0,0,1.951,1.573l32.142,0c.676,0,1.059.259,1.1.843a.93.93,0,0,1-.928.975H8.735a3.488,3.488,0,0,1-3.608-3.359l.013-3.937c0-.966,1.106-1.588,1.939-1.588H9.222a5.385,5.385,0,0,1-.312-1.392L8.9,48.363l-7.48,0A1.38,1.38,0,0,1,.008,47.007M38.038,25.66l-.008-3.732-1.3-.809a7.856,7.856,0,0,1-11.437-.028l-1.263.86.027,3.719ZM48.317,39.24A1.686,1.686,0,0,0,49.8,40.877l8.713.013a1.749,1.749,0,0,0,1.756-1.8l-.005-13.306a1.7,1.7,0,0,0-1.744-1.708l-8.555.007a1.607,1.607,0,0,0-1.638,1.5l-.019,6.565a1.671,1.671,0,0,1-.487,1.035l-2.525,1.63,1.945.462a1.354,1.354,0,0,1,1.072,1.332Zm-35.76-8.8a1.216,1.216,0,0,1,1.136-1.133l8.527,0,0-1.8-10.3.026c-.671,0-1.177.869-1.178,1.446l0,6.915,1.815-.033Zm25.478-2.95h-14v1.824h14Zm8.461,0H39.841v1.824H46.5ZM39.852,31.1l-.035,4.47c0,.36-.816.639-1.126.541a1.056,1.056,0,0,1-.663-1.074l.008-3.935H24.028l.015,5.035,2.537-2.317a.965.965,0,0,1,1.261.149,1.076,1.076,0,0,1-.2,1.284L24,38.764a1.043,1.043,0,0,1-1.143.118l-4.259-3.622a.978.978,0,0,1-.179-1.325,1.02,1.02,0,0,1,1.249-.133l2.555,2.126.008-4.832-7.865,0-.014,4.681c1.2.114,2.51.155,2.508,1.409l-.015,9.88c0,1.116-1.283,1.526-2.338,1.22a3.721,3.721,0,0,0-.121,1.265l33.324,0V41.921a3.965,3.965,0,0,1-1.2-2.709l-.026-2.233-3.009-.69c-.385-.088-.763-.819-.758-1.2a1.586,1.586,0,0,1,.744-1.265l2.819-1.8a.977.977,0,0,0,.13-.924Zm-24.814,6.6-13.242,0,0,8.872,13.242,0ZM10.723,48.362l.022,3.347a1.461,1.461,0,0,0,1.381,1.447H49.941a1.469,1.469,0,0,0,1.387-1.461l.007-8.963-1.815-.013-.01,7.41a1.252,1.252,0,0,1-1.346,1.238H13.9a1.231,1.231,0,0,1-1.33-1.239l-.048-1.773ZM26.492,56.58h9.083V55.019H26.492Z" transform="translate(0 0)" fill="#19538d"/>
        <path id="Trazado_1277196" data-name="Trazado 1277196" d="M66.162,320.464l-1.937.088a1.05,1.05,0,0,1-.984-.829,1.027,1.027,0,0,1,.791-.975l1.731-.033a1.225,1.225,0,0,1,.922.7c.1.282-.216,1.033-.522,1.047" transform="translate(-51.994 -262.04)" fill="#19538d"/>
        <path id="Trazado_1277197" data-name="Trazado 1277197" d="M94.2,319.489c.135,1.059-1.334,1.134-2.982.9-.217-.031-.455-.531-.474-.742-.022-.246.225-.853.49-.888,1.539-.208,2.841-.246,2.966.734" transform="translate(-74.604 -261.973)" fill="#19538d"/>
        <path id="Trazado_1277198" data-name="Trazado 1277198" d="M177.687,256.316l-11.647.006a.97.97,0,0,1-1.062-.8c-.076-.667.379-1.035,1.067-1.035h11.561c.6,0,1.051.319,1.074.858a.93.93,0,0,1-.993.973" transform="translate(-135.634 -209.232)" fill="#19538d"/>
        <path id="Trazado_1277199" data-name="Trazado 1277199" d="M177.881,238.4l-11.814.013A.949.949,0,0,1,165,237.6c-.042-.661.379-1.027,1.064-1.027l11.568,0a1,1,0,0,1,1.048.7.9.9,0,0,1-.8,1.12" transform="translate(-135.658 -194.505)" fill="#19538d"/>
        <path id="Trazado_1277200" data-name="Trazado 1277200" d="M168.861,220.6l-3.049.008a.932.932,0,0,1-.866-.984.945.945,0,0,1,1.072-.826l3.027.052c.282,0,.6.663.574.938s-.477.813-.758.814" transform="translate(-135.611 -179.889)" fill="#19538d"/>
        <path id="Trazado_1277201" data-name="Trazado 1277201" d="M291.643,195.08l-4.85.009a1.067,1.067,0,0,1-.931-.934.969.969,0,0,1,.928-.915l4.8-.006a.961.961,0,0,1,.981.8.982.982,0,0,1-.926,1.049" transform="translate(-235.028 -158.873)" fill="#19538d"/>
        <path id="Trazado_1277202" data-name="Trazado 1277202" d="M291.848,178.623l-5.428-.017c-.343,0-.645-.7-.6-.974a1.091,1.091,0,0,1,.889-.81l5.053,0c.325,0,.726.52.766.808s-.312.993-.678.992" transform="translate(-234.989 -145.378)" fill="#19538d"/>
        <path id="Trazado_1277203" data-name="Trazado 1277203" d="M289.151,162.335l-2.39.006a1.255,1.255,0,0,1-.832-.659c-.119-.309.15-1.077.508-1.105a18.256,18.256,0,0,1,3.238.011c.312.028.548.8.451,1.083a1.2,1.2,0,0,1-.975.665" transform="translate(-235.06 -131.967)" fill="#19538d"/>
        <path id="Trazado_1277204" data-name="Trazado 1277204" d="M28.988,241.725l-6.368.008a.921.921,0,0,1-.918-.822.876.876,0,0,1,.939-.969l6.248-.008a.9.9,0,1,1,.1,1.79" transform="translate(-17.841 -197.268)" fill="#19538d"/>
        <path id="Trazado_1277205" data-name="Trazado 1277205" d="M25.968,225.5l-3.377.039a1.171,1.171,0,0,1-.879-.655c-.1-.334.169-1.141.545-1.143l3.778-.022c.293,0,.645.568.661.831.018.3-.418.945-.73.949" transform="translate(-17.833 -183.938)" fill="#19538d"/>
      </g>
    </g>
  </g>
</svg>
