<svg xmlns="http://www.w3.org/2000/svg" xmlns:xlink="http://www.w3.org/1999/xlink" width="84" height="84" viewBox="0 0 84 84">
  <defs>
    <clipPath id="clip-path">
      <rect id="Rectángulo_461871" data-name="Rectángulo 461871" width="73" height="71.512" fill="#344866"/>
    </clipPath>
  </defs>
  <g id="Grupo_1212236" data-name="Grupo 1212236" transform="translate(-289.711 -7239)">
    <g id="Grupo_1210217" data-name="Grupo 1210217" transform="translate(290.578 7239.168)">
      <g id="Grupo_1119665" data-name="Grupo 1119665" transform="translate(-0.867 -0.168)">
        <rect id="Rectángulo_402006" data-name="Rectángulo 402006" width="84" height="84" rx="5" fill="#a4e7f0"/>
      </g>
      <g id="Grupo_1212215" data-name="Grupo 1212215" transform="translate(5.133 5.832)">
        <g id="Grupo_1212214" data-name="Grupo 1212214" clip-path="url(#clip-path)">
          <path id="Trazado_1277279" data-name="Trazado 1277279" d="M53.107,71.491l-32.9.021a4.168,4.168,0,0,1-4.425-4.265c.055-2.431,2.116-4.033,4.616-4.025l3.832.012a29.38,29.38,0,0,0,2.042-10.343L5.487,52.822C2.533,52.812,0,49.927,0,47V5.879A5.953,5.953,0,0,1,5.733,0L68.74.008C71.223.008,72.995,2.5,73,4.766L73,46.6c0,3.091-2.26,6.21-5.535,6.222l-20.9.073a28.067,28.067,0,0,0,2.181,10.333l4.493.051a4.109,4.109,0,0,1-.132,8.215M26.989,4.958a2.263,2.263,0,0,1,2.136,2.291,3.51,3.51,0,0,0,1.954,3.178,3.356,3.356,0,0,0,3.814-.506,2.457,2.457,0,0,1,3.478-.238l3.124,3.111a2.355,2.355,0,0,1-.094,3.194,3.47,3.47,0,0,0-.729,3.977,3.546,3.546,0,0,0,3.269,2.055,2.348,2.348,0,0,1,2.28,2.407v4.026a2.359,2.359,0,0,1-2.3,2.382,3.518,3.518,0,0,0-2.4,6.14,2.619,2.619,0,0,1-.647,3.754l30.044,0,0-35.965A2.681,2.681,0,0,0,68.255,2l-62.264,0A4.038,4.038,0,0,0,2.058,6.26l0,34.477L8.5,40.723C7.138,39.445,6.95,37.98,8.109,36.74a3.4,3.4,0,0,0,.646-3.825A3.549,3.549,0,0,0,5.5,30.842a2.346,2.346,0,0,1-2.284-2.171L3.208,24.2a2.315,2.315,0,0,1,2.284-2.184,3.558,3.558,0,0,0,3.256-2.076,3.287,3.287,0,0,0-.534-3.691,2.458,2.458,0,0,1-.268-3.469l3.126-3.124a2.3,2.3,0,0,1,3.1,0,3.548,3.548,0,0,0,3.9.878,3.508,3.508,0,0,0,2.2-3.164,2.329,2.329,0,0,1,2.289-2.436Zm.1,40.85a5.408,5.408,0,0,1,3.433-5.392A5.6,5.6,0,0,1,36.8,41.794l3.286-3.3a5.615,5.615,0,0,1,4.063-9.739V24.1a5.63,5.63,0,0,1-5.4-3.361,5.552,5.552,0,0,1,1.326-6.388L36.787,11.04a5.6,5.6,0,0,1-9.733-4.045l-4.709.018a5.474,5.474,0,0,1-3.463,5.421,5.579,5.579,0,0,1-6.257-1.38L9.338,14.349A5.628,5.628,0,0,1,5.273,24.1v4.656a5.635,5.635,0,0,1,4.058,9.774l3.332,3.249a5.54,5.54,0,0,1,6.544-1.23,5.63,5.63,0,0,1,3.175,5.332Zm43.791-3.037H38.815a2.448,2.448,0,0,1-3.542.423,3.678,3.678,0,0,0-4.075-.819,3.632,3.632,0,0,0-2.111,3.431,2.326,2.326,0,0,1-2.4,2.123l-3.922.007a2.388,2.388,0,0,1-2.488-2.445,3.423,3.423,0,0,0-2.051-3.108,3.481,3.481,0,0,0-3.808.62,2.492,2.492,0,0,1-3.788-.234l-8.577,0,.026,4.114a3.978,3.978,0,0,0,3.8,3.95H67.1a3.969,3.969,0,0,0,3.8-3.951Zm-24.4,20.472A32.553,32.553,0,0,1,44.481,52.9l-16.158-.009a32.757,32.757,0,0,1-1.859,10.372Zm6.754,6.2a2.057,2.057,0,0,0,1.866-2.165,2.033,2.033,0,0,0-2.123-1.962l-33.212.006A2.019,2.019,0,0,0,17.881,67.6a2.084,2.084,0,0,0,2.132,1.854Z" fill="#344866"/>
          <path id="Trazado_1277280" data-name="Trazado 1277280" d="M294.875,74.838a1.145,1.145,0,0,1-.818,1.213,1.046,1.046,0,0,1-1.21-.881l0-13.19a3.338,3.338,0,0,1-2.33-3.137,3.229,3.229,0,0,1,2.305-3.255l.024-2.732a1.179,1.179,0,0,1,.8-1.034c.493-.091,1.194.323,1.2.823l.051,2.943a3.255,3.255,0,0,1,2.3,3.256,3.356,3.356,0,0,1-2.334,3.135Zm.266-16.076a1.288,1.288,0,1,0-1.288,1.288,1.288,1.288,0,0,0,1.288-1.288" transform="translate(-227.781 -40.621)" fill="#344866"/>
          <path id="Trazado_1277281" data-name="Trazado 1277281" d="M260.728,74.968a1.058,1.058,0,0,1-1,1.08,1.11,1.11,0,0,1-1.042-1.072l.012-2.4a3.453,3.453,0,0,1-2.336-3.168,3.347,3.347,0,0,1,2.332-3.27V52.879a1.217,1.217,0,0,1,.821-1.082c.332-.081,1.192.268,1.192.683l.028,13.664a3.383,3.383,0,0,1-.006,6.427ZM261,69.356a1.287,1.287,0,1,0-1.287,1.287A1.287,1.287,0,0,0,261,69.356" transform="translate(-201 -40.603)" fill="#344866"/>
          <path id="Trazado_1277282" data-name="Trazado 1277282" d="M226.622,75.051a1.016,1.016,0,0,1-.98,1.012,1.075,1.075,0,0,1-1.055-1.116l0-12.991a3.36,3.36,0,0,1-2.327-3.111,3.252,3.252,0,0,1,2.322-3.253l0-2.752a1.267,1.267,0,0,1,.85-1.023,1.017,1.017,0,0,1,1.168.833l.061,2.939a3.22,3.22,0,0,1,2.292,3.242,3.326,3.326,0,0,1-2.331,3.147Zm.278-16.288a1.289,1.289,0,1,0-1.289,1.289,1.289,1.289,0,0,0,1.289-1.289" transform="translate(-174.262 -40.617)" fill="#344866"/>
          <path id="Trazado_1277283" data-name="Trazado 1277283" d="M157.887,214.12l-5.5.024a1.433,1.433,0,0,1-1.085-.762c-.139-.412.19-1.3.68-1.3l5.827-.035a1.062,1.062,0,0,1,1.11.948,1.133,1.133,0,0,1-1.035,1.129" transform="translate(-118.607 -166.255)" fill="#344866"/>
          <path id="Trazado_1277284" data-name="Trazado 1277284" d="M80.535,75.6a12.88,12.88,0,1,1-12.88-12.88A12.88,12.88,0,0,1,80.535,75.6m-2.071,0a10.81,10.81,0,1,0-10.81,10.81A10.81,10.81,0,0,0,78.464,75.6" transform="translate(-42.948 -49.179)" fill="#344866"/>
          <path id="Trazado_1277285" data-name="Trazado 1277285" d="M73.069,109.458a1.287,1.287,0,0,1,.252,1.388c-.188.295-1.009.6-1.327.378l-4.8-3.344a1.28,1.28,0,0,1-.412-.787,1.688,1.688,0,0,1,.471-.857l4.736-3.28a1.254,1.254,0,0,1,1.334.377,1.321,1.321,0,0,1-.35,1.459l-3.307,2.292Z" transform="translate(-52.364 -80.66)" fill="#344866"/>
          <path id="Trazado_1277286" data-name="Trazado 1277286" d="M132.966,111.084a1.253,1.253,0,0,1-1.416-.1,1.215,1.215,0,0,1,.089-1.514l3.429-2.4-3.279-2.3a1.356,1.356,0,0,1-.428-1.321,1.134,1.134,0,0,1,1.419-.495l4.713,3.258a1.473,1.473,0,0,1,.447.866,1.491,1.491,0,0,1-.456.832Z" transform="translate(-102.967 -80.647)" fill="#344866"/>
          <path id="Trazado_1277287" data-name="Trazado 1277287" d="M101.887,110.805a1.107,1.107,0,0,1-1.555.447,1.2,1.2,0,0,1-.263-1.473l4.188-6.225a1.174,1.174,0,0,1,1.528-.366,1.152,1.152,0,0,1,.239,1.461Z" transform="translate(-78.343 -80.789)" fill="#344866"/>
        </g>
      </g>
    </g>
  </g>
</svg>
