<svg xmlns="http://www.w3.org/2000/svg" xmlns:xlink="http://www.w3.org/1999/xlink" width="149.854" height="59.655" viewBox="0 0 149.854 59.655">
  <defs>
    <clipPath id="clip-path">
      <rect id="Rectángulo_461142" data-name="Rectángulo 461142" width="52.261" height="52.255" fill="#fff"/>
    </clipPath>
  </defs>
  <g id="Grupo_1212237" data-name="Grupo 1212237" transform="translate(-1174.961 -500.845)">
    <path id="Trazado_998133" data-name="Trazado 998133" d="M49.7-29.171h105.16L110.165,18.695H5Z" transform="translate(1169.956 541.806)" fill="#19538d"/>
    <g id="Grupo_1212238" data-name="Grupo 1212238" transform="translate(1222.961 500.845)">
      <g id="Grupo_1211734" data-name="Grupo 1211734" clip-path="url(#clip-path)">
        <path id="Trazado_1275212" data-name="Trazado 1275212" d="M42.405,50.621l-8.352-8.31c-.78-.776-.61-2.179.613-3.128l-2.1-2.076a20.59,20.59,0,1,1,4.539-4.54l2.113,2.1A2.812,2.812,0,0,1,40.723,33.6a2.042,2.042,0,0,1,1.68.535l8.332,8.4a5.808,5.808,0,0,1-8.33,8.083m-5.094-30.1A16.791,16.791,0,1,0,20.521,37.312,16.791,16.791,0,0,0,37.311,20.521" transform="translate(0.001 0)" fill="#fff"/>
        <path id="Trazado_1275213" data-name="Trazado 1275213" d="M50.36,76.558a.955.955,0,0,0,1.03-.938,1,1,0,0,0-.948-.936H48.558l0-1.853,6.684-.014a3.566,3.566,0,0,0,3.531-3.276l.018-8.24a3.548,3.548,0,0,0-3.4-3.352L53.2,57.875l.226-.7,3.485-3.441.056-1.879a14.916,14.916,0,1,1-18.681.044l.085,1.752,3.389,3.37a1.658,1.658,0,0,1,.307.88l-1.753-.005a3.777,3.777,0,0,0-3.864,3.772l.011,7.517A3.667,3.667,0,0,0,39.967,72.8l6.734.037v1.838l-1.945.019a1.073,1.073,0,0,0-.839.91.99.99,0,0,0,1.014.951Z" transform="translate(-27.126 -42.984)" fill="#fff"/>
        <path id="Trazado_1275214" data-name="Trazado 1275214" d="M82.313,109.392,67,109.381a1.93,1.93,0,0,1-1.692-1.77l0-7.682a1.866,1.866,0,0,1,1.867-1.721l15.2.012a1.816,1.816,0,0,1,1.584,1.671l.005,7.726a1.8,1.8,0,0,1-1.662,1.775" transform="translate(-54.14 -81.408)" fill="#fff"/>
        <path id="Trazado_1275215" data-name="Trazado 1275215" d="M128.283,40.788c-.229.231-.176,1.107-.157,1.478l-2.839.006V32.994a15.117,15.117,0,0,1,6.521,1.938l.042,2.258Z" transform="translate(-103.854 -27.35)" fill="#fff"/>
        <path id="Trazado_1275216" data-name="Trazado 1275216" d="M79.911,42.219,79.75,40.8l-3.628-3.614-.042-2.229a14.859,14.859,0,0,1,6.558-2.032l0,9.278Z" transform="translate(-63.065 -27.29)" fill="#fff"/>
      </g>
    </g>
  </g>
</svg>
