<svg xmlns="http://www.w3.org/2000/svg" xmlns:xlink="http://www.w3.org/1999/xlink" width="128" height="128" viewBox="0 0 128 128">
  <defs>
    <clipPath id="clip-path">
      <rect id="Rectángulo_455533" data-name="Rectángulo 455533" width="128" height="122.776" fill="#19538d"/>
    </clipPath>
    <clipPath id="clip-path-2">
      <rect id="Rectángulo_461976" data-name="Rectángulo 461976" width="61.934" height="62.117" fill="#19538d"/>
    </clipPath>
  </defs>
  <g id="Grupo_1212352" data-name="Grupo 1212352" transform="translate(-383.746 -8399)">
    <circle id="Elipse_13674" data-name="Elipse 13674" cx="54.5" cy="54.5" r="54.5" transform="translate(392.746 8409)" fill="#fff"/>
    <g id="Grupo_1179062" data-name="Grupo 1179062" transform="translate(272)">
      <rect id="Rectángulo_455531" data-name="Rectángulo 455531" width="128" height="128" transform="translate(111.746 8399)" fill="none"/>
      <g id="Grupo_1179061" data-name="Grupo 1179061" transform="translate(111.746 8402)">
        <path id="Trazado_998445" data-name="Trazado 998445" d="M120.883,97.46H96.727L100,91.354h24.156Z" fill="#62249e"/>
        <path id="Trazado_998446" data-name="Trazado 998446" d="M1.985,86.893,0,90.934H26.632l1.986-4.041Z" fill="#19538d"/>
        <path id="Trazado_998447" data-name="Trazado 998447" d="M124.314,32.5H98.809l2-4.529h25.505Z" fill="#19538d"/>
        <path id="Trazado_998448" data-name="Trazado 998448" d="M36.988,12.75H3.483l2-4.529h33.5Z" fill="#19538d"/>
        <g id="Grupo_1179060" data-name="Grupo 1179060">
          <g id="Grupo_1179059" data-name="Grupo 1179059" clip-path="url(#clip-path)">
            <path id="Trazado_998449" data-name="Trazado 998449" d="M64,115.717a54.31,54.31,0,0,1-52.948-66.48H3.82A61.384,61.384,0,0,0,111.812,99.874h-9.469A54.154,54.154,0,0,1,64,115.717" fill="#19538d"/>
            <path id="Trazado_998450" data-name="Trazado 998450" d="M110.835,88.914h8.033c.645-1.284,1.231-2.6,1.787-3.934h-7.723c-.649,1.342-1.344,2.656-2.1,3.934" fill="#19538d"/>
            <path id="Trazado_998451" data-name="Trazado 998451" d="M125.388,61.388A61.4,61.4,0,0,0,5.373,43.131h7.452A54.33,54.33,0,1,1,114.406,81.649h7.526a61.118,61.118,0,0,0,3.456-20.261" fill="#19538d"/>
            <path id="Trazado_998452" data-name="Trazado 998452" d="M108.562,81.649V84.98h4.37q.792-1.637,1.475-3.331Z" fill="#19538d"/>
            <path id="Trazado_998453" data-name="Trazado 998453" d="M128,81.649h-6.068q-.592,1.689-1.277,3.331H128Z" fill="#19538d"/>
          </g>
        </g>
        <path id="Trazado_998444" data-name="Trazado 998444" d="M3,37.025,0,43.131H18.134l3-6.106Z" fill="#62249e"/>
      </g>
    </g>
    <g id="Grupo_1177669" data-name="Grupo 1177669" transform="translate(413.49 8428.729)">
      <g id="Grupo_1099618" data-name="Grupo 1099618" transform="translate(0.256 0.271)">
        <rect id="Rectángulo_401104" data-name="Rectángulo 401104" width="68.18" height="69.001" transform="translate(0)" fill="none"/>
      </g>
      <g id="Grupo_1212457" data-name="Grupo 1212457" transform="translate(3.256 3.271)">
        <g id="Grupo_1212456" data-name="Grupo 1212456" clip-path="url(#clip-path-2)">
          <path id="Trazado_1277646" data-name="Trazado 1277646" d="M115.3,111.72a1.575,1.575,0,0,1,.229.919l-.086,19.864a63.659,63.659,0,0,1-15.968,11.91,1.212,1.212,0,0,1-.892,0,32.651,32.651,0,0,1-4.285-2.423,63.187,63.187,0,0,1-11.674-9.319l0-20.814c1.805-1.035,3.841-1.74,5.676-2.792,4.043-2.319,7.2-5.516,10.3-8.941a.714.714,0,0,1,.57-.06c.729.144,3.134,3.275,3.919,4.037a36.917,36.917,0,0,0,7.322,5.38c.838.462,4.631,1.968,4.9,2.245M100,103.913v6.527c-.681-.091-1.6.253-2.117-.265V104.09a42.14,42.14,0,0,1-13.322,9.171L84.466,131a1.021,1.021,0,0,0,.177.7,36.139,36.139,0,0,0,4.336,3.955,68.469,68.469,0,0,0,8.9,6v-4.146c.512-.517,1.436-.173,2.117-.265v4.41a59.179,59.179,0,0,0,13.316-9.882l.067-18.673a37.65,37.65,0,0,1-13.384-9.2" transform="translate(-68.048 -82.381)" fill="#19538d"/>
          <path id="Trazado_1277647" data-name="Trazado 1277647" d="M233.382.175a1.355,1.355,0,0,1,1.176.7L244.669,21.1a1.137,1.137,0,0,1-.343,1.671H222.711l-.569-1L232.808.5Zm8.693,20.612L233.518,3.679l-8.556,17.109Z" transform="translate(-182.953 -0.137)" fill="#19538d"/>
          <path id="Trazado_1277648" data-name="Trazado 1277648" d="M11.091.116a1.019,1.019,0,0,1,1.142.551L22.466,21.13a1.181,1.181,0,0,1-.4,1.624H.556A1.063,1.063,0,0,1,.008,21.7L10.393.667a.993.993,0,0,1,.7-.551M2.669,20.729H19.958L11.227,3.615Z" transform="translate(0 -0.079)" fill="#19538d"/>
          <path id="Trazado_1277649" data-name="Trazado 1277649" d="M160.213,4.139A4.139,4.139,0,1,1,156.074,0a4.139,4.139,0,0,1,4.139,4.139m-2.058.007a2.064,2.064,0,1,0-2.064,2.064,2.064,2.064,0,0,0,2.064-2.064" transform="translate(-125.131)" fill="#19538d"/>
          <rect id="Rectángulo_461959" data-name="Rectángulo 461959" width="2.123" height="2.123" transform="translate(17.485 57.871)" fill="#19538d"/>
          <rect id="Rectángulo_461960" data-name="Rectángulo 461960" width="2.123" height="2.123" transform="translate(54.708 57.871)" fill="#19538d"/>
          <rect id="Rectángulo_461961" data-name="Rectángulo 461961" width="2.123" height="2.123" transform="translate(54.708 49.58)" fill="#19538d"/>
          <rect id="Rectángulo_461962" data-name="Rectángulo 461962" width="2.123" height="2.123" transform="translate(5.135 49.58)" fill="#19538d"/>
          <rect id="Rectángulo_461963" data-name="Rectángulo 461963" width="2.123" height="2.123" transform="translate(46.417 57.871)" fill="#19538d"/>
          <path id="Trazado_1277650" data-name="Trazado 1277650" d="M31.241,189.076H29.122v-2.119c.459.073,1.8-.176,2.041.166Z" transform="translate(-23.984 -153.958)" fill="#19538d"/>
          <path id="Trazado_1277651" data-name="Trazado 1277651" d="M312.241,189.076h-2.119v-2.119c.459.073,1.8-.176,2.041.166Z" transform="translate(-255.411 -153.958)" fill="#19538d"/>
          <path id="Trazado_1277652" data-name="Trazado 1277652" d="M31.241,164.05,31.163,166c-.238.342-1.582.093-2.041.166V164.05Z" transform="translate(-23.984 -135.109)" fill="#19538d"/>
          <path id="Trazado_1277653" data-name="Trazado 1277653" d="M31.241,211.05,31.163,213c-.238.342-1.582.093-2.041.166V211.05Z" transform="translate(-23.984 -173.817)" fill="#19538d"/>
          <path id="Trazado_1277654" data-name="Trazado 1277654" d="M312.241,211.05,312.163,213c-.238.342-1.582.093-2.041.166V211.05Z" transform="translate(-255.411 -173.817)" fill="#19538d"/>
          <path id="Trazado_1277655" data-name="Trazado 1277655" d="M31.241,236.076H29.122v-2.119c.459.073,1.8-.176,2.041.166Z" transform="translate(-23.984 -192.667)" fill="#19538d"/>
          <path id="Trazado_1277656" data-name="Trazado 1277656" d="M312.241,236.169h-2.119V234.05l1.953.078c.342.238.093,1.582.166,2.041" transform="translate(-255.411 -192.76)" fill="#19538d"/>
          <path id="Trazado_1277657" data-name="Trazado 1277657" d="M31.241,328.05,31.163,330c-.238.342-1.582.093-2.041.166V328.05Z" transform="translate(-23.984 -270.177)" fill="#19538d"/>
          <path id="Trazado_1277658" data-name="Trazado 1277658" d="M54.241,328.05v2.119c-.459-.073-1.8.176-2.041-.166l-.078-1.953Z" transform="translate(-42.927 -270.177)" fill="#19538d"/>
          <path id="Trazado_1277659" data-name="Trazado 1277659" d="M78.241,328.05,78.163,330c-.238.342-1.582.093-2.041.166V328.05Z" transform="translate(-62.693 -270.177)" fill="#19538d"/>
          <path id="Trazado_1277660" data-name="Trazado 1277660" d="M312.241,164.05,312.163,166c-.238.342-1.582.093-2.041.166V164.05Z" transform="translate(-255.411 -135.109)" fill="#19538d"/>
          <path id="Trazado_1277661" data-name="Trazado 1277661" d="M288.148,328.05v2.119l-1.953-.078c-.342-.238-.093-1.582-.166-2.041Z" transform="translate(-235.552 -270.177)" fill="#19538d"/>
          <path id="Trazado_1277662" data-name="Trazado 1277662" d="M312.241,142.532h-2.119l.078-1.953,1.875-.088Z" transform="translate(-255.412 -115.706)" fill="#19538d"/>
          <path id="Trazado_1277663" data-name="Trazado 1277663" d="M31.241,142.532H29.122l.078-1.953,1.875-.088Z" transform="translate(-23.985 -115.706)" fill="#19538d"/>
          <rect id="Rectángulo_461964" data-name="Rectángulo 461964" width="2.123" height="1.947" transform="translate(41.301 3.182)" fill="#19538d"/>
          <rect id="Rectángulo_461965" data-name="Rectángulo 461965" width="2.123" height="1.947" transform="translate(37.067 3.182)" fill="#19538d"/>
          <rect id="Rectángulo_461966" data-name="Rectángulo 461966" width="2.123" height="1.947" transform="translate(54.708 53.814)" fill="#19538d"/>
          <rect id="Rectángulo_461967" data-name="Rectángulo 461967" width="2.123" height="1.947" transform="translate(22.601 3.182)" fill="#19538d"/>
          <rect id="Rectángulo_461968" data-name="Rectángulo 461968" width="2.123" height="1.947" transform="translate(5.135 45.522)" fill="#19538d"/>
          <rect id="Rectángulo_461969" data-name="Rectángulo 461969" width="2.123" height="1.947" transform="translate(54.708 45.522)" fill="#19538d"/>
          <rect id="Rectángulo_461970" data-name="Rectángulo 461970" width="2.123" height="1.947" transform="translate(18.543 3.182)" fill="#19538d"/>
          <rect id="Rectángulo_461971" data-name="Rectángulo 461971" width="1.947" height="2.123" transform="translate(42.359 57.871)" fill="#19538d"/>
          <rect id="Rectángulo_461972" data-name="Rectángulo 461972" width="2.123" height="1.947" transform="translate(5.135 53.814)" fill="#19538d"/>
          <path id="Trazado_1277664" data-name="Trazado 1277664" d="M124.819,170.194c.349.381.487,2.005.87,2.263.812.545,1.922-.926,2.885-.65.747.215,3.217,2.72,3.168,3.533-.042.707-1.116,1.715-.708,2.437.268.474,2.162.459,2.521,1.235a18.992,18.992,0,0,1,.126,4.1c-.214,1.134-2.1,1-2.55,1.509-.683.783.887,1.922.538,3a10.168,10.168,0,0,1-2.682,2.789c-1.331.669-1.869-.553-2.94-.467-.951.077-.651,2.279-1.66,2.572a23.175,23.175,0,0,1-4.163-.006c-.981-.19-.891-2.144-1.293-2.442-.838-.62-1.889.866-3.113.507a12.112,12.112,0,0,1-2.853-2.792c-.44-1.074.712-1.8.575-2.863-.116-.9-2.068-.54-2.484-1.4a18.273,18.273,0,0,1-.09-4.245c.253-1.1,1.882-.807,2.524-1.535.453-.894-.878-1.732-.582-2.868.178-.679,2.745-3.223,3.535-3.1.474.072,1.644.952,2.123.832.881-.221.565-2.482,1.837-2.764.723-.16,3.941-.158,4.415.36m-1.567,1.744-1.923.056a3.005,3.005,0,0,1-3.388,2.7c-.894-.133-1.143-.928-1.984-.315-1.655,1.206-.079,1.819-.08,2.911a9.078,9.078,0,0,1-.68,1.8c-.52.906-1.391.709-2.161,1.227l.026,1.983c1.537-.128,3.03,1.907,2.772,3.237-.277,1.431-1.455,1.377.647,2.907,1.39-.867,2.1-1,3.565-.162.941.54.823,1.279,1.22,2.163l2.016-.092c.366-1.914,1.128-2.034,2.767-2.709l2.169.767,1.2-1.266c-1.28-2.19-.472-4.584,2.155-4.927l-.033-1.993a2.9,2.9,0,0,1-2.762-2.625c-.2-1.03.789-1.931.589-2.333l-1.24-1.18c-1.572.871-2.456.685-4.029-.048Z" transform="translate(-91.323 -139.796)" fill="#19538d"/>
          <path id="Trazado_1277665" data-name="Trazado 1277665" d="M281.127,53.23V47.055l2.04.165.052,5.72c-.176.538-1.613.2-2.092.289" transform="translate(-231.532 -38.754)" fill="#19538d"/>
          <rect id="Rectángulo_461973" data-name="Rectángulo 461973" width="2.123" height="1.947" transform="translate(49.592 16.59)" fill="#19538d"/>
          <rect id="Rectángulo_461974" data-name="Rectángulo 461974" width="2.117" height="6.175" transform="translate(10.255 8.301)" fill="#19538d"/>
          <rect id="Rectángulo_461975" data-name="Rectángulo 461975" width="2.123" height="1.947" transform="translate(10.252 16.59)" fill="#19538d"/>
          <path id="Trazado_1277666" data-name="Trazado 1277666" d="M152.624,205.981a6.2,6.2,0,1,1-6.2-6.2,6.2,6.2,0,0,1,6.2,6.2m-2.066,0a4.12,4.12,0,1,0-4.121,4.121,4.121,4.121,0,0,0,4.121-4.121" transform="translate(-115.483 -164.535)" fill="#19538d"/>
        </g>
      </g>
    </g>
  </g>
</svg>
