<svg xmlns="http://www.w3.org/2000/svg" xmlns:xlink="http://www.w3.org/1999/xlink" width="105" height="105" viewBox="0 0 105 105">
  <defs>
    <clipPath id="clip-path">
      <rect id="Rectángulo_461538" data-name="Rectángulo 461538" width="77.232" height="77.232" fill="#19538d"/>
    </clipPath>
  </defs>
  <g id="Grupo_1179110" data-name="Grupo 1179110" transform="translate(-705.629 -1685)">
    <g id="Grupo_1178970" data-name="Grupo 1178970" transform="translate(705.629 1685)">
      <path id="Sustracción_110" data-name="Sustracción 110" d="M105,105h0l-61.76,0-2.475-5.922H7.416L4.943,105H0V0H63.459L65.93,5.92H99.281L101.756,0H105V105Z" fill="#fff"/>
    </g>
    <path id="Trazado_998456" data-name="Trazado 998456" d="M-3,0H25.568l3.726,8.695H.726Z" transform="translate(780.671 1685)" fill="#19538d"/>
    <g id="Grupo_1212358" data-name="Grupo 1212358" transform="translate(719.292 1698.663)">
      <g id="Grupo_1212013" data-name="Grupo 1212013" clip-path="url(#clip-path)">
        <path id="Trazado_1276250" data-name="Trazado 1276250" d="M77.232,38.617A38.616,38.616,0,1,1,38.616,0,38.616,38.616,0,0,1,77.232,38.617m-13.7-26.145a35.822,35.822,0,0,0-19.271-9.5A47.017,47.017,0,0,1,55.549,15.838a43.366,43.366,0,0,0,7.986-3.366M21.768,15.754A46.465,46.465,0,0,1,32.91,3a35.708,35.708,0,0,0-19.225,9.479,33.887,33.887,0,0,0,8.084,3.276m15.6-1.223L37.352,2.96A42.253,42.253,0,0,0,24.208,16.516c1.245.315,2.2.52,3.3.728a23.388,23.388,0,0,1,9.858-2.712m12.41,2.726a26.972,26.972,0,0,0,3.224-.8A42.364,42.364,0,0,0,39.878,2.964l-.011,11.6a23,23,0,0,1,9.911,2.7M16.506,28.944a47.174,47.174,0,0,1,3.911-10.852,49.834,49.834,0,0,1-8.491-3.778,36.108,36.108,0,0,0-9.407,23.06l12.02,0a24.471,24.471,0,0,1,1.967-8.427M62.7,37.387l12.018-.036a36.181,36.181,0,0,0-9.4-23.037,49.93,49.93,0,0,1-8.52,3.785,55.551,55.551,0,0,1,4.048,10.907c.839,2.771,1.819,5.364,1.857,8.381m-2.466,1.227A21.617,21.617,0,1,0,38.615,60.231,21.617,21.617,0,0,0,60.232,38.614m-35.9-19.436L22.8,18.816l-1.03,2.414ZM55.41,21.155l-1.025-2.387-1.53.4ZM16.484,48.2a24.076,24.076,0,0,1-1.945-8.317l-12.02.006a36.124,36.124,0,0,0,9.4,23.027A51.478,51.478,0,0,1,20.4,59.14,50.1,50.1,0,0,1,16.484,48.2M65.305,62.913a36.124,36.124,0,0,0,9.406-23.031H62.695A24.179,24.179,0,0,1,60.748,48.2a50.237,50.237,0,0,1-3.913,10.941,50.567,50.567,0,0,1,8.47,3.775M24.367,58.059l-2.606-2.065,1.081,2.5Zm30.094.382,1-2.434-2.6,2.067ZM37.339,74.214l.033-11.5a23.826,23.826,0,0,1-9.86-2.725l-3.375.706a41.332,41.332,0,0,0,13.2,13.515m2.54.055a42.027,42.027,0,0,0,13.2-13.553l-3.361-.722a23.981,23.981,0,0,1-9.851,2.726Zm-6.967-.039A46.516,46.516,0,0,1,21.675,61.38a46.631,46.631,0,0,0-7.982,3.375,35.736,35.736,0,0,0,19.219,9.475m30.624-9.477a45.235,45.235,0,0,0-7.975-3.37A46.253,46.253,0,0,1,44.272,74.25a35.813,35.813,0,0,0,19.264-9.5" transform="translate(0 -0.001)" fill="#19538d"/>
        <path id="Trazado_1276251" data-name="Trazado 1276251" d="M114.34,107.63l-4.026,8.629a2.127,2.127,0,0,1-1.078.641,1.809,1.809,0,0,1-1.165-.755l-2.065-3.555-4.19.714a1.589,1.589,0,0,1-1.2-.413,2.748,2.748,0,0,1-.206-1.229l3.93-8.416a4.477,4.477,0,0,1-3.294-5.613,4.725,4.725,0,0,0-.65-3.789,4.537,4.537,0,0,1-.109-5.219c.786-1,1.9-1.77,2.647-2.822a23.081,23.081,0,0,0,.722-2.727,4.071,4.071,0,0,1,3.2-3.134l3.549-.429c1.125-.136,4.351-4.737,8.226-1.125a4.829,4.829,0,0,0,3.673,1.37,4.6,4.6,0,0,1,5.06,4.276,4.643,4.643,0,0,0,1.915,3.3,4.612,4.612,0,0,1,1.112,6.531,4.7,4.7,0,0,0-.64,3.763,4.452,4.452,0,0,1-2.538,5.354l3.17,7.322a1.691,1.691,0,0,1-.295,1.313,1.782,1.782,0,0,1-1.154.346l-4.137-.871-2.394,3.8a1.3,1.3,0,0,1-1.973-.147l-2.862-6.584a5.533,5.533,0,0,0-3.226-.527m4.4-1.777c2.928.894,2.091-3.475,7.039-4.956a2.252,2.252,0,0,0,1.535-2.881,6.7,6.7,0,0,1,.936-5.405,2.362,2.362,0,0,0-.568-3.439c-4.053-2.994-1.657-7.117-5.181-6.927a7.107,7.107,0,0,1-5.512-2.01,2.174,2.174,0,0,0-3.177,0c-3.824,3.631-7.534.4-7.929,4.18a6.608,6.608,0,0,1-2.766,4.759,2.363,2.363,0,0,0-.568,3.441,6.7,6.7,0,0,1,.933,5.4,2.24,2.24,0,0,0,1.536,2.875c5.006,1.483,4.026,5.969,7.244,4.921,3.175-1.035,3.372-.906,6.479.043m4.417,3.108a1.646,1.646,0,0,1,1.342-.465l2.58.482-2.192-5.088L123.373,106a5.245,5.245,0,0,1-2.981,2.366l1.272,3Zm-14.042,3.911,2.093-4.434a4.4,4.4,0,0,1-3.6-2.167l-1.167-1.622-2.692,5.776a18.944,18.944,0,0,1,3.61-.387Z" transform="translate(-76.784 -59.42)" fill="#19538d"/>
        <path id="Trazado_1276252" data-name="Trazado 1276252" d="M133.909,134.7l-4.429-4.475a2.171,2.171,0,0,1,.294-2.774,2.249,2.249,0,0,1,2.659.187l2.926,2.874L144.4,122.3a2.321,2.321,0,0,1,2.567.266,2.252,2.252,0,0,1-.211,2.827l-10.445,9.475a2.391,2.391,0,0,1-2.4-.168" transform="translate(-99.619 -94.152)" fill="#19538d"/>
      </g>
    </g>
  </g>
</svg>
