<svg xmlns="http://www.w3.org/2000/svg" xmlns:xlink="http://www.w3.org/1999/xlink" width="128" height="128" viewBox="0 0 128 128">
  <defs>
    <clipPath id="clip-path">
      <rect id="Rectángulo_455533" data-name="Rectángulo 455533" width="128" height="122.776" fill="#19538d"/>
    </clipPath>
    <clipPath id="clip-path-2">
      <rect id="Rectángulo_461957" data-name="Rectángulo 461957" width="43.823" height="69.001" fill="#19538d"/>
    </clipPath>
  </defs>
  <g id="Grupo_1212355" data-name="Grupo 1212355" transform="translate(-383.746 -8399)">
    <circle id="Elipse_13674" data-name="Elipse 13674" cx="54.5" cy="54.5" r="54.5" transform="translate(392.746 8409)" fill="#fff"/>
    <g id="Grupo_1179062" data-name="Grupo 1179062" transform="translate(272)">
      <rect id="Rectángulo_455531" data-name="Rectángulo 455531" width="128" height="128" transform="translate(111.746 8399)" fill="none"/>
      <g id="Grupo_1179061" data-name="Grupo 1179061" transform="translate(111.746 8402)">
        <path id="Trazado_998445" data-name="Trazado 998445" d="M120.883,97.46H96.727L100,91.354h24.156Z" fill="#62249e"/>
        <path id="Trazado_998446" data-name="Trazado 998446" d="M1.985,86.893,0,90.934H26.632l1.986-4.041Z" fill="#19538d"/>
        <path id="Trazado_998447" data-name="Trazado 998447" d="M124.314,32.5H98.809l2-4.529h25.505Z" fill="#19538d"/>
        <path id="Trazado_998448" data-name="Trazado 998448" d="M36.988,12.75H3.483l2-4.529h33.5Z" fill="#19538d"/>
        <g id="Grupo_1179060" data-name="Grupo 1179060">
          <g id="Grupo_1179059" data-name="Grupo 1179059" clip-path="url(#clip-path)">
            <path id="Trazado_998449" data-name="Trazado 998449" d="M64,115.717a54.31,54.31,0,0,1-52.948-66.48H3.82A61.384,61.384,0,0,0,111.812,99.874h-9.469A54.154,54.154,0,0,1,64,115.717" fill="#19538d"/>
            <path id="Trazado_998450" data-name="Trazado 998450" d="M110.835,88.914h8.033c.645-1.284,1.231-2.6,1.787-3.934h-7.723c-.649,1.342-1.344,2.656-2.1,3.934" fill="#19538d"/>
            <path id="Trazado_998451" data-name="Trazado 998451" d="M125.388,61.388A61.4,61.4,0,0,0,5.373,43.131h7.452A54.33,54.33,0,1,1,114.406,81.649h7.526a61.118,61.118,0,0,0,3.456-20.261" fill="#19538d"/>
            <path id="Trazado_998452" data-name="Trazado 998452" d="M108.562,81.649V84.98h4.37q.792-1.637,1.475-3.331Z" fill="#19538d"/>
            <path id="Trazado_998453" data-name="Trazado 998453" d="M128,81.649h-6.068q-.592,1.689-1.277,3.331H128Z" fill="#19538d"/>
          </g>
        </g>
        <path id="Trazado_998444" data-name="Trazado 998444" d="M3,37.025,0,43.131H18.134l3-6.106Z" fill="#62249e"/>
      </g>
    </g>
    <g id="Grupo_1177669" data-name="Grupo 1177669" transform="translate(413.49 8428.729)">
      <g id="Grupo_1099618" data-name="Grupo 1099618" transform="translate(0.256 0.271)">
        <rect id="Rectángulo_401104" data-name="Rectángulo 401104" width="68.18" height="69.001" transform="translate(0)" fill="none"/>
      </g>
      <g id="Grupo_1212453" data-name="Grupo 1212453" transform="translate(12.256 0.271)">
        <g id="Grupo_1212452" data-name="Grupo 1212452" clip-path="url(#clip-path-2)">
          <path id="Trazado_1277641" data-name="Trazado 1277641" d="M22.89,23.706,29.067.35C29.394.019,30.153.138,30.6.206A79.684,79.684,0,0,1,41.14,3c1.732.611,1.311.991.965,2.537-1.723,7.708-4.46,15.239-6.211,22.948l7.663,10.949c-.034,4.065.5,8.8.141,12.825a3.735,3.735,0,0,1-.669,1.882c-2.023,3.473-5.5,7.082-7.786,10.462L21.808,69c-3.861-1.707-9.19-2.409-12.895-4.142A3.508,3.508,0,0,1,7.9,63.913,94.863,94.863,0,0,1,.952,54.376a3.939,3.939,0,0,1-.83-2.114C-.24,48.206.333,43.5.222,39.4L7.977,28.3,1.681,3.982l.21-.591L14.315,0l.525.264,6.572,23.384ZM3.864,4.679,9.843,27.24l9.324-2.848L13.47,2.12Zm36.3.192L30.985,2.349l-.541.162L24.846,24.4l9.227,3.038ZM34.017,63.085,41.35,52.858l.135-12.918L33.8,29.379l-11.82-3.852L9.84,29.589,2.55,39.37C1.975,43.745,2.4,48.35,2.33,52.8c1.823,1.67,6.02,9.519,7.7,10.355,3.321,1.656,8.286,2.31,11.785,3.827Z" transform="translate(0)" fill="#19538d"/>
          <path id="Trazado_1277642" data-name="Trazado 1277642" d="M38.269,141.023c3.9.634,7.751,2.277,11.532,3.484l6.583,8.918.139,12.139-6.464,8.841c-3.553,1.808-7.676,2.619-11.448,3.967l-10.993-3.637-6.673-9.417L20.9,153.88l6.62-9.273Zm.2,1.954c-1.86,1.081-8.689,2.246-9.851,3.51-2.039,2.218-3.752,5.633-5.753,7.983L23,165.033l5.906,8.026,9.891,3.228c2.044-1.027,8.5-2.08,9.923-3.42,2-1.886,3.879-5.953,5.839-8.093l-.133-10.564-5.9-8.027Z" transform="translate(-16.799 -113.352)" fill="#19538d"/>
          <path id="Trazado_1277643" data-name="Trazado 1277643" d="M72.346,196.414a1.373,1.373,0,0,1-1.316.141l-6-4.021-5.794,4.019a1.024,1.024,0,0,1-1.48-1.077l2.011-6.768c-.052-.513-4.717-3.56-5.435-4.306-.767-.8-.818-1.419.306-1.866l7.161-.3c.443-.266,1.882-5.667,2.4-6.628.378-.706.846-.966,1.52-.435.835.658,2.2,6.7,2.742,7.068l7.663.382a1.044,1.044,0,0,1,.206,1.386l-5.677,4.538c-.3.872,1.725,5.557,1.9,6.885a1.269,1.269,0,0,1-.209.98M72.59,184.3h-5.2c-1.285-1.429-1.242-3.823-2.451-5.3a28.891,28.891,0,0,1-1.524,4.659,1.575,1.575,0,0,1-.931.639H57.677c.51.972,3.841,2.674,4.081,3.475.337,1.126-1.437,4.964-1.136,5.355,1.275-.46,3.339-2.845,4.609-2.765.738.047,4.253,2.972,4.413,2.765.054-1.408-1.523-4.13-1.139-5.359.211-.674,3.627-2.532,4.084-3.471" transform="translate(-43.224 -140.576)" fill="#19538d"/>
        </g>
      </g>
    </g>
  </g>
</svg>
