<svg xmlns="http://www.w3.org/2000/svg" xmlns:xlink="http://www.w3.org/1999/xlink" width="96" height="96" viewBox="0 0 96 96">
  <defs>
    <clipPath id="clip-path">
      <rect id="Rectángulo_455533" data-name="Rectángulo 455533" width="95.999" height="92.163" fill="#19538d"/>
    </clipPath>
    <clipPath id="clip-path-2">
      <rect id="Rectángulo_461944" data-name="Rectángulo 461944" width="50.832" height="41.304" fill="#f3f9ff"/>
    </clipPath>
  </defs>
  <g id="Grupo_1212372" data-name="Grupo 1212372" transform="translate(-383.745 -8399)">
    <circle id="Elipse_13674" data-name="Elipse 13674" cx="41.5" cy="41.5" r="41.5" transform="translate(389.746 8406)" fill="#19538d"/>
    <g id="Grupo_1179062" data-name="Grupo 1179062" transform="translate(383.745 8399)">
      <rect id="Rectángulo_455531" data-name="Rectángulo 455531" width="96" height="96" transform="translate(0 0)" fill="none"/>
      <g id="Grupo_1179061" data-name="Grupo 1179061" transform="translate(0 2.203)">
        <path id="Trazado_998445" data-name="Trazado 998445" d="M114.467,95.838H96.727l2.4-4.484h17.739Z" transform="translate(-23.693 -22.7)" fill="#19538d"/>
        <path id="Trazado_998446" data-name="Trazado 998446" d="M1.458,86.893,0,89.861H19.558l1.458-2.968Z" transform="translate(0 -21.618)" fill="#19538d"/>
        <path id="Trazado_998447" data-name="Trazado 998447" d="M117.539,31.293H98.809l1.469-3.326h18.73Z" transform="translate(-24.246 -6.956)" fill="#19538d"/>
        <path id="Trazado_998448" data-name="Trazado 998448" d="M28.088,11.547H3.483L4.952,8.221H29.557Z" transform="translate(-0.925 -2.184)" fill="#19538d"/>
        <g id="Grupo_1179060" data-name="Grupo 1179060" transform="translate(0)">
          <g id="Grupo_1179059" data-name="Grupo 1179059" clip-path="url(#clip-path)">
            <path id="Trazado_998449" data-name="Trazado 998449" d="M48.653,99.141a40.772,40.772,0,0,1-39.711-49.9H3.518A46.036,46.036,0,0,0,84.512,87.248h-7.1A40.6,40.6,0,0,1,48.653,99.141" transform="translate(-0.653 -12.277)" fill="#19538d"/>
            <path id="Trazado_998450" data-name="Trazado 998450" d="M110.835,87.933h6.025c.484-.964.923-1.952,1.34-2.953h-5.792c-.487,1.007-1.008,1.994-1.573,2.953" transform="translate(-27.709 -21.189)" fill="#19538d"/>
            <path id="Trazado_998451" data-name="Trazado 998451" d="M95.384,46.081a46.043,46.043,0,0,0-90.011-13.7h5.589A40.752,40.752,0,1,1,87.147,61.291h5.644a45.915,45.915,0,0,0,2.592-15.209" transform="translate(-1.343)" fill="#19538d"/>
            <path id="Trazado_998452" data-name="Trazado 998452" d="M108.562,81.649v2.5h3.277q.594-1.228,1.106-2.5Z" transform="translate(-27.141 -20.358)" fill="#19538d"/>
            <path id="Trazado_998453" data-name="Trazado 998453" d="M126.164,81.649h-4.551q-.444,1.268-.958,2.5h5.509Z" transform="translate(-30.164 -20.358)" fill="#19538d"/>
          </g>
        </g>
        <path id="Trazado_998444" data-name="Trazado 998444" d="M2.2,37.025,0,41.509H13.317l2.2-4.484Z" transform="translate(0 -9.2)" fill="#19538d"/>
      </g>
    </g>
    <g id="Grupo_1177669" data-name="Grupo 1177669" transform="translate(403.444 8418.662)">
      <g id="Grupo_1099618" data-name="Grupo 1099618" transform="translate(-1.698 0.4)">
        <rect id="Rectángulo_401104" data-name="Rectángulo 401104" width="56.349" height="57.028" transform="translate(0)" fill="none"/>
      </g>
      <g id="Grupo_1212439" data-name="Grupo 1212439" transform="translate(1.302 7.4)">
        <path id="Trazado_1277607" data-name="Trazado 1277607" d="M2.461,8.814h45.91V38.843H2.461Zm0-6.352h45.91V6.5H2.461ZM50.831,0H0V41.3H50.832Z" fill="#f3f9ff"/>
        <g id="Grupo_1212438" data-name="Grupo 1212438">
          <g id="Grupo_1212437" data-name="Grupo 1212437" clip-path="url(#clip-path-2)">
            <path id="Trazado_1277608" data-name="Trazado 1277608" d="M192.35,76.778c2.963-.239,9.793-.211,11.864,2.2a5.643,5.643,0,0,1,.515.785l.053,19.123a2.275,2.275,0,0,1-.85,1.46c-3.111,2.562-14.521,2.651-17.547-.072a3.011,3.011,0,0,1-.868-1.154l.027-19.327c.605-2,5.01-2.867,6.806-3.011m9.99,3.423a23.393,23.393,0,0,0-11.865-.678,15.985,15.985,0,0,0-2.071.532c-.187.066-.582.079-.5.359a6.219,6.219,0,0,0,1.445.578,24.725,24.725,0,0,0,11.469.065c.23-.066,1.8-.487,1.523-.857m0,2.886a25.283,25.283,0,0,1-11.72.676c-.971-.182-1.88-.556-2.861-.676v3.826c1.386,1.18,3.745,1.558,5.552,1.666,2.851.171,6.612.1,9.029-1.522Zm0,6.785a23.022,23.022,0,0,1-14.581,0v2.96c0,.546,2.283,1.156,2.77,1.273a22.117,22.117,0,0,0,10.009-.188c.635-.2,1.176-.526,1.8-.724Zm0,5.919a22.51,22.51,0,0,1-14.581,0v2.671c0,.3,2.317.924,2.738,1.016a23.431,23.431,0,0,0,9.277.027,10.532,10.532,0,0,0,2.566-.9Z" transform="translate(-158.734 -65.611)" fill="#f3f9ff"/>
            <path id="Trazado_1277609" data-name="Trazado 1277609" d="M33.31,132.153a1.266,1.266,0,0,1,.895-2.128H51.1a1.231,1.231,0,0,1-.148,2.457c-5.347-.366-11.34.486-16.61.008a1.965,1.965,0,0,1-1.035-.337" transform="translate(-28.21 -111.253)" fill="#f3f9ff"/>
            <path id="Trazado_1277610" data-name="Trazado 1277610" d="M34.077,237.065l16.861-.038a1.233,1.233,0,0,1,.144,2.461l-16.894,0a1.211,1.211,0,0,1-.11-2.42" transform="translate(-28.189 -202.807)" fill="#f3f9ff"/>
            <path id="Trazado_1277611" data-name="Trazado 1277611" d="M33.652,77.258l18.054.077a1.214,1.214,0,0,1-.612,2.207H34.052a1.2,1.2,0,0,1-.4-2.283" transform="translate(-28.201 -66.104)" fill="#f3f9ff"/>
            <path id="Trazado_1277612" data-name="Trazado 1277612" d="M51.9,186.128a1.245,1.245,0,0,1-.746.194c-5.493.466-11.632-.367-17.193,0a1.174,1.174,0,0,1,.149-2.32L51.3,184c.985.052,1.266,1.592.6,2.13" transform="translate(-28.257 -157.434)" fill="#f3f9ff"/>
            <path id="Trazado_1277613" data-name="Trazado 1277613" d="M86.074,22.756c1.192-.279,2.272.1,2.054,1.476-.153.967-1.145.914-1.948.81a1.2,1.2,0,0,1-.106-2.286" transform="translate(-72.971 -19.397)" fill="#f3f9ff"/>
            <path id="Trazado_1277614" data-name="Trazado 1277614" d="M34.639,24.885c-.493.4-2.031.349-2.378-.351-1-2.022,2.66-2.51,2.723-.69a1.436,1.436,0,0,1-.346,1.041" transform="translate(-27.455 -19.435)" fill="#f3f9ff"/>
            <path id="Trazado_1277615" data-name="Trazado 1277615" d="M59.884,22.855c1.083-.246,2.325.141,2.035,1.452-.2.919-1.308.965-2.062.823a1.2,1.2,0,0,1,.027-2.275" transform="translate(-50.535 -19.496)" fill="#f3f9ff"/>
          </g>
        </g>
      </g>
    </g>
  </g>
</svg>
