<svg xmlns="http://www.w3.org/2000/svg" xmlns:xlink="http://www.w3.org/1999/xlink" width="128" height="128" viewBox="0 0 128 128">
  <defs>
    <clipPath id="clip-path">
      <rect id="Rectángulo_455533" data-name="Rectángulo 455533" width="128" height="122.776" fill="#19538d"/>
    </clipPath>
    <clipPath id="clip-path-2">
      <rect id="Rectángulo_461920" data-name="Rectángulo 461920" width="65.61" height="65.732" fill="#19538d"/>
    </clipPath>
  </defs>
  <g id="Grupo_1212396" data-name="Grupo 1212396" transform="translate(-383.746 -8399)">
    <circle id="Elipse_13674" data-name="Elipse 13674" cx="54.5" cy="54.5" r="54.5" transform="translate(392.746 8409)" fill="#fff"/>
    <g id="Grupo_1179062" data-name="Grupo 1179062" transform="translate(272)">
      <rect id="Rectángulo_455531" data-name="Rectángulo 455531" width="128" height="128" transform="translate(111.746 8399)" fill="none"/>
      <g id="Grupo_1179061" data-name="Grupo 1179061" transform="translate(111.746 8402)">
        <path id="Trazado_998445" data-name="Trazado 998445" d="M120.883,97.46H96.727L100,91.354h24.156Z" fill="#62249e"/>
        <path id="Trazado_998446" data-name="Trazado 998446" d="M1.985,86.893,0,90.934H26.632l1.986-4.041Z" fill="#19538d"/>
        <path id="Trazado_998447" data-name="Trazado 998447" d="M124.314,32.5H98.809l2-4.529h25.505Z" fill="#19538d"/>
        <path id="Trazado_998448" data-name="Trazado 998448" d="M36.988,12.75H3.483l2-4.529h33.5Z" fill="#19538d"/>
        <g id="Grupo_1179060" data-name="Grupo 1179060">
          <g id="Grupo_1179059" data-name="Grupo 1179059" clip-path="url(#clip-path)">
            <path id="Trazado_998449" data-name="Trazado 998449" d="M64,115.717a54.31,54.31,0,0,1-52.948-66.48H3.82A61.384,61.384,0,0,0,111.812,99.874h-9.469A54.154,54.154,0,0,1,64,115.717" fill="#19538d"/>
            <path id="Trazado_998450" data-name="Trazado 998450" d="M110.835,88.914h8.033c.645-1.284,1.231-2.6,1.787-3.934h-7.723c-.649,1.342-1.344,2.656-2.1,3.934" fill="#19538d"/>
            <path id="Trazado_998451" data-name="Trazado 998451" d="M125.388,61.388A61.4,61.4,0,0,0,5.373,43.131h7.452A54.33,54.33,0,1,1,114.406,81.649h7.526a61.118,61.118,0,0,0,3.456-20.261" fill="#19538d"/>
            <path id="Trazado_998452" data-name="Trazado 998452" d="M108.562,81.649V84.98h4.37q.792-1.637,1.475-3.331Z" fill="#19538d"/>
            <path id="Trazado_998453" data-name="Trazado 998453" d="M128,81.649h-6.068q-.592,1.689-1.277,3.331H128Z" fill="#19538d"/>
          </g>
        </g>
        <path id="Trazado_998444" data-name="Trazado 998444" d="M3,37.025,0,43.131H18.134l3-6.106Z" fill="#62249e"/>
      </g>
    </g>
    <g id="Grupo_1177669" data-name="Grupo 1177669" transform="translate(413.49 8428.729)">
      <g id="Grupo_1099618" data-name="Grupo 1099618" transform="translate(0.256 0.271)">
        <rect id="Rectángulo_401104" data-name="Rectángulo 401104" width="68.18" height="69.001" transform="translate(0)" fill="none"/>
      </g>
      <g id="Grupo_1212420" data-name="Grupo 1212420" transform="translate(1.256 1.271)">
        <g id="Grupo_1212420-2" data-name="Grupo 1212420" clip-path="url(#clip-path-2)">
          <path id="Trazado_1277570" data-name="Trazado 1277570" d="M16.216,18.576v4.846H49.394V18.855a10.271,10.271,0,0,0-2.234-.748C36.336,13.755,41.5-2.372,52.894.443c8.694,2.148,9.286,14.659.837,17.718a10.983,10.983,0,0,0-2.288.695v4.566H56.01c2.682,0,6.058,4.206,6.058,6.8V57.9H65.61v3.821c0,1.473-2.533,4.007-4.007,4.007H54.053V63.869h6.99c1.685,0,3.025-2.339,2.7-3.914H1.864c-.323,1.575,1.017,3.914,2.7,3.914H52.189v1.864H4.007C2.534,65.732,0,63.2,0,61.725V57.9H3.541V37.774h2.05V57.9h2.05V29.666a9.577,9.577,0,0,1,.838-1.4,5.1,5.1,0,0,1,1.865-.931h3.821v-2.05H10.158c-1.125,0-3.191,1.6-3.791,2.546a15.206,15.206,0,0,0-.776,1.834v6.058H3.541V30.412c0-2.7,3.263-6.99,6.058-6.99h4.566V18.855a11,11,0,0,0-2.288-.695C-.048,13.828,7.343-4.605,19.268,1.078c8.186,3.9,6.006,16.68-3.052,17.5m6.225-9.15a7.356,7.356,0,1,0-7.356,7.356,7.356,7.356,0,0,0,7.356-7.356m35.407,0a7.356,7.356,0,1,0-7.356,7.356,7.356,7.356,0,0,0,7.356-7.356M49.394,25.286H16.216v2.05H49.394ZM60.018,57.9V29.666a15.2,15.2,0,0,0-.776-1.834c-.6-.947-2.666-2.546-3.791-2.546H51.444v2.05h3.821a5.094,5.094,0,0,1,1.865.931,9.577,9.577,0,0,1,.838,1.4V57.9ZM14.166,29.386H10.158c-.147,0-.652.876-.652,1.025V57.9H56.1V30.412c0-.149-.505-1.025-.652-1.025H51.444V41.6a5.649,5.649,0,0,1-.773,2.023,4.8,4.8,0,0,1-1.743,1.053H45.666l-.025,2.211c-.075.117-2.183.776-2.57,1.065a13.637,13.637,0,0,0-1.235,1.934c-.314,1.044.393,2.929-.083,3.46L36.768,56.2c-.866.177-1.9-1.408-2.605-1.611a7.567,7.567,0,0,0-2.8.106c-.611.231-1.735,1.488-2.2,1.538l-5.4-2.985c-.266-1.129.363-2.2.011-3.367a14.511,14.511,0,0,0-1.23-1.939c-.4-.322-2.5-.943-2.575-1.06l-.025-2.211H16.682c-.953,0-2.516-1.738-2.516-2.7Zm35.228,0H16.216V42.154a3.119,3.119,0,0,0,.466.466h3.262l.021-2.216a13.365,13.365,0,0,0,2.578-1.055,14.515,14.515,0,0,0,1.23-1.939c.314-1.045-.393-2.929.083-3.46l4.985-2.86c.866-.177,1.9,1.408,2.605,1.611a9.326,9.326,0,0,0,2.842-.061c.512-.206,1.648-1.528,2.158-1.583l5.4,2.989c.273,1.127-.359,2.191-.007,3.363a14.5,14.5,0,0,0,1.23,1.939c.4.322,2.5.943,2.575,1.06l.025,2.211h3.262a3.112,3.112,0,0,0,.466-.466Zm-7.772,11.5a36.232,36.232,0,0,1-1.874-3.25c-.22-.847.248-1.512.145-2.181-.114-.736-2.477-1.617-3.108-2.116-.523-.052-1.4,1.079-2.061,1.228a15.056,15.056,0,0,1-4.1-.106c-.523-.2-1.3-1.172-1.795-1.122l-3.012,1.825c-.317.646.274,1.6.049,2.473-.046.177-1.676,3.048-1.807,3.175-.364.351-2.036.658-2.218,1.187.064.814-.309,3.137.238,3.617.445.39,1.473.459,2.071,1.1a13.318,13.318,0,0,1,1.782,3.454c.027.7-.375,1.4-.175,2.118l3.073,1.669c.5.049,1.271-.924,1.794-1.122a15.043,15.043,0,0,1,4.1-.106c.672.15,1.517,1.27,2.058,1.224l3.076-1.665c.2-.72-.2-1.415-.175-2.118a13.319,13.319,0,0,1,1.782-3.454c.576-.614,2.141-.89,2.3-1.424L43.772,42c-.18-.523-1.768-.822-2.151-1.111" transform="translate(0 0)" fill="#19538d"/>
          <path id="Trazado_1277571" data-name="Trazado 1277571" d="M106.215,314.9v2.052h-1.866l.082-1.877c.238-.342,1.349-.116,1.783-.176" transform="translate(-87.761 -264.827)" fill="#19538d"/>
          <path id="Trazado_1277572" data-name="Trazado 1277572" d="M298.508,316.954h-1.866V314.9c.434.059,1.545-.166,1.783.176Z" transform="translate(-249.486 -264.827)" fill="#19538d"/>
          <path id="Trazado_1277573" data-name="Trazado 1277573" d="M179.27,241.173a6.313,6.313,0,1,1-6.313-6.313,6.313,6.313,0,0,1,6.313,6.313m-1.948-.007a4.363,4.363,0,1,0-4.363,4.363,4.363,4.363,0,0,0,4.363-4.363" transform="translate(-140.154 -197.525)" fill="#19538d"/>
          <path id="Trazado_1277574" data-name="Trazado 1277574" d="M74.426,38.373c.211-.037,1.538,1.128,1.29,1.476L69.9,45.616,66.855,42.74l1.369-1.2,1.517,1.474Z" transform="translate(-56.227 -32.273)" fill="#19538d"/>
          <path id="Trazado_1277575" data-name="Trazado 1277575" d="M294.546,34.8l2.449,2.406,2.584-2.406c.348.484,1.434,1,1.125,1.67-.215.465-2.073,1.814-2.136,2.173l2.406,2.584-1.395,1.394-2.449-2.406-2.584,2.406-1.395-1.394,2.406-2.449-2.406-2.584Z" transform="translate(-246.55 -29.265)" fill="#19538d"/>
        </g>
      </g>
    </g>
  </g>
</svg>
