<svg xmlns="http://www.w3.org/2000/svg" xmlns:xlink="http://www.w3.org/1999/xlink" width="128" height="128" viewBox="0 0 128 128">
  <defs>
    <clipPath id="clip-path">
      <rect id="Rectángulo_455533" data-name="Rectángulo 455533" width="128" height="122.776" fill="#19538d"/>
    </clipPath>
    <clipPath id="clip-path-2">
      <rect id="Rectángulo_461978" data-name="Rectángulo 461978" width="63.422" height="63.671" fill="#19538d"/>
    </clipPath>
  </defs>
  <g id="Grupo_1212354" data-name="Grupo 1212354" transform="translate(-383.746 -8399)">
    <circle id="Elipse_13674" data-name="Elipse 13674" cx="54.5" cy="54.5" r="54.5" transform="translate(392.746 8409)" fill="#fff"/>
    <g id="Grupo_1179062" data-name="Grupo 1179062" transform="translate(272)">
      <rect id="Rectángulo_455531" data-name="Rectángulo 455531" width="128" height="128" transform="translate(111.746 8399)" fill="none"/>
      <g id="Grupo_1179061" data-name="Grupo 1179061" transform="translate(111.746 8402)">
        <path id="Trazado_998445" data-name="Trazado 998445" d="M120.883,97.46H96.727L100,91.354h24.156Z" fill="#62249e"/>
        <path id="Trazado_998446" data-name="Trazado 998446" d="M1.985,86.893,0,90.934H26.632l1.986-4.041Z" fill="#19538d"/>
        <path id="Trazado_998447" data-name="Trazado 998447" d="M124.314,32.5H98.809l2-4.529h25.505Z" fill="#19538d"/>
        <path id="Trazado_998448" data-name="Trazado 998448" d="M36.988,12.75H3.483l2-4.529h33.5Z" fill="#19538d"/>
        <g id="Grupo_1179060" data-name="Grupo 1179060">
          <g id="Grupo_1179059" data-name="Grupo 1179059" clip-path="url(#clip-path)">
            <path id="Trazado_998449" data-name="Trazado 998449" d="M64,115.717a54.31,54.31,0,0,1-52.948-66.48H3.82A61.384,61.384,0,0,0,111.812,99.874h-9.469A54.154,54.154,0,0,1,64,115.717" fill="#19538d"/>
            <path id="Trazado_998450" data-name="Trazado 998450" d="M110.835,88.914h8.033c.645-1.284,1.231-2.6,1.787-3.934h-7.723c-.649,1.342-1.344,2.656-2.1,3.934" fill="#19538d"/>
            <path id="Trazado_998451" data-name="Trazado 998451" d="M125.388,61.388A61.4,61.4,0,0,0,5.373,43.131h7.452A54.33,54.33,0,1,1,114.406,81.649h7.526a61.118,61.118,0,0,0,3.456-20.261" fill="#19538d"/>
            <path id="Trazado_998452" data-name="Trazado 998452" d="M108.562,81.649V84.98h4.37q.792-1.637,1.475-3.331Z" fill="#19538d"/>
            <path id="Trazado_998453" data-name="Trazado 998453" d="M128,81.649h-6.068q-.592,1.689-1.277,3.331H128Z" fill="#19538d"/>
          </g>
        </g>
        <path id="Trazado_998444" data-name="Trazado 998444" d="M3,37.025,0,43.131H18.134l3-6.106Z" fill="#62249e"/>
      </g>
    </g>
    <g id="Grupo_1177669" data-name="Grupo 1177669" transform="translate(413.49 8428.729)">
      <g id="Grupo_1099618" data-name="Grupo 1099618" transform="translate(0.256 0.271)">
        <rect id="Rectángulo_401104" data-name="Rectángulo 401104" width="68.18" height="69.001" transform="translate(0)" fill="none"/>
      </g>
      <g id="Grupo_1212459" data-name="Grupo 1212459" transform="translate(2.256 2.271)">
        <g id="Grupo_1212458" data-name="Grupo 1212458" clip-path="url(#clip-path-2)">
          <path id="Trazado_1277667" data-name="Trazado 1277667" d="M34.739,3.2A3.3,3.3,0,0,1,38.014.156C42.239-.3,47.205.407,51.507.181a4.074,4.074,0,0,1,1.719.7A77.872,77.872,0,0,1,60.664,8.3a4.064,4.064,0,0,1,.839,2.32c.414,4.815-.705,11.248,0,15.789.134.858,1.169,2.536,1.461,3.741A15.227,15.227,0,0,1,52.224,48.647c-.269,3.573.292,7.515-.012,11.044a4.1,4.1,0,0,1-8.134.5L44.01,48.647a15.126,15.126,0,0,1-10.205-9.211,15.4,15.4,0,0,1,.1-11.243c.12-.334.833-1.493.833-1.583V15.555H22.476a9.206,9.206,0,0,1-5.076,7.28c-.551.259-2.8.762-2.89,1.012V37.084a3.8,3.8,0,0,1,1.553.769c.742.7.64,1.757,1.635,2.087.924.306,1.653-.375,2.705-.292a4.188,4.188,0,0,1,3.637,3.991c-.042,1-.852,1.863-.088,2.813.245.305,1.318.627,1.773,1.063a4.332,4.332,0,0,1,0,5.572c-.733.7-1.908.622-2.1,1.814-.1.587.416,1.59.346,2.561a4.1,4.1,0,0,1-3.936,3.509c-1.03-.043-1.719-.824-2.712-.123-.555.392-.627,1.244-1.164,1.808a4.332,4.332,0,0,1-5.572,0c-.537-.563-.609-1.415-1.164-1.808-.992-.7-1.682.08-2.712.123A4.2,4.2,0,0,1,2.7,57.2c-.034-.9.555-1.655.37-2.443-.252-1.069-1.526-1.07-2.23-1.87a4.4,4.4,0,0,1-.076-5.069c.739-.926,2.052-.9,2.306-1.98.186-.788-.4-1.545-.37-2.443a4.226,4.226,0,0,1,3.888-3.774c.939,0,1.536.619,2.455.315,1-.329.893-1.392,1.635-2.087a8.888,8.888,0,0,1,1.587-.866l-.033-13.139c-.085-.25-2.339-.754-2.89-1.012A9.291,9.291,0,0,1,7.423,7.47a9.2,9.2,0,0,1,15.053,6.041H34.739ZM51.09,2.362H37.433a3.1,3.1,0,0,0-.465.465V23.359a15.512,15.512,0,0,1,16.905-3.62,18.213,18.213,0,0,1,5.392,3.62V10.538h-5.11a10.335,10.335,0,0,1-1.284-.389A3.432,3.432,0,0,1,51.09,7.472Zm6.689,5.946L53.32,3.849V7.844a3.1,3.1,0,0,0,.465.465ZM20.5,14.533a7.133,7.133,0,1,0-7.133,7.133A7.133,7.133,0,0,0,20.5,14.533M61.379,33.948A13.264,13.264,0,1,0,48.114,47.212,13.264,13.264,0,0,0,61.379,33.948m-48.994,5.24c-1.07,1.342-1.671,2.9-3.752,2.952-1.407.035-2.613-1.128-3.632.625-.482.829.147,1.593.2,2.432a3.573,3.573,0,0,1-.927,2.6c-1.184,1.34-2.562.665-2.045,3.336.126.651,1.881,1.146,2.514,2.317,1.151,2.129-.931,4.043,1.095,5.221.829.482,1.593-.147,2.432-.2a3.572,3.572,0,0,1,2.6.927c1.34,1.184.665,2.562,3.336,2.045.651-.126,1.146-1.881,2.317-2.514,2.129-1.151,4.043.931,5.221-1.095.482-.829-.147-1.593-.2-2.432a3.573,3.573,0,0,1,.927-2.6c1.184-1.34,2.562-.665,2.045-3.336-.126-.651-1.881-1.146-2.514-2.317-1.151-2.129.931-4.043-1.095-5.221-.829-.482-1.593.147-2.432.2-2.092.128-3.057-1.29-3.988-2.884Zm37.776,10a21.993,21.993,0,0,1-4.088,0V59.87c0,1.193,1.973,2.029,3.075,1.4a3.393,3.393,0,0,0,1.012-1.4Z" transform="translate(0 0)" fill="#19538d"/>
          <rect id="Rectángulo_461977" data-name="Rectángulo 461977" width="18.6" height="2.23" transform="translate(38.818 12.396)" fill="#19538d"/>
          <path id="Trazado_1277668" data-name="Trazado 1277668" d="M209.145,44.716h9.848l.249.308a2.352,2.352,0,0,1,.039.518c.04.461.092,1.117-.288,1.4h-9.848l-.249-.308a2.352,2.352,0,0,1-.039-.519c-.024-.272-.049-1.4.288-1.4" transform="translate(-170.039 -36.407)" fill="#19538d"/>
          <path id="Trazado_1277669" data-name="Trazado 1277669" d="M231.145,22.716h5.76l.249.308a2.353,2.353,0,0,1,.039.518c.04.461.092,1.117-.288,1.4h-5.76l-.249-.308a2.355,2.355,0,0,1-.039-.519c-.024-.272-.049-1.4.288-1.4" transform="translate(-187.951 -18.495)" fill="#19538d"/>
          <path id="Trazado_1277670" data-name="Trazado 1277670" d="M209.115,22.583c.3-.1,1.669-.1,1.844.148l-.093,1.975-1.975-.093c-.1-.468-.286-1.863.224-2.03" transform="translate(-169.983 -18.336)" fill="#19538d"/>
          <path id="Trazado_1277671" data-name="Trazado 1277671" d="M47.772,239.373a7.153,7.153,0,1,1-7.153-7.153,7.152,7.152,0,0,1,7.153,7.153m-2.07,0a5.083,5.083,0,1,0-5.083,5.083,5.083,5.083,0,0,0,5.083-5.083" transform="translate(-27.249 -189.072)" fill="#19538d"/>
          <path id="Trazado_1277672" data-name="Trazado 1277672" d="M220.945,133.448A11.242,11.242,0,1,1,209.7,122.206a11.242,11.242,0,0,1,11.242,11.242m-2.066,0a9.177,9.177,0,1,0-9.177,9.177,9.176,9.176,0,0,0,9.177-9.177" transform="translate(-161.585 -99.499)" fill="#19538d"/>
          <path id="Trazado_1277673" data-name="Trazado 1277673" d="M54.086,63.789l1.551,1.38-6.587,6.607c-.16.182-.251.205-.469.093-.677-.35-1.848-2.108-2.6-2.612l1.416-1.38c.462-.081,1.01,1.3,1.552,1.02Z" transform="translate(-37.437 -51.936)" fill="#19538d"/>
          <path id="Trazado_1277674" data-name="Trazado 1277674" d="M61.528,257.2a3.085,3.085,0,1,1-3.085-3.085,3.085,3.085,0,0,1,3.085,3.085m-2.1,0a.986.986,0,1,0-.986.986.986.986,0,0,0,.986-.986" transform="translate(-45.072 -206.897)" fill="#19538d"/>
          <path id="Trazado_1277675" data-name="Trazado 1277675" d="M220.115,176.583c.3-.1,1.669-.1,1.844.148l-.093,1.975-1.975-.093c-.1-.468-.286-1.863.224-2.03" transform="translate(-178.939 -143.721)" fill="#19538d"/>
          <path id="Trazado_1277676" data-name="Trazado 1277676" d="M242.115,176.583c.3-.1,1.669-.1,1.844.148l-.093,1.975-1.975-.093c-.1-.468-.286-1.863.224-2.03" transform="translate(-196.851 -143.721)" fill="#19538d"/>
          <path id="Trazado_1277677" data-name="Trazado 1277677" d="M264.115,176.583c.3-.1,1.669-.1,1.844.148l-.093,1.975-1.975-.093c-.1-.468-.286-1.863.224-2.03" transform="translate(-214.763 -143.721)" fill="#19538d"/>
          <path id="Trazado_1277678" data-name="Trazado 1277678" d="M286.115,176.583c.3-.1,1.669-.1,1.844.148l-.093,1.975-1.975-.093c-.1-.468-.286-1.863.224-2.03" transform="translate(-232.676 -143.721)" fill="#19538d"/>
        </g>
      </g>
    </g>
  </g>
</svg>
