<svg xmlns="http://www.w3.org/2000/svg" xmlns:xlink="http://www.w3.org/1999/xlink" width="96" height="96" viewBox="0 0 96 96">
  <defs>
    <clipPath id="clip-path">
      <rect id="Rectángulo_455533" data-name="Rectángulo 455533" width="95.999" height="92.163" fill="#19538d"/>
    </clipPath>
    <clipPath id="clip-path-2">
      <rect id="Rectángulo_461954" data-name="Rectángulo 461954" width="50" height="50" transform="translate(-0.4)" fill="#fff"/>
    </clipPath>
  </defs>
  <g id="Grupo_1212446" data-name="Grupo 1212446" transform="translate(-383.746 -8399)">
    <circle id="Elipse_13674" data-name="Elipse 13674" cx="41.5" cy="41.5" r="41.5" transform="translate(389.746 8406)" fill="#19538d"/>
    <g id="Grupo_1179062" data-name="Grupo 1179062" transform="translate(383.745 8399)">
      <rect id="Rectángulo_455531" data-name="Rectángulo 455531" width="96" height="96" transform="translate(0 0)" fill="none"/>
      <g id="Grupo_1179061" data-name="Grupo 1179061" transform="translate(0 2.203)">
        <path id="Trazado_998445" data-name="Trazado 998445" d="M114.467,95.838H96.727l2.4-4.484h17.739Z" transform="translate(-23.693 -22.7)" fill="#19538d"/>
        <path id="Trazado_998446" data-name="Trazado 998446" d="M1.458,86.893,0,89.861H19.558l1.458-2.968Z" transform="translate(0 -21.618)" fill="#19538d"/>
        <path id="Trazado_998447" data-name="Trazado 998447" d="M117.539,31.293H98.809l1.469-3.326h18.73Z" transform="translate(-24.246 -6.956)" fill="#19538d"/>
        <path id="Trazado_998448" data-name="Trazado 998448" d="M28.088,11.547H3.483L4.952,8.221H29.557Z" transform="translate(-0.925 -2.184)" fill="#19538d"/>
        <g id="Grupo_1179060" data-name="Grupo 1179060" transform="translate(0)">
          <g id="Grupo_1179059" data-name="Grupo 1179059" clip-path="url(#clip-path)">
            <path id="Trazado_998449" data-name="Trazado 998449" d="M48.653,99.141a40.772,40.772,0,0,1-39.711-49.9H3.518A46.036,46.036,0,0,0,84.512,87.248h-7.1A40.6,40.6,0,0,1,48.653,99.141" transform="translate(-0.653 -12.277)" fill="#19538d"/>
            <path id="Trazado_998450" data-name="Trazado 998450" d="M110.835,87.933h6.025c.484-.964.923-1.952,1.34-2.953h-5.792c-.487,1.007-1.008,1.994-1.573,2.953" transform="translate(-27.709 -21.189)" fill="#19538d"/>
            <path id="Trazado_998451" data-name="Trazado 998451" d="M95.384,46.081a46.043,46.043,0,0,0-90.011-13.7h5.589A40.752,40.752,0,1,1,87.147,61.291h5.644a45.915,45.915,0,0,0,2.592-15.209" transform="translate(-1.343)" fill="#19538d"/>
            <path id="Trazado_998452" data-name="Trazado 998452" d="M108.562,81.649v2.5h3.277q.594-1.228,1.106-2.5Z" transform="translate(-27.141 -20.358)" fill="#19538d"/>
            <path id="Trazado_998453" data-name="Trazado 998453" d="M126.164,81.649h-4.551q-.444,1.268-.958,2.5h5.509Z" transform="translate(-30.164 -20.358)" fill="#19538d"/>
          </g>
        </g>
        <path id="Trazado_998444" data-name="Trazado 998444" d="M2.2,37.025,0,41.509H13.317l2.2-4.484Z" transform="translate(0 -9.2)" fill="#19538d"/>
      </g>
    </g>
    <g id="Grupo_1177669" data-name="Grupo 1177669" transform="translate(403.444 8418.662)">
      <g id="Grupo_1099618" data-name="Grupo 1099618" transform="translate(0.013 0.4)">
        <rect id="Rectángulo_401104" data-name="Rectángulo 401104" width="56.349" height="57.028" transform="translate(0)" fill="none"/>
      </g>
      <g id="Grupo_1212448" data-name="Grupo 1212448" transform="translate(3.413 4.601)">
        <g id="Grupo_1212447" data-name="Grupo 1212447" transform="translate(0 -0.2)" clip-path="url(#clip-path-2)">
          <path id="Trazado_1277622" data-name="Trazado 1277622" d="M128.1,17.767a7.5,7.5,0,0,1,8.748,7.052,85.354,85.354,0,0,1-.007,10.539,8.8,8.8,0,0,1-1.8,4.518,9.893,9.893,0,0,1,1.8,4.616,85.354,85.354,0,0,1,.007,10.539c-.7,9.456-14.2,9.455-14.9,0a85.321,85.321,0,0,1,.007-10.539,8.8,8.8,0,0,1,1.8-4.518,9.894,9.894,0,0,1-1.8-4.616,80.75,80.75,0,0,1,.016-10.8,7.575,7.575,0,0,1,6.129-6.794m1.133,1.542a5.885,5.885,0,0,0-5.577,5.111,76.038,76.038,0,0,0,0,11.2c.2,1.888,1.324,3.014,2.5,4.352a6.873,6.873,0,0,0-2.5,4.251,80.279,80.279,0,0,0-.024,10.805c.5,7.228,10.805,7.128,11.507.4a76,76,0,0,0,0-11.2c-.2-1.888-1.324-3.014-2.5-4.353a6.873,6.873,0,0,0,2.5-4.251,80.259,80.259,0,0,0,.024-10.805,5.83,5.83,0,0,0-5.93-5.509" transform="translate(-104.678 -15.047)" fill="#fff"/>
          <path id="Trazado_1277623" data-name="Trazado 1277623" d="M16.435,0V4.916H4.916V16.435H0V0ZM14.89,1.686H1.686v13.2H3.231V3.441l.211-.211H14.89Z" transform="translate(0 0.155)" fill="#fff"/>
          <path id="Trazado_1277624" data-name="Trazado 1277624" d="M251.435,0V16.435h-4.916V4.916H235V0Zm-1.686,1.686h-13.2V3.231h11.448l.211.211V14.89h1.545Z" transform="translate(-201.99 0.155)" fill="#fff"/>
          <path id="Trazado_1277625" data-name="Trazado 1277625" d="M4.916,235v11.518H16.435v4.916H0V235Zm-1.686,1.545H1.686v13.2h13.2V248.2H3.441l-.211-.211Z" transform="translate(0 -201.835)" fill="#fff"/>
          <path id="Trazado_1277626" data-name="Trazado 1277626" d="M251.435,235v16.435H235v-4.916h11.518V235Zm-1.686,1.545H248.2v11.448l-.211.211H236.545v1.545h13.2Z" transform="translate(-201.99 -201.835)" fill="#fff"/>
          <path id="Trazado_1277627" data-name="Trazado 1277627" d="M153.347,204.037a4.129,4.129,0,0,1-6.979-2.544c-.31-3.584.24-7.609.007-11.241.088-.877.851-2.742,1.962-2.245,1.055.472-.055,1.5-.213,2.028-.441,1.491-.379,9.072-.189,10.874.373,3.531,4.65,3.532,5.022,0,.191-1.817.262-9.231-.157-10.765-.155-.57-1.361-1.822-.147-2.182,1.127-.335,1.795,1.533,1.871,2.425.307,3.588-.238,7.606-.007,11.241a4.287,4.287,0,0,1-1.172,2.41" transform="translate(-125.725 -161.369)" fill="#fff"/>
          <path id="Trazado_1277628" data-name="Trazado 1277628" d="M153.347,42.22a4.287,4.287,0,0,1,1.172,2.41c-.232,3.634.314,7.654.007,11.241-.075.875-.753,2.748-1.869,2.429-1.216-.347-.008-1.626.145-2.186.419-1.534.349-8.948.157-10.765-.372-3.532-4.65-3.531-5.022,0-.19,1.8-.253,9.382.189,10.874.158.533,1.267,1.556.213,2.028-1.111.5-1.874-1.369-1.962-2.245.234-3.632-.317-7.657-.007-11.241a4.129,4.129,0,0,1,6.979-2.544" transform="translate(-125.725 -35.133)" fill="#fff"/>
          <path id="Trazado_1277629" data-name="Trazado 1277629" d="M170.736,111.2c.28-.026.57.274.76.453l.138,16.873c-.166.839-.983,1.185-1.562.424l-.138-16.873c-.042-.352.493-.848.8-.877" transform="translate(-146.062 -95.42)" fill="#fff"/>
        </g>
      </g>
    </g>
  </g>
</svg>
