<svg xmlns="http://www.w3.org/2000/svg" xmlns:xlink="http://www.w3.org/1999/xlink" width="96" height="96" viewBox="0 0 96 96">
  <defs>
    <clipPath id="clip-path">
      <rect id="Rectángulo_455533" data-name="Rectángulo 455533" width="95.999" height="92.163" fill="#19538d"/>
    </clipPath>
    <clipPath id="clip-path-2">
      <rect id="Rectángulo_461953" data-name="Rectángulo 461953" width="38" height="51" transform="translate(0.401 0)" fill="#fff"/>
    </clipPath>
  </defs>
  <g id="Grupo_1212442" data-name="Grupo 1212442" transform="translate(-383.745 -8399)">
    <circle id="Elipse_13674" data-name="Elipse 13674" cx="41.5" cy="41.5" r="41.5" transform="translate(389.746 8406)" fill="#19538d"/>
    <g id="Grupo_1179062" data-name="Grupo 1179062" transform="translate(383.745 8399)">
      <rect id="Rectángulo_455531" data-name="Rectángulo 455531" width="96" height="96" transform="translate(0 0)" fill="none"/>
      <g id="Grupo_1179061" data-name="Grupo 1179061" transform="translate(0 2.203)">
        <path id="Trazado_998445" data-name="Trazado 998445" d="M114.467,95.838H96.727l2.4-4.484h17.739Z" transform="translate(-23.693 -22.7)" fill="#19538d"/>
        <path id="Trazado_998446" data-name="Trazado 998446" d="M1.458,86.893,0,89.861H19.558l1.458-2.968Z" transform="translate(0 -21.618)" fill="#19538d"/>
        <path id="Trazado_998447" data-name="Trazado 998447" d="M117.539,31.293H98.809l1.469-3.326h18.73Z" transform="translate(-24.246 -6.956)" fill="#19538d"/>
        <path id="Trazado_998448" data-name="Trazado 998448" d="M28.088,11.547H3.483L4.952,8.221H29.557Z" transform="translate(-0.925 -2.184)" fill="#19538d"/>
        <g id="Grupo_1179060" data-name="Grupo 1179060" transform="translate(0)">
          <g id="Grupo_1179059" data-name="Grupo 1179059" clip-path="url(#clip-path)">
            <path id="Trazado_998449" data-name="Trazado 998449" d="M48.653,99.141a40.772,40.772,0,0,1-39.711-49.9H3.518A46.036,46.036,0,0,0,84.512,87.248h-7.1A40.6,40.6,0,0,1,48.653,99.141" transform="translate(-0.653 -12.277)" fill="#19538d"/>
            <path id="Trazado_998450" data-name="Trazado 998450" d="M110.835,87.933h6.025c.484-.964.923-1.952,1.34-2.953h-5.792c-.487,1.007-1.008,1.994-1.573,2.953" transform="translate(-27.709 -21.189)" fill="#19538d"/>
            <path id="Trazado_998451" data-name="Trazado 998451" d="M95.384,46.081a46.043,46.043,0,0,0-90.011-13.7h5.589A40.752,40.752,0,1,1,87.147,61.291h5.644a45.915,45.915,0,0,0,2.592-15.209" transform="translate(-1.343)" fill="#19538d"/>
            <path id="Trazado_998452" data-name="Trazado 998452" d="M108.562,81.649v2.5h3.277q.594-1.228,1.106-2.5Z" transform="translate(-27.141 -20.358)" fill="#19538d"/>
            <path id="Trazado_998453" data-name="Trazado 998453" d="M126.164,81.649h-4.551q-.444,1.268-.958,2.5h5.509Z" transform="translate(-30.164 -20.358)" fill="#19538d"/>
          </g>
        </g>
        <path id="Trazado_998444" data-name="Trazado 998444" d="M2.2,37.025,0,41.509H13.317l2.2-4.484Z" transform="translate(0 -9.2)" fill="#19538d"/>
      </g>
    </g>
    <g id="Grupo_1177669" data-name="Grupo 1177669" transform="translate(403.444 8418.662)">
      <g id="Grupo_1099618" data-name="Grupo 1099618" transform="translate(-1.988 0.4)">
        <rect id="Rectángulo_401104" data-name="Rectángulo 401104" width="56.349" height="57.028" transform="translate(0)" fill="none"/>
      </g>
      <g id="Grupo_1212445" data-name="Grupo 1212445" transform="translate(7.065 4.001)">
        <path id="Trazado_1277617" data-name="Trazado 1277617" d="M26.649,5.13l6.555,6.7H26.649ZM2.993,2.993H23.657V14.821H35.485v32.35H2.993ZM0,0V50.163H38.477V12.755L25.723,0Z" transform="translate(-0.053 -0.141)" fill="#fff"/>
        <path id="Trazado_1277618" data-name="Trazado 1277618" d="M42,41H53.828v8.978H42Zm8.836,2.993H44.993v2.993h5.843Z" transform="translate(-36.068 -35.298)" fill="#fff"/>
        <path id="Trazado_1277619" data-name="Trazado 1277619" d="M160.734,247.018l2.056,2.187-6.9,6.794-3.924-3.924,1.948-2.056,1.976,1.84Z" transform="translate(-130.362 -211.957)" fill="#fff"/>
        <g id="Grupo_1212444" data-name="Grupo 1212444" transform="translate(-0.159 -0.601)">
          <g id="Grupo_1212443" data-name="Grupo 1212443" transform="translate(0 0)" clip-path="url(#clip-path-2)">
            <path id="Trazado_1277620" data-name="Trazado 1277620" d="M160.713,187.088c.338-.089,2.2,1.85,2.17,2.032l-6.9,6.929-3.909-4.039,2.056-2.083,1.853,1.847Z" transform="translate(-130.296 -159.964)" fill="#fff"/>
            <path id="Trazado_1277621" data-name="Trazado 1277621" d="M160.713,126.088c.338-.089,2.2,1.85,2.17,2.032l-6.9,6.929-3.909-4.039,1.933-1.933,1.956,1.689Z" transform="translate(-130.296 -107.658)" fill="#fff"/>
            <rect id="Rectángulo_461948" data-name="Rectángulo 461948" width="13" height="3" transform="translate(5.401 18)" fill="#fff"/>
            <rect id="Rectángulo_461949" data-name="Rectángulo 461949" width="13" height="3" transform="translate(5.401 30)" fill="#fff"/>
            <rect id="Rectángulo_461950" data-name="Rectángulo 461950" width="13" height="4" transform="translate(5.401 41)" fill="#fff"/>
            <rect id="Rectángulo_461951" data-name="Rectángulo 461951" width="13" height="2" transform="translate(5.401 36)" fill="#fff"/>
            <rect id="Rectángulo_461952" data-name="Rectángulo 461952" width="13" height="3" transform="translate(5.401 24)" fill="#fff"/>
          </g>
        </g>
      </g>
    </g>
  </g>
</svg>
